{
.appVersion = "939";
copyright = "Copyright 2016 Google Inc. All Rights Reserved.";
customParameters = (
{
name = description;
value = "Designed by Monotype design team.";
},
{
name = license;
value = "This Font Software is licensed under the SIL Open Font License, Version 1.1. This Font Software is distributed on an \"AS IS\" BASIS, WITHOUT WARRANTIES OR CONDITIONS OF ANY KIND, either express or implied. See the SIL Open Font License for the specific language, permissions and limitations governing your use of this Font Software.";
},
{
name = licenseURL;
value = "http://scripts.sil.org/OFL";
},
{
name = vendorID;
value = GOOG;
},
{
name = trademark;
value = "Noto is a trademark of Google Inc.";
},
{
name = fsType;
value = (
);
},
{
name = panose;
value = (
2,
11,
5,
2,
4,
5,
4,
2,
2,
4
);
},
{
name = unicodeRanges;
value = (
14
);
},
{
name = codePageRanges;
value = (
1252,
1256,
864
);
}
);
date = "2016-11-10 17:40:25 +0000";
designer = "Monotype Design Team";
designerURL = "http://www.monotype.com/studio";
disablesNiceNames = 1;
familyName = "Noto Sans NKo";
features = (
{
code = "sub uni07EB uni07EE by uni07EF;\012sub uni07EC uni07EE by uni07F0;\012sub uni07ED uni07EE by uni07F1;\012";
name = ccmp;
},
{

glyphs = (
{
glyphname = uni07CA;
lastChange = "2016-11-10 17:40:12 +0000";
layers = (
{
layerId = "21454836-FABD-4467-AECE-2162F2231E56";
paths = (
{
closed = 1;
nodes = (
"362 0 LINE",
"362 1462 LINE",
"180 1462 LINE",
"180 0 LINE"
);
}
);
width = 543;
}
);
note = uni07CA;
unicode = 07CA;
},
{
glyphname = uni07CB;
lastChange = "2016-11-10 17:40:12 +0000";
layers = (
{
layerId = "21454836-FABD-4467-AECE-2162F2231E56";
paths = (
{
closed = 1;
nodes = (
"777 -20 OFFCURVE",
"869 5 OFFCURVE",
"951 54 CURVE SMOOTH",
"1115 153 OFFCURVE",
"1210 336 OFFCURVE",
"1210 555 CURVE SMOOTH",
"1210 658 OFFCURVE",
"1188 750 OFFCURVE",
"1145 832 CURVE SMOOTH",
"1057 996 OFFCURVE",
"887 1094 OFFCURVE",
"680 1094 CURVE SMOOTH",
"580 1094 OFFCURVE",
"489 1070 OFFCURVE",
"406 1023 CURVE SMOOTH",
"241 927 OFFCURVE",
"141 749 OFFCURVE",
"141 541 CURVE SMOOTH",
"141 430 OFFCURVE",
"163 332 OFFCURVE",
"207 247 CURVE SMOOTH",
"295 76 OFFCURVE",
"465 -20 OFFCURVE",
"674 -20 CURVE SMOOTH"
);
},
{
closed = 1;
nodes = (
"607 139 OFFCURVE",
"545 156 OFFCURVE",
"492 189 CURVE SMOOTH",
"386 255 OFFCURVE",
"328 378 OFFCURVE",
"328 526 CURVE SMOOTH",
"328 766 OFFCURVE",
"471 934 OFFCURVE",
"676 934 CURVE SMOOTH",
"891 934 OFFCURVE",
"1024 777 OFFCURVE",
"1024 541 CURVE SMOOTH",
"1024 466 OFFCURVE",
"1010 397 OFFCURVE",
"981 336 CURVE SMOOTH",
"924 212 OFFCURVE",
"813 139 OFFCURVE",
"678 139 CURVE SMOOTH"
);
}
);
width = 1352;
}
);
note = uni07CB;
unicode = 07CB;
},
{
glyphname = uni07CC;
lastChange = "2016-11-10 17:40:12 +0000";
layers = (
{
layerId = "21454836-FABD-4467-AECE-2162F2231E56";
paths = (
{
closed = 1;
nodes = (
"539 0 LINE",
"539 717 LINE",
"887 1462 LINE",
"707 1462 LINE",
"571 1169 OFFCURVE",
"496 1007 OFFCURVE",
"483 975 CURVE SMOOTH",
"469 943 OFFCURVE",
"457 912 OFFCURVE",
"446 883 CURVE",
"426 938 OFFCURVE",
"399 1003 OFFCURVE",
"365 1079 CURVE SMOOTH",
"188 1462 LINE",
"8 1462 LINE",
"356 717 LINE",
"356 0 LINE"
);
}
);
width = 895;
}
);
note = uni07CC;
unicode = 07CC;
},
{
glyphname = uni07CD;
lastChange = "2016-11-10 17:37:31 +0000";
layers = (
{
layerId = "21454836-FABD-4467-AECE-2162F2231E56";
paths = (
{
closed = 1;
nodes = (
"260 0 LINE",
"502 539 LINE SMOOTH",
"548 640 OFFCURVE",
"592 749 OFFCURVE",
"633 866 CURVE",
"664 771 OFFCURVE",
"709 661 OFFCURVE",
"766 536 CURVE SMOOTH",
"823 410 OFFCURVE",
"903 231 OFFCURVE",
"1008 0 CURVE",
"1204 0 LINE",
"725 1051 LINE",
"543 1051 LINE",
"63 0 LINE"
);
}
);
width = 1268;
}
);
note = uni07CD;
unicode = 07CD;
},
{
glyphname = uni07CE;
lastChange = "2016-11-10 17:40:12 +0000";
layers = (
{
layerId = "21454836-FABD-4467-AECE-2162F2231E56";
paths = (
{
closed = 1;
nodes = (
"1034 0 LINE",
"1034 1051 LINE",
"852 1051 LINE",
"852 160 LINE",
"362 160 LINE",
"362 1051 LINE",
"180 1051 LINE",
"180 0 LINE"
);
}
);
width = 1214;
}
);
note = uni07CE;
unicode = 07CE;
},
{
glyphname = uni07CF;
lastChange = "2016-11-10 17:40:12 +0000";
layers = (
{
layerId = "21454836-FABD-4467-AECE-2162F2231E56";
paths = (
{
closed = 1;
nodes = (
"948 0 LINE",
"948 1051 LINE",
"100 1051 LINE",
"100 891 LINE",
"766 891 LINE",
"766 160 LINE",
"100 160 LINE",
"100 0 LINE"
);
}
);
width = 1128;
}
);
note = uni07CF;
unicode = 07CF;
},
{
glyphname = uni07D0;
lastChange = "2016-11-10 17:40:12 +0000";
layers = (
{
layerId = "21454836-FABD-4467-AECE-2162F2231E56";
paths = (
{
closed = 1;
nodes = (
"1092 0 LINE",
"1092 160 LINE",
"752 160 LINE",
"752 623 LINE",
"1028 647 OFFCURVE",
"1194 805 OFFCURVE",
"1194 1038 CURVE SMOOTH",
"1194 1303 OFFCURVE",
"993 1462 OFFCURVE",
"664 1462 CURVE SMOOTH",
"554 1462 OFFCURVE",
"458 1445 OFFCURVE",
"377 1410 CURVE SMOOTH",
"214 1341 OFFCURVE",
"127 1209 OFFCURVE",
"127 1038 CURVE SMOOTH",
"127 803 OFFCURVE",
"293 652 OFFCURVE",
"569 625 CURVE",
"569 160 LINE",
"227 160 LINE",
"227 0 LINE"
);
},
{
closed = 1;
nodes = (
"443 780 OFFCURVE",
"309 879 OFFCURVE",
"309 1040 CURVE SMOOTH",
"309 1200 OFFCURVE",
"443 1303 OFFCURVE",
"662 1303 CURVE SMOOTH",
"877 1303 OFFCURVE",
"1012 1202 OFFCURVE",
"1012 1038 CURVE SMOOTH",
"1012 885 OFFCURVE",
"877 780 OFFCURVE",
"670 780 CURVE SMOOTH"
);
}
);
width = 1321;
}
);
note = uni07D0;
unicode = 07D0;
},
{
glyphname = uni07D1;
lastChange = "2016-11-10 17:40:12 +0000";
layers = (
{
layerId = "21454836-FABD-4467-AECE-2162F2231E56";
paths = (
{
closed = 1;
nodes = (
"623 750 LINE",
"638 894 OFFCURVE",
"684 1174 OFFCURVE",
"725 1370 CURVE",
"592 1370 LINE",
"513 1155 OFFCURVE",
"447 921 OFFCURVE",
"416 772 CURVE",
"430 750 LINE"
);
},
{
closed = 1;
nodes = (
"967 0 LINE",
"967 160 LINE",
"102 160 LINE",
"102 0 LINE"
);
}
);
width = 1069;
}
);
note = uni07D1;
unicode = 07D1;
},
{
glyphname = uni07D2;
lastChange = "2016-11-10 17:40:12 +0000";
layers = (
{
layerId = "21454836-FABD-4467-AECE-2162F2231E56";
paths = (
{
closed = 1;
nodes = (
"1223 0 LINE",
"1223 932 LINE",
"795 932 LINE",
"795 1096 LINE SMOOTH",
"795 1328 OFFCURVE",
"666 1462 OFFCURVE",
"451 1462 CURVE SMOOTH",
"239 1462 OFFCURVE",
"94 1330 OFFCURVE",
"94 1126 CURVE SMOOTH",
"94 901 OFFCURVE",
"240 772 OFFCURVE",
"481 772 CURVE SMOOTH",
"612 772 LINE",
"612 500 LINE",
"795 500 LINE",
"795 770 LINE",
"1040 770 LINE",
"1040 0 LINE"
);
},
{
closed = 1;
nodes = (
"351 932 OFFCURVE",
"276 1005 OFFCURVE",
"276 1122 CURVE SMOOTH",
"276 1234 OFFCURVE",
"341 1303 OFFCURVE",
"444 1303 CURVE SMOOTH",
"549 1303 OFFCURVE",
"612 1234 OFFCURVE",
"612 1114 CURVE SMOOTH",
"612 932 LINE",
"494 932 LINE SMOOTH"
);
}
);
width = 1403;
}
);
note = uni07D2;
unicode = 07D2;
},
{
glyphname = uni07D3;
lastChange = "2016-11-10 17:40:12 +0000";
layers = (
{
layerId = "21454836-FABD-4467-AECE-2162F2231E56";
paths = (
{
closed = 1;
nodes = (
"362 0 LINE",
"362 721 LINE",
"719 721 LINE",
"719 881 LINE",
"362 881 LINE",
"362 1303 LINE",
"719 1303 LINE",
"719 1462 LINE",
"180 1462 LINE",
"180 0 LINE"
);
}
);
width = 858;
}
);
note = uni07D3;
unicode = 07D3;
},
{
glyphname = uni07D4;
lastChange = "2016-11-10 17:40:12 +0000";
layers = (
{
layerId = "21454836-FABD-4467-AECE-2162F2231E56";
paths = (
{
closed = 1;
nodes = (
"678 0 LINE",
"678 1462 LINE",
"139 1462 LINE",
"139 1303 LINE",
"496 1303 LINE",
"496 881 LINE",
"139 881 LINE",
"139 721 LINE",
"496 721 LINE",
"496 0 LINE"
);
}
);
width = 858;
}
);
note = uni07D4;
unicode = 07D4;
},
{
glyphname = uni07D5;
lastChange = "2016-11-10 17:40:12 +0000";
layers = (
{
layerId = "21454836-FABD-4467-AECE-2162F2231E56";
paths = (
{
closed = 1;
nodes = (
"553 0 LINE SMOOTH",
"646 0 OFFCURVE",
"726 19 OFFCURVE",
"795 57 CURVE SMOOTH",
"932 133 OFFCURVE",
"1010 276 OFFCURVE",
"1010 440 CURVE SMOOTH",
"1010 724 OFFCURVE",
"850 883 OFFCURVE",
"547 883 CURVE SMOOTH",
"362 883 LINE",
"362 1462 LINE",
"180 1462 LINE",
"180 0 LINE"
);
},
{
closed = 1;
nodes = (
"362 723 LINE",
"545 723 LINE SMOOTH",
"725 723 OFFCURVE",
"823 616 OFFCURVE",
"823 440 CURVE SMOOTH",
"823 265 OFFCURVE",
"726 160 OFFCURVE",
"559 160 CURVE SMOOTH",
"362 160 LINE"
);
}
);
width = 1155;
}
);
note = uni07D5;
unicode = 07D5;
},
{
glyphname = uni07D6;
lastChange = "2016-11-10 17:40:12 +0000";
layers = (
{
layerId = "21454836-FABD-4467-AECE-2162F2231E56";
paths = (
{
closed = 1;
nodes = (
"774 0 LINE",
"774 254 LINE SMOOTH",
"774 673 OFFCURVE",
"616 1022 OFFCURVE",
"299 1303 CURVE",
"895 1303 LINE",
"895 1462 LINE",
"80 1462 LINE",
"80 1303 LINE",
"224 1173 OFFCURVE",
"331 1058 OFFCURVE",
"400 959 CURVE SMOOTH",
"538 759 OFFCURVE",
"592 559 OFFCURVE",
"592 254 CURVE SMOOTH",
"592 0 LINE"
);
}
);
width = 997;
}
);
note = uni07D6;
unicode = 07D6;
},
{
glyphname = uni07D7;
lastChange = "2016-11-10 17:37:31 +0000";
layers = (
{
layerId = "21454836-FABD-4467-AECE-2162F2231E56";
paths = (
{
closed = 1;
nodes = (
"592 0 LINE",
"592 1462 LINE",
"367 1462 LINE",
"72 942 LINE",
"215 864 LINE",
"304 1021 OFFCURVE",
"354 1111 OFFCURVE",
"366 1136 CURVE SMOOTH",
"390 1184 OFFCURVE",
"406 1218 OFFCURVE",
"414 1239 CURVE",
"411 1167 OFFCURVE",
"410 1093 OFFCURVE",
"410 1016 CURVE SMOOTH",
"410 0 LINE"
);
}
);
width = 772;
}
);
note = uni07D7;
unicode = 07D7;
},
{
glyphname = uni07D8;
lastChange = "2016-11-10 17:40:12 +0000";
layers = (
{
layerId = "21454836-FABD-4467-AECE-2162F2231E56";
paths = (
{
closed = 1;
nodes = (
"1442 0 LINE",
"1442 608 LINE SMOOTH",
"1442 904 OFFCURVE",
"1313 1065 OFFCURVE",
"1065 1065 CURVE SMOOTH",
"908 1065 OFFCURVE",
"789 976 OFFCURVE",
"745 831 CURVE",
"706 902 OFFCURVE",
"619 952 OFFCURVE",
"506 952 CURVE SMOOTH",
"301 952 OFFCURVE",
"180 805 OFFCURVE",
"180 489 CURVE SMOOTH",
"180 0 LINE"
);
},
{
closed = 1;
nodes = (
"362 502 LINE SMOOTH",
"362 709 OFFCURVE",
"409 793 OFFCURVE",
"520 793 CURVE SMOOTH",
"627 793 OFFCURVE",
"678 712 OFFCURVE",
"678 516 CURVE SMOOTH",
"678 160 LINE",
"362 160 LINE"
);
},
{
closed = 1;
nodes = (
"860 616 LINE SMOOTH",
"860 801 OFFCURVE",
"931 905 OFFCURVE",
"1063 905 CURVE SMOOTH",
"1194 905 OFFCURVE",
"1260 814 OFFCURVE",
"1260 631 CURVE SMOOTH",
"1260 160 LINE",
"860 160 LINE"
);
}
);
width = 1622;
}
);
note = uni07D8;
unicode = 07D8;
},
{
glyphname = uni07D9;
lastChange = "2016-11-10 17:40:12 +0000";
layers = (
{
layerId = "21454836-FABD-4467-AECE-2162F2231E56";
paths = (
{
closed = 1;
nodes = (
"492 0 LINE",
"492 891 LINE",
"721 891 LINE",
"721 1051 LINE",
"492 1051 LINE",
"492 1462 LINE",
"309 1462 LINE",
"309 1051 LINE",
"80 1051 LINE",
"80 891 LINE",
"309 891 LINE",
"309 0 LINE"
);
}
);
width = 801;
}
);
note = uni07D9;
unicode = 07D9;
},
{
glyphname = uni07DA;
lastChange = "2016-11-10 17:40:12 +0000";
layers = (
{
layerId = "21454836-FABD-4467-AECE-2162F2231E56";
paths = (
{
closed = 1;
nodes = (
"1022 0 LINE",
"1022 891 LINE",
"1251 891 LINE",
"1251 1051 LINE",
"1022 1051 LINE",
"1022 1462 LINE",
"840 1462 LINE",
"840 1051 LINE",
"492 1051 LINE",
"492 1462 LINE",
"309 1462 LINE",
"309 1051 LINE",
"80 1051 LINE",
"80 891 LINE",
"309 891 LINE",
"309 0 LINE"
);
},
{
closed = 1;
nodes = (
"492 891 LINE",
"840 891 LINE",
"840 160 LINE",
"492 160 LINE"
);
}
);
width = 1331;
}
);
note = uni07DA;
unicode = 07DA;
},
{
glyphname = uni07DB;
lastChange = "2016-11-10 17:40:12 +0000";
layers = (
{
layerId = "21454836-FABD-4467-AECE-2162F2231E56";
paths = (
{
closed = 1;
nodes = (
"1270 0 LINE",
"1270 1051 LINE",
"510 1051 LINE SMOOTH",
"286 1051 OFFCURVE",
"180 950 OFFCURVE",
"180 739 CURVE SMOOTH",
"180 0 LINE"
);
},
{
closed = 1;
nodes = (
"362 725 LINE SMOOTH",
"362 844 OFFCURVE",
"407 891 OFFCURVE",
"496 891 CURVE SMOOTH",
"1087 891 LINE",
"1087 160 LINE",
"362 160 LINE"
);
}
);
width = 1450;
}
);
note = uni07DB;
unicode = 07DB;
},
{
glyphname = uni07DC;
lastChange = "2016-11-10 17:40:12 +0000";
layers = (
{
layerId = "21454836-FABD-4467-AECE-2162F2231E56";
paths = (
{
closed = 1;
nodes = (
"682 0 LINE",
"1100 1372 LINE",
"1100 1462 LINE",
"80 1462 LINE",
"80 1372 LINE",
"500 0 LINE"
);
},
{
closed = 1;
nodes = (
"585 311 OFFCURVE",
"561 404 OFFCURVE",
"522 530 CURVE SMOOTH",
"291 1303 LINE",
"893 1303 LINE",
"659 526 LINE SMOOTH",
"638 458 OFFCURVE",
"617 367 OFFCURVE",
"594 252 CURVE"
);
}
);
width = 1180;
}
);
note = uni07DC;
unicode = 07DC;
},
{
glyphname = uni07DD;
lastChange = "2016-11-10 17:40:12 +0000";
layers = (
{
layerId = "21454836-FABD-4467-AECE-2162F2231E56";
paths = (
{
closed = 1;
nodes = (
"592 0 LINE SMOOTH",
"816 0 OFFCURVE",
"922 100 OFFCURVE",
"922 311 CURVE SMOOTH",
"922 772 LINE",
"997 772 LINE SMOOTH",
"1252 772 OFFCURVE",
"1401 906 OFFCURVE",
"1401 1126 CURVE SMOOTH",
"1401 1323 OFFCURVE",
"1270 1462 OFFCURVE",
"1079 1462 CURVE SMOOTH",
"863 1462 OFFCURVE",
"739 1327 OFFCURVE",
"739 1100 CURVE SMOOTH",
"739 932 LINE",
"510 932 LINE SMOOTH",
"286 932 OFFCURVE",
"180 830 OFFCURVE",
"180 621 CURVE SMOOTH",
"180 0 LINE"
);
},
{
closed = 1;
nodes = (
"362 606 LINE SMOOTH",
"362 725 OFFCURVE",
"407 772 OFFCURVE",
"496 772 CURVE SMOOTH",
"739 772 LINE",
"739 326 LINE SMOOTH",
"739 211 OFFCURVE",
"698 160 OFFCURVE",
"606 160 CURVE SMOOTH",
"362 160 LINE"
);
},
{
closed = 1;
nodes = (
"922 1116 LINE SMOOTH",
"922 1241 OFFCURVE",
"971 1303 OFFCURVE",
"1069 1303 CURVE SMOOTH",
"1164 1303 OFFCURVE",
"1219 1238 OFFCURVE",
"1219 1130 CURVE SMOOTH",
"1219 998 OFFCURVE",
"1147 932 OFFCURVE",
"1004 932 CURVE SMOOTH",
"922 932 LINE"
);
}
);
width = 1501;
}
);
note = uni07DD;
unicode = 07DD;
},
{
glyphname = uni07DE;
lastChange = "2016-11-10 17:40:12 +0000";
layers = (
{
layerId = "21454836-FABD-4467-AECE-2162F2231E56";
paths = (
{
closed = 1;
nodes = (
"934 0 LINE",
"934 1462 LINE",
"752 1462 LINE",
"752 1051 LINE",
"342 1051 LINE",
"342 1317 LINE",
"160 1317 LINE",
"160 586 LINE",
"342 586 LINE",
"342 891 LINE",
"752 891 LINE",
"752 0 LINE"
);
}
);
width = 1114;
}
);
note = uni07DE;
unicode = 07DE;
},
{
glyphname = uni07DF;
lastChange = "2016-11-10 17:40:12 +0000";
layers = (
{
layerId = "21454836-FABD-4467-AECE-2162F2231E56";
paths = (
{
closed = 1;
nodes = (
"795 0 LINE",
"795 723 LINE",
"1104 723 LINE",
"1104 883 LINE",
"795 883 LINE",
"795 1098 LINE SMOOTH",
"795 1326 OFFCURVE",
"667 1462 OFFCURVE",
"455 1462 CURVE SMOOTH",
"240 1462 OFFCURVE",
"94 1319 OFFCURVE",
"94 1100 CURVE SMOOTH",
"94 865 OFFCURVE",
"252 723 OFFCURVE",
"528 723 CURVE SMOOTH",
"612 723 LINE",
"612 0 LINE"
);
},
{
closed = 1;
nodes = (
"367 883 OFFCURVE",
"276 959 OFFCURVE",
"276 1108 CURVE SMOOTH",
"276 1225 OFFCURVE",
"344 1303 OFFCURVE",
"453 1303 CURVE SMOOTH",
"560 1303 OFFCURVE",
"612 1233 OFFCURVE",
"612 1112 CURVE SMOOTH",
"612 883 LINE",
"535 883 LINE SMOOTH"
);
}
);
width = 1184;
}
);
note = uni07DF;
unicode = 07DF;
},
{
glyphname = uni07E0;
lastChange = "2016-11-10 17:40:12 +0000";
layers = (
{
layerId = "21454836-FABD-4467-AECE-2162F2231E56";
paths = (
{
closed = 1;
nodes = (
"625 0 LINE",
"625 1303 LINE",
"965 1303 LINE",
"965 1462 LINE",
"102 1462 LINE",
"102 1303 LINE",
"442 1303 LINE",
"442 0 LINE"
);
}
);
width = 1067;
}
);
note = uni07E0;
unicode = 07E0;
},
{
glyphname = uni07E1;
lastChange = "2016-11-10 17:40:12 +0000";
layers = (
{
layerId = "21454836-FABD-4467-AECE-2162F2231E56";
paths = (
{
closed = 1;
nodes = (
"1100 0 LINE",
"1100 90 LINE",
"680 1462 LINE",
"498 1462 LINE",
"80 90 LINE",
"80 0 LINE"
);
},
{
closed = 1;
nodes = (
"455 719 OFFCURVE",
"543 1013 OFFCURVE",
"551 1043 CURVE SMOOTH",
"558 1073 OFFCURVE",
"570 1129 OFFCURVE",
"586 1210 CURVE",
"597 1146 OFFCURVE",
"620 1053 OFFCURVE",
"657 932 CURVE SMOOTH",
"889 160 LINE",
"287 160 LINE"
);
}
);
width = 1180;
}
);
note = uni07E1;
unicode = 07E1;
},
{
glyphname = uni07E2;
lastChange = "2016-11-10 17:40:12 +0000";
layers = (
{
layerId = "21454836-FABD-4467-AECE-2162F2231E56";
paths = (
{
closed = 1;
nodes = (
"664 0 LINE",
"664 414 LINE",
"849 438 OFFCURVE",
"967 562 OFFCURVE",
"967 743 CURVE SMOOTH",
"967 923 OFFCURVE",
"860 1043 OFFCURVE",
"664 1071 CURVE",
"664 1462 LINE",
"100 1462 LINE",
"100 1303 LINE",
"481 1303 LINE",
"481 1071 LINE",
"288 1043 OFFCURVE",
"178 922 OFFCURVE",
"178 745 CURVE SMOOTH",
"178 558 OFFCURVE",
"289 443 OFFCURVE",
"481 416 CURVE",
"481 0 LINE"
);
},
{
closed = 1;
nodes = (
"438 569 OFFCURVE",
"362 634 OFFCURVE",
"362 743 CURVE SMOOTH",
"362 855 OFFCURVE",
"443 918 OFFCURVE",
"571 918 CURVE SMOOTH",
"708 918 OFFCURVE",
"782 852 OFFCURVE",
"782 743 CURVE SMOOTH",
"782 635 OFFCURVE",
"710 569 OFFCURVE",
"575 569 CURVE SMOOTH"
);
}
);
width = 1108;
}
);
note = uni07E2;
unicode = 07E2;
},
{
glyphname = uni07E3;
lastChange = "2016-11-10 17:40:12 +0000";
layers = (
{
layerId = "21454836-FABD-4467-AECE-2162F2231E56";
paths = (
{
closed = 1;
nodes = (
"934 0 LINE",
"934 1462 LINE",
"489 1462 LINE SMOOTH",
"265 1462 OFFCURVE",
"160 1362 OFFCURVE",
"160 1151 CURVE SMOOTH",
"160 829 LINE",
"342 829 LINE",
"342 1137 LINE SMOOTH",
"342 1254 OFFCURVE",
"387 1303 OFFCURVE",
"475 1303 CURVE SMOOTH",
"752 1303 LINE",
"752 0 LINE"
);
}
);
width = 1114;
}
);
note = uni07E3;
unicode = 07E3;
},
{
glyphname = uni07E4;
lastChange = "2016-11-10 17:40:12 +0000";
layers = (
{
layerId = "21454836-FABD-4467-AECE-2162F2231E56";
paths = (
{
closed = 1;
nodes = (
"934 0 LINE",
"934 1145 LINE",
"342 1145 LINE",
"342 1462 LINE",
"160 1462 LINE",
"160 674 LINE",
"342 674 LINE",
"342 985 LINE",
"752 985 LINE",
"752 0 LINE"
);
}
);
width = 1114;
}
);
note = uni07E4;
unicode = 07E4;
},
{
glyphname = uni07E5;
lastChange = "2016-11-10 17:40:12 +0000";
layers = (
{
layerId = "21454836-FABD-4467-AECE-2162F2231E56";
paths = (
{
closed = 1;
nodes = (
"895 0 LINE",
"895 1462 LINE",
"201 1462 LINE",
"201 1303 LINE",
"713 1303 LINE",
"713 883 LINE",
"510 883 LINE SMOOTH",
"286 883 OFFCURVE",
"180 782 OFFCURVE",
"180 571 CURVE SMOOTH",
"180 0 LINE"
);
},
{
closed = 1;
nodes = (
"362 557 LINE SMOOTH",
"362 676 OFFCURVE",
"407 723 OFFCURVE",
"496 723 CURVE SMOOTH",
"713 723 LINE",
"713 160 LINE",
"362 160 LINE"
);
}
);
width = 1075;
}
);
note = uni07E5;
unicode = 07E5;
},
{
glyphname = uni07E6;
lastChange = "2016-11-10 17:40:12 +0000";
layers = (
{
layerId = "21454836-FABD-4467-AECE-2162F2231E56";
paths = (
{
closed = 1;
nodes = (
"625 0 LINE",
"625 414 LINE",
"810 438 OFFCURVE",
"928 562 OFFCURVE",
"928 743 CURVE SMOOTH",
"928 923 OFFCURVE",
"821 1043 OFFCURVE",
"625 1071 CURVE",
"625 1462 LINE",
"442 1462 LINE",
"442 1071 LINE",
"249 1043 OFFCURVE",
"139 922 OFFCURVE",
"139 745 CURVE SMOOTH",
"139 558 OFFCURVE",
"250 443 OFFCURVE",
"442 416 CURVE",
"442 0 LINE"
);
},
{
closed = 1;
nodes = (
"404 569 OFFCURVE",
"324 631 OFFCURVE",
"324 743 CURVE SMOOTH",
"324 852 OFFCURVE",
"403 918 OFFCURVE",
"532 918 CURVE SMOOTH",
"669 918 OFFCURVE",
"743 852 OFFCURVE",
"743 743 CURVE SMOOTH",
"743 635 OFFCURVE",
"670 569 OFFCURVE",
"537 569 CURVE SMOOTH"
);
}
);
width = 1067;
}
);
note = uni07E6;
unicode = 07E6;
},
{
glyphname = uni07E7;
lastChange = "2016-11-10 17:40:12 +0000";
layers = (
{
layerId = "21454836-FABD-4467-AECE-2162F2231E56";
paths = (
{
closed = 1;
nodes = (
"633 0 LINE",
"633 414 LINE",
"820 438 OFFCURVE",
"936 562 OFFCURVE",
"936 743 CURVE SMOOTH",
"936 926 OFFCURVE",
"829 1043 OFFCURVE",
"633 1071 CURVE",
"633 1303 LINE",
"983 1303 LINE",
"983 1462 LINE",
"100 1462 LINE",
"100 1303 LINE",
"451 1303 LINE",
"451 1071 LINE",
"256 1042 OFFCURVE",
"147 922 OFFCURVE",
"147 745 CURVE SMOOTH",
"147 564 OFFCURVE",
"256 443 OFFCURVE",
"451 416 CURVE",
"451 0 LINE"
);
},
{
closed = 1;
nodes = (
"412 569 OFFCURVE",
"332 631 OFFCURVE",
"332 743 CURVE SMOOTH",
"332 854 OFFCURVE",
"410 918 OFFCURVE",
"541 918 CURVE SMOOTH",
"677 918 OFFCURVE",
"752 852 OFFCURVE",
"752 743 CURVE SMOOTH",
"752 635 OFFCURVE",
"678 569 OFFCURVE",
"545 569 CURVE SMOOTH"
);
}
);
width = 1083;
}
);
note = uni07E7;
unicode = 07E7;
},
{
glyphname = uni07E8;
lastChange = "2016-11-10 17:40:12 +0000";
layers = (
{
layerId = "21454836-FABD-4467-AECE-2162F2231E56";
paths = (
{
closed = 1;
nodes = (
"632 -557 OFFCURVE",
"812 -397 OFFCURVE",
"885 -90 CURVE",
"750 -90 LINE",
"734 -141 OFFCURVE",
"708 -193 OFFCURVE",
"672 -244 CURVE SMOOTH",
"599 -347 OFFCURVE",
"518 -399 OFFCURVE",
"430 -399 CURVE SMOOTH",
"411 -399 OFFCURVE",
"395 -397 OFFCURVE",
"383 -393 CURVE",
"580 -27 LINE",
"665 147 LINE SMOOTH",
"762 340 OFFCURVE",
"828 482 OFFCURVE",
"864 573 CURVE",
"676 573 LINE",
"615 430 OFFCURVE",
"550 293 OFFCURVE",
"483 160 CURVE",
"100 160 LINE",
"100 0 LINE",
"401 0 LINE",
"401 -2 LINE",
"391 -21 OFFCURVE",
"344 -107 OFFCURVE",
"261 -258 CURVE SMOOTH",
"204 -361 OFFCURVE",
"176 -420 OFFCURVE",
"176 -434 CURVE SMOOTH",
"176 -506 OFFCURVE",
"266 -557 OFFCURVE",
"387 -557 CURVE SMOOTH"
);
}
);
width = 928;
}
);
note = uni07E8;
unicode = 07E8;
},
{
glyphname = uni07E9;
lastChange = "2016-11-10 17:40:12 +0000";
layers = (
{
layerId = "21454836-FABD-4467-AECE-2162F2231E56";
paths = (
{
closed = 1;
nodes = (
"476 -557 OFFCURVE",
"549 -540 OFFCURVE",
"619 -505 CURVE SMOOTH",
"758 -437 OFFCURVE",
"850 -315 OFFCURVE",
"850 -211 CURVE SMOOTH",
"850 -99 OFFCURVE",
"763 -29 OFFCURVE",
"614 -29 CURVE SMOOTH",
"578 -29 LINE",
"685 182 OFFCURVE",
"792 392 OFFCURVE",
"864 573 CURVE",
"676 573 LINE",
"647 498 OFFCURVE",
"583 360 OFFCURVE",
"483 160 CURVE",
"100 160 LINE",
"100 0 LINE",
"401 0 LINE",
"401 -2 LINE",
"319 -155 LINE SMOOTH",
"269 -244 OFFCURVE",
"233 -310 OFFCURVE",
"210 -353 CURVE SMOOTH",
"187 -396 OFFCURVE",
"176 -423 OFFCURVE",
"176 -434 CURVE SMOOTH",
"176 -505 OFFCURVE",
"263 -557 OFFCURVE",
"399 -557 CURVE SMOOTH"
);
},
{
closed = 1;
nodes = (
"412 -399 OFFCURVE",
"395 -397 OFFCURVE",
"383 -393 CURVE",
"446 -279 LINE",
"506 -166 LINE",
"559 -166 LINE SMOOTH",
"627 -166 OFFCURVE",
"668 -174 OFFCURVE",
"668 -229 CURVE SMOOTH",
"668 -313 OFFCURVE",
"542 -399 OFFCURVE",
"435 -399 CURVE SMOOTH"
);
}
);
width = 928;
}
);
note = uni07E9;
unicode = 07E9;
},
{
glyphname = uni07EA;
lastChange = "2016-11-10 17:40:12 +0000";
layers = (
{
layerId = "21454836-FABD-4467-AECE-2162F2231E56";
paths = (
{
closed = 1;
nodes = (
"492 -557 LINE",
"492 0 LINE",
"721 0 LINE",
"721 160 LINE",
"492 160 LINE",
"492 664 LINE",
"309 664 LINE",
"309 160 LINE",
"80 160 LINE",
"80 0 LINE",
"309 0 LINE",
"309 -557 LINE"
);
}
);
width = 801;
}
);
note = uni07EA;
unicode = 07EA;
},
{
glyphname = uni07F4;
lastChange = "2016-11-10 17:40:12 +0000";
layers = (
{
layerId = "21454836-FABD-4467-AECE-2162F2231E56";
paths = (
{
closed = 1;
nodes = (
"301 750 LINE",
"374 950 OFFCURVE",
"444 1187 OFFCURVE",
"477 1348 CURVE",
"463 1370 LINE",
"270 1370 LINE",
"245 1159 OFFCURVE",
"211 953 OFFCURVE",
"168 750 CURVE"
);
}
);
width = 692;
}
);
note = uni07F4;
unicode = 07F4;
},
{
glyphname = uni07F5;
lastChange = "2016-11-10 17:40:12 +0000";
layers = (
{
layerId = "21454836-FABD-4467-AECE-2162F2231E56";
paths = (
{
closed = 1;
nodes = (
"375 750 LINE",
"390 894 OFFCURVE",
"436 1174 OFFCURVE",
"477 1370 CURVE",
"344 1370 LINE",
"261 1133 OFFCURVE",
"202 934 OFFCURVE",
"168 772 CURVE",
"182 750 LINE"
);
}
);
width = 692;
}
);
note = uni07F5;
unicode = 07F5;
},
{
glyphname = uni07FA;
lastChange = "2016-11-10 17:40:12 +0000";
layers = (
{
layerId = "21454836-FABD-4467-AECE-2162F2231E56";
paths = (
{
closed = 1;
nodes = (
"924 0 LINE",
"924 160 LINE",
"-70 160 LINE",
"-70 0 LINE"
);
}
);
width = 854;
}
);
note = uni07FA;
unicode = 07FA;
},
{
glyphname = uni07C0;
lastChange = "2016-11-10 17:40:12 +0000";
layers = (
{
layerId = "21454836-FABD-4467-AECE-2162F2231E56";
paths = (
{
closed = 1;
nodes = (
"847 -20 OFFCURVE",
"995 245 OFFCURVE",
"995 721 CURVE SMOOTH",
"995 1201 OFFCURVE",
"843 1462 OFFCURVE",
"551 1462 CURVE SMOOTH",
"255 1462 OFFCURVE",
"111 1217 OFFCURVE",
"111 721 CURVE SMOOTH",
"111 225 OFFCURVE",
"268 -20 OFFCURVE",
"567 -20 CURVE SMOOTH"
);
},
{
closed = 1;
nodes = (
"466 139 OFFCURVE",
"398 185 OFFCURVE",
"355 277 CURVE SMOOTH",
"312 368 OFFCURVE",
"291 515 OFFCURVE",
"291 717 CURVE SMOOTH",
"291 920 OFFCURVE",
"311 1068 OFFCURVE",
"352 1162 CURVE SMOOTH",
"393 1256 OFFCURVE",
"459 1303 OFFCURVE",
"551 1303 CURVE SMOOTH",
"645 1303 OFFCURVE",
"712 1254 OFFCURVE",
"753 1157 CURVE SMOOTH",
"793 1059 OFFCURVE",
"813 912 OFFCURVE",
"813 717 CURVE SMOOTH",
"813 521 OFFCURVE",
"792 376 OFFCURVE",
"751 281 CURVE SMOOTH",
"709 186 OFFCURVE",
"645 139 OFFCURVE",
"559 139 CURVE SMOOTH"
);
}
);
width = 1106;
}
);
note = uni07C0;
unicode = 07C0;
},
{
glyphname = uni07C1;
lastChange = "2016-11-10 17:40:12 +0000";
layers = (
{
layerId = "21454836-FABD-4467-AECE-2162F2231E56";
paths = (
{
closed = 1;
nodes = (
"985 0 LINE",
"985 160 LINE",
"655 160 LINE",
"655 1083 LINE SMOOTH",
"655 1160 OFFCURVE",
"654 1235 OFFCURVE",
"651 1307 CURVE",
"670 1260 OFFCURVE",
"695 1205 OFFCURVE",
"727 1141 CURVE SMOOTH",
"874 862 LINE",
"1018 940 LINE",
"741 1462 LINE",
"473 1462 LINE",
"473 160 LINE",
"184 160 LINE",
"184 0 LINE"
);
}
);
width = 1110;
}
);
note = uni07C1;
unicode = 07C1;
},
{
glyphname = uni07C2;
lastChange = "2016-11-10 17:40:12 +0000";
layers = (
{
layerId = "21454836-FABD-4467-AECE-2162F2231E56";
paths = (
{
closed = 1;
nodes = (
"422 0 LINE",
"422 764 LINE",
"971 764 LINE",
"971 1462 LINE",
"788 1462 LINE",
"788 924 LINE",
"422 924 LINE",
"422 1462 LINE",
"240 1462 LINE",
"240 0 LINE"
);
}
);
width = 1116;
}
);
note = uni07C2;
unicode = 07C2;
},
{
glyphname = uni07C3;
lastChange = "2016-11-10 17:40:12 +0000";
layers = (
{
layerId = "21454836-FABD-4467-AECE-2162F2231E56";
paths = (
{
closed = 1;
nodes = (
"850 0 LINE",
"850 1462 LINE",
"668 1462 LINE",
"668 737 LINE",
"303 737 LINE",
"303 578 LINE",
"668 578 LINE",
"668 160 LINE",
"303 160 LINE",
"303 0 LINE"
);
}
);
width = 1053;
}
);
note = uni07C3;
unicode = 07C3;
},
{
glyphname = uni07C4;
lastChange = "2016-11-10 17:40:12 +0000";
layers = (
{
layerId = "21454836-FABD-4467-AECE-2162F2231E56";
paths = (
{
closed = 1;
nodes = (
"811 0 LINE",
"811 160 LINE",
"385 160 LINE",
"385 684 LINE",
"811 684 LINE",
"811 1462 LINE",
"629 1462 LINE",
"629 844 LINE",
"203 844 LINE",
"203 0 LINE"
);
}
);
width = 1104;
}
);
note = uni07C4;
unicode = 07C4;
},
{
glyphname = uni07C5;
lastChange = "2016-11-10 17:40:12 +0000";
layers = (
{
layerId = "21454836-FABD-4467-AECE-2162F2231E56";
paths = (
{
closed = 1;
nodes = (
"475 0 LINE",
"475 684 LINE",
"872 684 LINE",
"872 844 LINE",
"475 844 LINE",
"475 1462 LINE",
"293 1462 LINE",
"293 0 LINE"
);
}
);
width = 1104;
}
);
note = uni07C5;
unicode = 07C5;
},
{
glyphname = uni07C6;
lastChange = "2016-11-10 17:40:12 +0000";
layers = (
{
layerId = "21454836-FABD-4467-AECE-2162F2231E56";
paths = (
{
closed = 1;
nodes = (
"872 0 LINE",
"872 844 LINE",
"385 844 LINE",
"385 1462 LINE",
"203 1462 LINE",
"203 684 LINE",
"690 684 LINE",
"690 0 LINE"
);
}
);
width = 1075;
}
);
note = uni07C6;
unicode = 07C6;
},
{
glyphname = uni07C7;
lastChange = "2016-11-10 17:40:12 +0000";
layers = (
{
layerId = "21454836-FABD-4467-AECE-2162F2231E56";
paths = (
{
closed = 1;
nodes = (
"436 0 LINE",
"1014 1014 LINE",
"870 1092 LINE",
"469 387 LINE SMOOTH",
"439 336 OFFCURVE",
"412 282 OFFCURVE",
"389 223 CURVE",
"392 295 OFFCURVE",
"393 369 OFFCURVE",
"393 446 CURVE SMOOTH",
"393 1462 LINE",
"211 1462 LINE",
"211 0 LINE"
);
}
);
width = 1110;
}
);
note = uni07C7;
unicode = 07C7;
},
{
glyphname = uni07C8;
lastChange = "2016-11-10 17:40:12 +0000";
layers = (
{
layerId = "21454836-FABD-4467-AECE-2162F2231E56";
paths = (
{
closed = 1;
nodes = (
"436 0 LINE",
"995 979 LINE",
"995 1069 LINE",
"393 1069 LINE",
"393 1462 LINE",
"211 1462 LINE",
"211 0 LINE"
);
},
{
closed = 1;
nodes = (
"392 295 OFFCURVE",
"393 369 OFFCURVE",
"393 446 CURVE SMOOTH",
"393 909 LINE",
"768 909 LINE",
"469 387 LINE SMOOTH",
"439 336 OFFCURVE",
"412 282 OFFCURVE",
"389 223 CURVE"
);
}
);
width = 1110;
}
);
note = uni07C8;
unicode = 07C8;
},
{
glyphname = uni07C9;
lastChange = "2016-11-10 17:40:12 +0000";
layers = (
{
layerId = "21454836-FABD-4467-AECE-2162F2231E56";
paths = (
{
closed = 1;
nodes = (
"657 -23 LINE",
"657 803 LINE",
"832 834 OFFCURVE",
"940 954 OFFCURVE",
"940 1126 CURVE SMOOTH",
"940 1335 OFFCURVE",
"796 1462 OFFCURVE",
"565 1462 CURVE SMOOTH",
"341 1462 OFFCURVE",
"195 1329 OFFCURVE",
"195 1130 CURVE SMOOTH",
"195 958 OFFCURVE",
"300 834 OFFCURVE",
"475 803 CURVE",
"475 -23 LINE"
);
},
{
closed = 1;
nodes = (
"450 946 OFFCURVE",
"379 1017 OFFCURVE",
"379 1137 CURVE SMOOTH",
"379 1238 OFFCURVE",
"451 1313 OFFCURVE",
"567 1313 CURVE SMOOTH",
"682 1313 OFFCURVE",
"756 1237 OFFCURVE",
"756 1128 CURVE SMOOTH",
"756 1017 OFFCURVE",
"682 946 OFFCURVE",
"567 946 CURVE SMOOTH"
);
}
);
width = 1135;
}
);
note = uni07C9;
unicode = 07C9;
},
{
glyphname = uni2E1C;
lastChange = "2016-11-10 17:40:12 +0000";
layers = (
{
layerId = "21454836-FABD-4467-AECE-2162F2231E56";
paths = (
{
closed = 1;
nodes = (
"1084 220 LINE",
"243 1060 LINE",
"133 950 LINE",
"974 110 LINE"
);
}
);
width = 1229;
}
);
note = uni2E1C;
unicode = 2E1C;
},
{
glyphname = uni2E1D;
lastChange = "2016-11-10 17:37:31 +0000";
layers = (
{
layerId = "21454836-FABD-4467-AECE-2162F2231E56";
paths = (
{
closed = 1;
nodes = (
"1104 950 LINE",
"994 1060 LINE",
"153 220 LINE",
"263 110 LINE"
);
}
);
width = 1229;
}
);
note = uni2E1D;
unicode = 2E1D;
},
{
glyphname = uni07F7;
lastChange = "2016-11-10 17:40:12 +0000";
layers = (
{
layerId = "21454836-FABD-4467-AECE-2162F2231E56";
paths = (
{
closed = 1;
nodes = (
"739 -86 OFFCURVE",
"882 -33 OFFCURVE",
"969 84 CURVE",
"1049 -29 OFFCURVE",
"1183 -86 OFFCURVE",
"1370 -86 CURVE SMOOTH",
"1665 -86 OFFCURVE",
"1843 91 OFFCURVE",
"1843 375 CURVE SMOOTH",
"1843 467 OFFCURVE",
"1823 547 OFFCURVE",
"1783 614 CURVE SMOOTH",
"1703 748 OFFCURVE",
"1556 819 OFFCURVE",
"1372 819 CURVE",
"1417 870 OFFCURVE",
"1454 958 OFFCURVE",
"1454 1063 CURVE SMOOTH",
"1454 1344 OFFCURVE",
"1270 1505 OFFCURVE",
"963 1505 CURVE SMOOTH",
"874 1505 OFFCURVE",
"793 1487 OFFCURVE",
"719 1452 CURVE SMOOTH",
"571 1381 OFFCURVE",
"483 1246 OFFCURVE",
"483 1075 CURVE SMOOTH",
"483 969 OFFCURVE",
"512 884 OFFCURVE",
"569 819 CURVE",
"482 819 OFFCURVE",
"402 801 OFFCURVE",
"330 764 CURVE SMOOTH",
"186 690 OFFCURVE",
"102 548 OFFCURVE",
"102 375 CURVE SMOOTH",
"102 84 OFFCURVE",
"283 -86 OFFCURVE",
"582 -86 CURVE SMOOTH"
);
},
{
closed = 1;
nodes = (
"667 231 OFFCURVE",
"715 284 OFFCURVE",
"715 371 CURVE SMOOTH",
"715 459 OFFCURVE",
"667 508 OFFCURVE",
"586 508 CURVE SMOOTH",
"507 508 OFFCURVE",
"461 463 OFFCURVE",
"461 371 CURVE SMOOTH",
"461 279 OFFCURVE",
"507 231 OFFCURVE",
"586 231 CURVE SMOOTH"
);
},
{
closed = 1;
nodes = (
"393 66 OFFCURVE",
"283 178 OFFCURVE",
"283 373 CURVE SMOOTH",
"283 565 OFFCURVE",
"387 674 OFFCURVE",
"584 674 CURVE SMOOTH",
"643 674 OFFCURVE",
"691 665 OFFCURVE",
"729 647 CURVE",
"817 774 LINE",
"715 833 OFFCURVE",
"664 926 OFFCURVE",
"664 1053 CURVE SMOOTH",
"664 1245 OFFCURVE",
"768 1354 OFFCURVE",
"965 1354 CURVE SMOOTH",
"1164 1354 OFFCURVE",
"1274 1246 OFFCURVE",
"1274 1053 CURVE SMOOTH",
"1274 932 OFFCURVE",
"1233 845 OFFCURVE",
"1128 782 CURVE",
"1221 653 LINE",
"1258 667 OFFCURVE",
"1302 674 OFFCURVE",
"1354 674 CURVE SMOOTH",
"1553 674 OFFCURVE",
"1663 566 OFFCURVE",
"1663 373 CURVE SMOOTH",
"1663 177 OFFCURVE",
"1546 66 OFFCURVE",
"1354 66 CURVE SMOOTH",
"1161 66 OFFCURVE",
"1053 180 OFFCURVE",
"1053 379 CURVE",
"893 379 LINE",
"893 180 OFFCURVE",
"777 66 OFFCURVE",
"584 66 CURVE SMOOTH"
);
},
{
closed = 1;
nodes = (
"1437 231 OFFCURVE",
"1485 284 OFFCURVE",
"1485 371 CURVE SMOOTH",
"1485 459 OFFCURVE",
"1437 508 OFFCURVE",
"1356 508 CURVE SMOOTH",
"1277 508 OFFCURVE",
"1231 463 OFFCURVE",
"1231 371 CURVE SMOOTH",
"1231 279 OFFCURVE",
"1277 231 OFFCURVE",
"1356 231 CURVE SMOOTH"
);
},
{
closed = 1;
nodes = (
"1048 911 OFFCURVE",
"1096 964 OFFCURVE",
"1096 1051 CURVE SMOOTH",
"1096 1139 OFFCURVE",
"1048 1188 OFFCURVE",
"967 1188 CURVE SMOOTH",
"888 1188 OFFCURVE",
"842 1143 OFFCURVE",
"842 1051 CURVE SMOOTH",
"842 959 OFFCURVE",
"888 911 OFFCURVE",
"967 911 CURVE SMOOTH"
);
}
);
width = 1946;
}
);
note = uni07F7;
unicode = 07F7;
},
{
glyphname = uni07F8;
lastChange = "2016-11-10 17:40:12 +0000";
layers = (
{
layerId = "21454836-FABD-4467-AECE-2162F2231E56";
paths = (
{
closed = 1;
nodes = (
"883 0 LINE",
"883 160 LINE",
"102 160 LINE",
"102 0 LINE"
);
},
{
closed = 1;
nodes = (
"570 735 OFFCURVE",
"618 789 OFFCURVE",
"618 874 CURVE SMOOTH",
"618 962 OFFCURVE",
"570 1012 OFFCURVE",
"489 1012 CURVE SMOOTH",
"410 1012 OFFCURVE",
"365 965 OFFCURVE",
"365 874 CURVE SMOOTH",
"365 786 OFFCURVE",
"412 735 OFFCURVE",
"489 735 CURVE SMOOTH"
);
}
);
width = 985;
}
);
note = uni07F8;
unicode = 07F8;
},
{
glyphname = uni07F9;
lastChange = "2016-11-10 17:40:12 +0000";
layers = (
{
layerId = "21454836-FABD-4467-AECE-2162F2231E56";
paths = (
{
closed = 1;
nodes = (
"883 1065 LINE",
"883 1225 LINE",
"102 1225 LINE",
"102 1065 LINE"
);
},
{
closed = 1;
nodes = (
"568 -20 OFFCURVE",
"618 31 OFFCURVE",
"618 119 CURVE SMOOTH",
"618 207 OFFCURVE",
"570 256 OFFCURVE",
"489 256 CURVE SMOOTH",
"412 256 OFFCURVE",
"365 211 OFFCURVE",
"365 119 CURVE SMOOTH",
"365 20 OFFCURVE",
"420 -20 OFFCURVE",
"489 -20 CURVE SMOOTH"
);
},
{
closed = 1;
nodes = (
"570 487 OFFCURVE",
"618 540 OFFCURVE",
"618 627 CURVE SMOOTH",
"618 715 OFFCURVE",
"570 764 OFFCURVE",
"489 764 CURVE SMOOTH",
"412 764 OFFCURVE",
"365 719 OFFCURVE",
"365 627 CURVE SMOOTH",
"365 528 OFFCURVE",
"420 487 OFFCURVE",
"489 487 CURVE SMOOTH"
);
}
);
width = 985;
}
);
note = uni07F9;
unicode = 07F9;
},
{
glyphname = afii57388;
lastChange = "2016-11-10 17:40:12 +0000";
layers = (
{
layerId = "21454836-FABD-4467-AECE-2162F2231E56";
paths = (
{
closed = 1;
nodes = (
"277 154 OFFCURVE",
"334 210 OFFCURVE",
"346 291 CURVE",
"275 314 OFFCURVE",
"232 334 OFFCURVE",
"232 371 CURVE SMOOTH",
"232 443 OFFCURVE",
"281 577 OFFCURVE",
"346 649 CURVE",
"290 695 LINE",
"174 571 OFFCURVE",
"81 392 OFFCURVE",
"81 289 CURVE SMOOTH",
"81 268 OFFCURVE",
"86 247 OFFCURVE",
"97 225 CURVE SMOOTH",
"118 181 OFFCURVE",
"158 154 OFFCURVE",
"209 154 CURVE SMOOTH"
);
}
);
width = 435;
}
);
note = afii57388;
unicode = 060C;
},
{
glyphname = afii57403;
lastChange = "2016-11-10 17:40:12 +0000";
layers = (
{
layerId = "21454836-FABD-4467-AECE-2162F2231E56";
paths = (
{
closed = 1;
nodes = (
"286 636 OFFCURVE",
"343 692 OFFCURVE",
"355 773 CURVE",
"284 796 OFFCURVE",
"241 816 OFFCURVE",
"241 853 CURVE SMOOTH",
"241 925 OFFCURVE",
"290 1059 OFFCURVE",
"355 1131 CURVE",
"299 1177 LINE",
"183 1053 OFFCURVE",
"90 874 OFFCURVE",
"90 771 CURVE SMOOTH",
"90 750 OFFCURVE",
"95 729 OFFCURVE",
"106 707 CURVE SMOOTH",
"127 663 OFFCURVE",
"167 636 OFFCURVE",
"218 636 CURVE SMOOTH"
);
},
{
closed = 1;
nodes = (
"313 222 OFFCURVE",
"341 271 OFFCURVE",
"341 286 CURVE SMOOTH",
"341 306 OFFCURVE",
"289 346 OFFCURVE",
"185 407 CURVE",
"168 382 OFFCURVE",
"152 356 OFFCURVE",
"138 329 CURVE SMOOTH",
"124 302 OFFCURVE",
"109 275 OFFCURVE",
"94 248 CURVE",
"136 223 OFFCURVE",
"190 187 OFFCURVE",
"257 141 CURVE"
);
}
);
width = 435;
}
);
note = afii57403;
unicode = 061B;
},
{
glyphname = afii57407;
lastChange = "2016-11-10 17:40:12 +0000";
layers = (
{
layerId = "21454836-FABD-4467-AECE-2162F2231E56";
paths = (
{
closed = 1;
nodes = (
"536 569 OFFCURVE",
"559 645 OFFCURVE",
"559 702 CURVE SMOOTH",
"559 755 OFFCURVE",
"539 803 OFFCURVE",
"498 845 CURVE SMOOTH",
"457 887 OFFCURVE",
"376 936 OFFCURVE",
"254 991 CURVE SMOOTH",
"228 1002 OFFCURVE",
"205 1014 OFFCURVE",
"186 1026 CURVE",
"231 1161 OFFCURVE",
"350 1251 OFFCURVE",
"475 1251 CURVE SMOOTH",
"570 1251 OFFCURVE",
"621 1228 OFFCURVE",
"702 1152 CURVE",
"743 1188 OFFCURVE",
"764 1226 OFFCURVE",
"764 1265 CURVE SMOOTH",
"764 1290 OFFCURVE",
"755 1312 OFFCURVE",
"736 1332 CURVE SMOOTH",
"677 1395 OFFCURVE",
"598 1426 OFFCURVE",
"498 1426 CURVE SMOOTH",
"431 1426 OFFCURVE",
"369 1407 OFFCURVE",
"310 1368 CURVE SMOOTH",
"192 1290 OFFCURVE",
"113 1146 OFFCURVE",
"113 1019 CURVE SMOOTH",
"113 922 OFFCURVE",
"165 849 OFFCURVE",
"270 792 CURVE SMOOTH",
"331 758 OFFCURVE",
"373 730 OFFCURVE",
"394 709 CURVE SMOOTH",
"415 688 OFFCURVE",
"426 664 OFFCURVE",
"426 637 CURVE SMOOTH",
"426 618 OFFCURVE",
"421 581 OFFCURVE",
"412 525 CURVE",
"489 476 LINE"
);
},
{
closed = 1;
nodes = (
"501 214 OFFCURVE",
"529 262 OFFCURVE",
"529 277 CURVE SMOOTH",
"529 284 OFFCURVE",
"517 298 OFFCURVE",
"493 319 CURVE SMOOTH",
"469 339 OFFCURVE",
"429 365 OFFCURVE",
"373 397 CURVE",
"356 372 OFFCURVE",
"340 346 OFFCURVE",
"327 319 CURVE SMOOTH",
"313 292 OFFCURVE",
"298 265 OFFCURVE",
"282 238 CURVE",
"329 211 OFFCURVE",
"368 187 OFFCURVE",
"399 164 CURVE SMOOTH",
"445 131 LINE"
);
}
);
width = 870;
}
);
note = afii57407;
unicode = 061F;
},
{
glyphname = uniFD3E;
lastChange = "2016-11-10 17:40:12 +0000";
layers = (
{
layerId = "21454836-FABD-4467-AECE-2162F2231E56";
paths = (
{
closed = 1;
nodes = (
"459 654 OFFCURVE",
"528 688 OFFCURVE",
"593 736 CURVE",
"614 773 LINE SMOOTH",
"655 843 OFFCURVE",
"676 887 OFFCURVE",
"679 906 CURVE SMOOTH",
"731 1319 LINE SMOOTH",
"746 1440 OFFCURVE",
"771 1488 OFFCURVE",
"851 1519 CURVE SMOOTH",
"902 1537 LINE",
"877 1606 LINE",
"769 1570 LINE SMOOTH",
"534 1491 OFFCURVE",
"559 1301 OFFCURVE",
"559 940 CURVE SMOOTH",
"558 838 LINE",
"481 795 OFFCURVE",
"441 777 OFFCURVE",
"322 750 CURVE",
"350 686 OFFCURVE",
"387 654 OFFCURVE",
"432 654 CURVE SMOOTH"
);
},
{
closed = 1;
nodes = (
"897 -290 OFFCURVE",
"917 -268 OFFCURVE",
"938 -241 CURVE",
"877 -180 LINE",
"844 -215 OFFCURVE",
"822 -238 OFFCURVE",
"811 -248 CURVE",
"828 -268 OFFCURVE",
"850 -288 OFFCURVE",
"877 -309 CURVE"
);
},
{
closed = 1;
nodes = (
"220 654 OFFCURVE",
"264 704 OFFCURVE",
"296 750 CURVE",
"247 793 OFFCURVE",
"201 838 OFFCURVE",
"160 884 CURVE",
"117 835 OFFCURVE",
"70 785 OFFCURVE",
"17 734 CURVE",
"56 691 OFFCURVE",
"105 646 OFFCURVE",
"164 600 CURVE"
);
},
{
closed = 1;
nodes = (
"902 -84 LINE",
"851 -67 LINE SMOOTH",
"778 -42 OFFCURVE",
"748 5 OFFCURVE",
"731 133 CURVE SMOOTH",
"692 474 OFFCURVE",
"680 540 OFFCURVE",
"604 671 CURVE",
"540 633 LINE",
"547 594 OFFCURVE",
"552 534 OFFCURVE",
"555 454 CURVE SMOOTH",
"558 303 OFFCURVE",
"564 194 OFFCURVE",
"573 125 CURVE SMOOTH",
"586 3 OFFCURVE",
"652 -78 OFFCURVE",
"769 -117 CURVE SMOOTH",
"877 -154 LINE"
);
},
{
closed = 1;
nodes = (
"897 1651 OFFCURVE",
"917 1673 OFFCURVE",
"938 1700 CURVE",
"877 1761 LINE",
"844 1726 OFFCURVE",
"822 1703 OFFCURVE",
"811 1693 CURVE",
"824 1678 OFFCURVE",
"846 1658 OFFCURVE",
"877 1632 CURVE"
);
}
);
width = 1025;
}
);
note = uniFD3E;
unicode = FD3E;
},
{
glyphname = uniFD3F;
lastChange = "2016-11-10 17:40:12 +0000";
layers = (
{
layerId = "21454836-FABD-4467-AECE-2162F2231E56";
paths = (
{
closed = 1;
nodes = (
"256 -119 LINE SMOOTH",
"489 -43 OFFCURVE",
"466 136 OFFCURVE",
"466 549 CURVE SMOOTH",
"467 612 LINE",
"552 660 OFFCURVE",
"587 674 OFFCURVE",
"703 701 CURVE",
"676 764 OFFCURVE",
"639 796 OFFCURVE",
"593 796 CURVE SMOOTH",
"566 796 OFFCURVE",
"489 758 OFFCURVE",
"432 715 CURVE",
"412 678 LINE",
"372 610 OFFCURVE",
"350 565 OFFCURVE",
"347 544 CURVE SMOOTH",
"294 132 LINE SMOOTH",
"278 4 OFFCURVE",
"247 -44 OFFCURVE",
"174 -69 CURVE SMOOTH",
"123 -86 LINE",
"148 -156 LINE"
);
},
{
closed = 1;
nodes = (
"214 -242 LINE",
"195 -221 OFFCURVE",
"173 -201 OFFCURVE",
"148 -182 CURVE",
"121 -208 OFFCURVE",
"100 -231 OFFCURVE",
"87 -250 CURVE",
"148 -310 LINE"
);
},
{
closed = 1;
nodes = (
"485 818 LINE",
"478 856 OFFCURVE",
"473 916 OFFCURVE",
"470 997 CURVE SMOOTH",
"463 1298 OFFCURVE",
"489 1492 OFFCURVE",
"256 1568 CURVE SMOOTH",
"148 1605 LINE",
"123 1535 LINE",
"174 1517 LINE SMOOTH",
"254 1486 OFFCURVE",
"278 1441 OFFCURVE",
"294 1317 CURVE SMOOTH",
"315 1140 LINE SMOOTH",
"334 975 OFFCURVE",
"366 874 OFFCURVE",
"422 779 CURVE"
);
},
{
closed = 1;
nodes = (
"908 616 OFFCURVE",
"955 666 OFFCURVE",
"1008 717 CURVE",
"967 762 OFFCURVE",
"918 806 OFFCURVE",
"862 851 CURVE",
"807 800 OFFCURVE",
"763 750 OFFCURVE",
"729 701 CURVE",
"779 657 OFFCURVE",
"824 612 OFFCURVE",
"865 567 CURVE"
);
},
{
closed = 1;
nodes = (
"214 1698 LINE",
"197 1719 OFFCURVE",
"175 1739 OFFCURVE",
"148 1759 CURVE",
"121 1733 OFFCURVE",
"100 1710 OFFCURVE",
"87 1691 CURVE",
"117 1663 LINE",
"148 1630 LINE"
);
}
);
width = 1025;
}
);
note = uniFD3F;
unicode = FD3F;
},
{
glyphname = afii299;
lastChange = "2016-11-10 17:40:12 +0000";
layers = (
{
layerId = "21454836-FABD-4467-AECE-2162F2231E56";
paths = (
{
closed = 1;
nodes = (
"35 183 LINE",
"35 1417 LINE",
"301 1417 LINE",
"164 1287 LINE",
"213 1238 LINE",
"430 1452 LINE",
"213 1667 LINE",
"164 1618 LINE",
"301 1488 LINE",
"-36 1488 LINE",
"-36 183 LINE"
);
}
);
width = 0;
}
);
note = afii299;
unicode = 200E;
},
{
glyphname = afii300;
lastChange = "2016-11-10 17:40:12 +0000";
layers = (
{
layerId = "21454836-FABD-4467-AECE-2162F2231E56";
paths = (
{
closed = 1;
nodes = (
"35 183 LINE",
"35 1488 LINE",
"-302 1488 LINE",
"-165 1618 LINE",
"-214 1667 LINE",
"-431 1452 LINE",
"-214 1238 LINE",
"-165 1287 LINE",
"-302 1417 LINE",
"-36 1417 LINE",
"-36 183 LINE"
);
}
);
width = 0;
}
);
note = afii300;
unicode = 200F;
},
{
glyphname = afii301;
lastChange = "2016-11-10 17:40:12 +0000";
layers = (
{
layerId = "21454836-FABD-4467-AECE-2162F2231E56";
paths = (
{
closed = 1;
nodes = (
"36 183 LINE",
"36 1368 LINE",
"170 1232 LINE",
"219 1281 LINE",
"48 1450 LINE",
"219 1618 LINE",
"170 1667 LINE",
"0 1496 LINE",
"-170 1667 LINE",
"-219 1618 LINE",
"-48 1450 LINE",
"-219 1281 LINE",
"-170 1232 LINE",
"-36 1368 LINE",
"-36 183 LINE"
);
}
);
width = 0;
}
);
note = afii301;
unicode = 200D;
},
{
glyphname = afii61664;
lastChange = "2016-11-10 17:40:12 +0000";
layers = (
{
layerId = "21454836-FABD-4467-AECE-2162F2231E56";
paths = (
{
closed = 1;
nodes = (
"36 183 LINE",
"36 1667 LINE",
"-36 1667 LINE",
"-36 183 LINE"
);
}
);
width = 0;
}
);
note = afii61664;
unicode = 200C;
},
{
glyphname = .notdef;
lastChange = "2016-11-10 17:40:12 +0000";
layers = (
{
layerId = "21454836-FABD-4467-AECE-2162F2231E56";
paths = (
{
closed = 1;
nodes = (
"1034 0 LINE",
"1034 1462 LINE",
"193 1462 LINE",
"193 0 LINE"
);
},
{
closed = 1;
nodes = (
"297 1358 LINE",
"930 1358 LINE",
"930 104 LINE",
"297 104 LINE"
);
}
);
width = 1229;
}
);
note = .notdef;
},
{
glyphname = uni07F6;
lastChange = "2016-11-10 17:40:12 +0000";
layers = (
{
layerId = "21454836-FABD-4467-AECE-2162F2231E56";
paths = (
{
closed = 1;
nodes = (
"1032 0 LINE",
"1032 160 LINE",
"410 160 LINE",
"669 387 OFFCURVE",
"783 507 OFFCURVE",
"883 657 CURVE SMOOTH",
"983 807 OFFCURVE",
"1032 950 OFFCURVE",
"1032 1087 CURVE SMOOTH",
"1032 1327 OFFCURVE",
"885 1462 OFFCURVE",
"629 1462 CURVE SMOOTH",
"370 1462 OFFCURVE",
"199 1318 OFFCURVE",
"199 1102 CURVE SMOOTH",
"199 874 OFFCURVE",
"361 741 OFFCURVE",
"625 741 CURVE SMOOTH",
"660 741 OFFCURVE",
"695 747 OFFCURVE",
"729 758 CURVE",
"612 562 OFFCURVE",
"415 353 OFFCURVE",
"80 90 CURVE",
"80 0 LINE"
);
},
{
closed = 1;
nodes = (
"472 897 OFFCURVE",
"383 974 OFFCURVE",
"383 1102 CURVE SMOOTH",
"383 1217 OFFCURVE",
"471 1303 OFFCURVE",
"614 1303 CURVE SMOOTH",
"758 1303 OFFCURVE",
"848 1226 OFFCURVE",
"848 1110 CURVE SMOOTH",
"848 977 OFFCURVE",
"768 897 OFFCURVE",
"621 897 CURVE SMOOTH"
);
}
);
width = 1135;
}
);
note = uni07F6;
unicode = 07F6;
},
{
glyphname = afii57381;
lastChange = "2016-11-10 17:40:12 +0000";
layers = (
{
layerId = "21454836-FABD-4467-AECE-2162F2231E56";
paths = (
{
closed = 1;
nodes = (
"280 360 OFFCURVE",
"523 842 OFFCURVE",
"698 1171 CURVE SMOOTH",
"703 1180 OFFCURVE",
"705 1192 OFFCURVE",
"705 1205 CURVE",
"704 1245 OFFCURVE",
"680 1289 OFFCURVE",
"648 1312 CURVE",
"471 988 OFFCURVE",
"215 480 OFFCURVE",
"108 253 CURVE",
"125 212 OFFCURVE",
"150 178 OFFCURVE",
"181 153 CURVE"
);
},
{
closed = 1;
nodes = (
"718 347 OFFCURVE",
"752 405 OFFCURVE",
"752 424 CURVE SMOOTH",
"752 435 OFFCURVE",
"738 453 OFFCURVE",
"709 478 CURVE SMOOTH",
"680 503 OFFCURVE",
"632 535 OFFCURVE",
"564 574 CURVE",
"543 542 OFFCURVE",
"524 510 OFFCURVE",
"507 478 CURVE SMOOTH",
"490 445 OFFCURVE",
"471 412 OFFCURVE",
"452 379 CURVE",
"517 343 OFFCURVE",
"582 299 OFFCURVE",
"649 248 CURVE"
);
},
{
closed = 1;
nodes = (
"335 1016 OFFCURVE",
"369 1075 OFFCURVE",
"369 1094 CURVE SMOOTH",
"369 1105 OFFCURVE",
"355 1123 OFFCURVE",
"326 1148 CURVE SMOOTH",
"297 1173 OFFCURVE",
"249 1205 OFFCURVE",
"181 1244 CURVE",
"160 1212 OFFCURVE",
"141 1180 OFFCURVE",
"124 1148 CURVE SMOOTH",
"107 1115 OFFCURVE",
"89 1082 OFFCURVE",
"70 1049 CURVE",
"123 1020 OFFCURVE",
"188 976 OFFCURVE",
"266 919 CURVE"
);
}
);
width = 822;
}
);
note = afii57381;
unicode = 066A;
},
{
glyphname = uni07EB;
lastChange = "2016-11-10 17:37:31 +0000";
layers = (
{
layerId = "21454836-FABD-4467-AECE-2162F2231E56";
paths = (
{
closed = 1;
nodes = (
"887 1663 LINE",
"887 1808 LINE",
"104 1808 LINE",
"104 1663 LINE"
);
}
);
width = 0;
}
);
note = uni07EB;
unicode = 07EB;
},
{
glyphname = uni07EC;
lastChange = "2016-11-10 17:40:12 +0000";
layers = (
{
layerId = "21454836-FABD-4467-AECE-2162F2231E56";
paths = (
{
closed = 1;
nodes = (
"199 1708 OFFCURVE",
"246 1754 OFFCURVE",
"273 1777 CURVE SMOOTH",
"300 1799 OFFCURVE",
"321 1810 OFFCURVE",
"336 1810 CURVE SMOOTH",
"369 1810 OFFCURVE",
"382 1797 OFFCURVE",
"401 1782 CURVE SMOOTH",
"506 1698 LINE",
"577 1646 OFFCURVE",
"602 1640 OFFCURVE",
"649 1640 CURVE SMOOTH",
"683 1640 OFFCURVE",
"718 1651 OFFCURVE",
"755 1674 CURVE SMOOTH",
"792 1696 OFFCURVE",
"848 1747 OFFCURVE",
"925 1828 CURVE",
"958 1860 LINE",
"854 1962 LINE",
"788 1892 OFFCURVE",
"742 1846 OFFCURVE",
"715 1824 CURVE SMOOTH",
"688 1801 OFFCURVE",
"666 1790 OFFCURVE",
"651 1790 CURVE SMOOTH",
"620 1790 OFFCURVE",
"607 1804 OFFCURVE",
"588 1819 CURVE SMOOTH",
"483 1903 LINE SMOOTH",
"422 1952 OFFCURVE",
"392 1960 OFFCURVE",
"340 1960 CURVE SMOOTH",
"304 1960 OFFCURVE",
"267 1949 OFFCURVE",
"230 1926 CURVE SMOOTH",
"193 1903 OFFCURVE",
"137 1852 OFFCURVE",
"62 1773 CURVE",
"29 1741 LINE",
"133 1638 LINE"
);
}
);
width = 0;
}
);
note = uni07EC;
unicode = 07EC;
},
{
glyphname = uni07ED;
lastChange = "2016-11-10 17:37:31 +0000";
layers = (
{
layerId = "21454836-FABD-4467-AECE-2162F2231E56";
paths = (
{
closed = 1;
nodes = (
"565 1647 OFFCURVE",
"610 1692 OFFCURVE",
"610 1769 CURVE SMOOTH",
"610 1849 OFFCURVE",
"565 1892 OFFCURVE",
"496 1892 CURVE SMOOTH",
"432 1892 OFFCURVE",
"381 1856 OFFCURVE",
"381 1769 CURVE SMOOTH",
"381 1693 OFFCURVE",
"423 1647 OFFCURVE",
"496 1647 CURVE SMOOTH"
);
}
);
width = 0;
}
);
note = uni07ED;
unicode = 07ED;
},
{
glyphname = uni07EE;
lastChange = "2016-11-10 17:37:31 +0000";
layers = (
{
layerId = "21454836-FABD-4467-AECE-2162F2231E56";
paths = (
{
closed = 1;
nodes = (
"272 1638 LINE",
"346 1707 OFFCURVE",
"419 1807 OFFCURVE",
"492 1937 CURVE",
"585 1788 OFFCURVE",
"660 1688 OFFCURVE",
"715 1638 CURVE",
"842 1638 LINE",
"842 1661 LINE",
"707 1878 OFFCURVE",
"621 2033 OFFCURVE",
"586 2128 CURVE",
"401 2128 LINE",
"346 1997 OFFCURVE",
"239 1796 OFFCURVE",
"150 1661 CURVE",
"150 1638 LINE"
);
}
);
width = 0;
}
);
note = uni07EE;
unicode = 07EE;
},
{
glyphname = uni07EF;
lastChange = "2016-11-10 17:40:12 +0000";
layers = (
{
layerId = "21454836-FABD-4467-AECE-2162F2231E56";
paths = (
{
closed = 1;
nodes = (
"887 1651 LINE",
"936 1769 LINE",
"614 2169 LINE",
"506 2077 LINE",
"603 1956 OFFCURVE",
"663 1882 OFFCURVE",
"685 1857 CURVE SMOOTH",
"707 1832 OFFCURVE",
"725 1811 OFFCURVE",
"739 1796 CURVE",
"104 1796 LINE",
"104 1651 LINE"
);
}
);
width = 0;
}
);
note = uni07EF;
unicode = 07EF;
},
{
glyphname = uni07F0;
lastChange = "2016-11-10 17:40:12 +0000";
layers = (
{
layerId = "21454836-FABD-4467-AECE-2162F2231E56";
paths = (
{
closed = 1;
nodes = (
"961 1741 LINE",
"886 1816 LINE SMOOTH",
"771 1932 OFFCURVE",
"714 1960 OFFCURVE",
"649 1960 CURVE SMOOTH",
"596 1960 OFFCURVE",
"567 1952 OFFCURVE",
"506 1903 CURVE SMOOTH",
"401 1819 LINE SMOOTH",
"382 1804 OFFCURVE",
"369 1790 OFFCURVE",
"338 1790 CURVE SMOOTH",
"322 1790 OFFCURVE",
"301 1801 OFFCURVE",
"274 1824 CURVE SMOOTH",
"247 1846 OFFCURVE",
"200 1892 OFFCURVE",
"135 1962 CURVE",
"31 1860 LINE",
"64 1828 LINE",
"138 1750 OFFCURVE",
"194 1699 OFFCURVE",
"232 1676 CURVE SMOOTH",
"269 1652 OFFCURVE",
"305 1640 OFFCURVE",
"340 1640 CURVE SMOOTH",
"389 1640 OFFCURVE",
"415 1647 OFFCURVE",
"483 1698 CURVE SMOOTH",
"564 1763 OFFCURVE",
"609 1798 OFFCURVE",
"618 1803 CURVE SMOOTH",
"627 1808 OFFCURVE",
"638 1810 OFFCURVE",
"653 1810 CURVE SMOOTH",
"669 1810 OFFCURVE",
"691 1799 OFFCURVE",
"718 1777 CURVE SMOOTH",
"745 1754 OFFCURVE",
"791 1708 OFFCURVE",
"856 1638 CURVE"
);
}
);
width = 0;
}
);
note = uni07F0;
unicode = 07F0;
},
{
glyphname = uni07F1;
lastChange = "2016-11-10 17:37:31 +0000";
layers = (
{
layerId = "21454836-FABD-4467-AECE-2162F2231E56";
paths = (
{
closed = 1;
nodes = (
"887 1651 LINE",
"887 1796 LINE",
"252 1796 LINE",
"279 1825 OFFCURVE",
"303 1851 OFFCURVE",
"322 1874 CURVE SMOOTH",
"341 1897 OFFCURVE",
"396 1964 OFFCURVE",
"485 2077 CURVE",
"377 2169 LINE",
"55 1769 LINE",
"104 1651 LINE"
);
}
);
width = 0;
}
);
note = uni07F1;
unicode = 07F1;
},
{
glyphname = uni07F2;
lastChange = "2016-11-10 17:37:31 +0000";
layers = (
{
layerId = "21454836-FABD-4467-AECE-2162F2231E56";
paths = (
{
closed = 1;
nodes = (
"567 -377 OFFCURVE",
"610 -333 OFFCURVE",
"610 -254 CURVE SMOOTH",
"610 -174 OFFCURVE",
"565 -131 OFFCURVE",
"496 -131 CURVE SMOOTH",
"432 -131 OFFCURVE",
"381 -167 OFFCURVE",
"381 -254 CURVE SMOOTH",
"381 -341 OFFCURVE",
"432 -377 OFFCURVE",
"496 -377 CURVE SMOOTH"
);
}
);
width = 0;
}
);
note = uni07F2;
unicode = 07F2;
},
{
glyphname = uni07F3;
lastChange = "2016-11-10 17:37:31 +0000";
layers = (
{
layerId = "21454836-FABD-4467-AECE-2162F2231E56";
paths = (
{
closed = 1;
nodes = (
"817 1647 OFFCURVE",
"862 1692 OFFCURVE",
"862 1769 CURVE SMOOTH",
"862 1849 OFFCURVE",
"817 1892 OFFCURVE",
"748 1892 CURVE SMOOTH",
"684 1892 OFFCURVE",
"633 1856 OFFCURVE",
"633 1769 CURVE SMOOTH",
"633 1693 OFFCURVE",
"675 1647 OFFCURVE",
"748 1647 CURVE SMOOTH"
);
},
{
closed = 1;
nodes = (
"311 1647 OFFCURVE",
"356 1692 OFFCURVE",
"356 1769 CURVE SMOOTH",
"356 1849 OFFCURVE",
"311 1892 OFFCURVE",
"242 1892 CURVE SMOOTH",
"178 1892 OFFCURVE",
"127 1856 OFFCURVE",
"127 1769 CURVE SMOOTH",
"127 1693 OFFCURVE",
"169 1647 OFFCURVE",
"242 1647 CURVE SMOOTH"
);
}
);
width = 0;
}
);
note = uni07F3;
unicode = 07F3;
},
{
glyphname = g75;
lastChange = "2016-11-10 17:40:12 +0000";
layers = (
{
layerId = "21454836-FABD-4467-AECE-2162F2231E56";
paths = (
{
closed = 1;
nodes = (
"612 0 LINE",
"612 160 LINE",
"362 160 LINE",
"362 1462 LINE",
"180 1462 LINE",
"180 0 LINE"
);
}
);
width = 543;
}
);
note = g75;
},
{
glyphname = g76;
lastChange = "2016-11-10 17:40:12 +0000";
layers = (
{
layerId = "21454836-FABD-4467-AECE-2162F2231E56";
paths = (
{
closed = 1;
nodes = (
"113 0 LINE SMOOTH",
"221 0 OFFCURVE",
"295 38 OFFCURVE",
"334 115 CURVE",
"405 22 OFFCURVE",
"458 0 OFFCURVE",
"543 0 CURVE SMOOTH",
"612 0 LINE",
"612 160 LINE",
"573 160 LINE SMOOTH",
"468 160 OFFCURVE",
"397 199 OFFCURVE",
"362 276 CURVE",
"362 1462 LINE",
"180 1462 LINE",
"180 160 LINE",
"-70 160 LINE",
"-70 33 LINE",
"-45 16 OFFCURVE",
"8 0 OFFCURVE",
"31 0 CURVE SMOOTH"
);
}
);
width = 543;
}
);
note = g76;
},
{
glyphname = g77;
lastChange = "2016-11-10 17:40:12 +0000";
layers = (
{
layerId = "21454836-FABD-4467-AECE-2162F2231E56";
paths = (
{
closed = 1;
nodes = (
"113 0 LINE SMOOTH",
"269 0 OFFCURVE",
"362 88 OFFCURVE",
"362 240 CURVE SMOOTH",
"362 1462 LINE",
"180 1462 LINE",
"180 160 LINE",
"-70 160 LINE",
"-70 33 LINE",
"-45 16 OFFCURVE",
"8 0 OFFCURVE",
"31 0 CURVE SMOOTH"
);
}
);
width = 543;
}
);
note = g77;
},
{
glyphname = g78;
lastChange = "2016-11-10 17:40:12 +0000";
layers = (
{
layerId = "21454836-FABD-4467-AECE-2162F2231E56";
paths = (
{
closed = 1;
nodes = (
"811 0 OFFCURVE",
"929 42 OFFCURVE",
"1026 127 CURVE",
"1119 20 OFFCURVE",
"1172 0 OFFCURVE",
"1280 0 CURVE SMOOTH",
"1421 0 LINE",
"1421 160 LINE",
"1272 160 LINE SMOOTH",
"1201 160 OFFCURVE",
"1145 178 OFFCURVE",
"1104 213 CURVE",
"1175 312 OFFCURVE",
"1210 428 OFFCURVE",
"1210 563 CURVE SMOOTH",
"1210 664 OFFCURVE",
"1188 755 OFFCURVE",
"1144 836 CURVE SMOOTH",
"1056 999 OFFCURVE",
"887 1094 OFFCURVE",
"680 1094 CURVE SMOOTH",
"580 1094 OFFCURVE",
"489 1071 OFFCURVE",
"406 1024 CURVE SMOOTH",
"240 930 OFFCURVE",
"141 753 OFFCURVE",
"141 549 CURVE SMOOTH",
"141 220 OFFCURVE",
"349 0 OFFCURVE",
"674 0 CURVE SMOOTH"
);
},
{
closed = 1;
nodes = (
"605 160 OFFCURVE",
"542 176 OFFCURVE",
"490 209 CURVE SMOOTH",
"386 273 OFFCURVE",
"328 394 OFFCURVE",
"328 539 CURVE SMOOTH",
"328 771 OFFCURVE",
"468 936 OFFCURVE",
"676 936 CURVE SMOOTH",
"891 936 OFFCURVE",
"1024 783 OFFCURVE",
"1024 551 CURVE SMOOTH",
"1024 478 OFFCURVE",
"1010 411 OFFCURVE",
"981 351 CURVE SMOOTH",
"923 230 OFFCURVE",
"813 160 OFFCURVE",
"678 160 CURVE SMOOTH"
);
}
);
width = 1352;
}
);
note = g78;
},
{
glyphname = g79;
lastChange = "2016-11-10 17:40:12 +0000";
layers = (
{
layerId = "21454836-FABD-4467-AECE-2162F2231E56";
paths = (
{
closed = 1;
nodes = (
"674 0 LINE SMOOTH",
"811 0 OFFCURVE",
"929 42 OFFCURVE",
"1026 127 CURVE",
"1119 20 OFFCURVE",
"1172 0 OFFCURVE",
"1280 0 CURVE SMOOTH",
"1421 0 LINE",
"1421 160 LINE",
"1272 160 LINE SMOOTH",
"1201 160 OFFCURVE",
"1145 178 OFFCURVE",
"1104 213 CURVE",
"1175 312 OFFCURVE",
"1210 428 OFFCURVE",
"1210 563 CURVE SMOOTH",
"1210 664 OFFCURVE",
"1188 755 OFFCURVE",
"1144 836 CURVE SMOOTH",
"1056 999 OFFCURVE",
"887 1094 OFFCURVE",
"680 1094 CURVE SMOOTH",
"580 1094 OFFCURVE",
"489 1071 OFFCURVE",
"406 1024 CURVE SMOOTH",
"240 930 OFFCURVE",
"141 753 OFFCURVE",
"141 549 CURVE SMOOTH",
"141 388 OFFCURVE",
"186 258 OFFCURVE",
"276 160 CURVE",
"-70 160 LINE",
"-70 33 LINE",
"-45 16 OFFCURVE",
"8 0 OFFCURVE",
"31 0 CURVE SMOOTH"
);
},
{
closed = 1;
nodes = (
"605 160 OFFCURVE",
"542 176 OFFCURVE",
"490 209 CURVE SMOOTH",
"386 273 OFFCURVE",
"328 394 OFFCURVE",
"328 539 CURVE SMOOTH",
"328 771 OFFCURVE",
"468 936 OFFCURVE",
"676 936 CURVE SMOOTH",
"891 936 OFFCURVE",
"1024 783 OFFCURVE",
"1024 551 CURVE SMOOTH",
"1024 478 OFFCURVE",
"1010 411 OFFCURVE",
"981 351 CURVE SMOOTH",
"923 230 OFFCURVE",
"813 160 OFFCURVE",
"678 160 CURVE SMOOTH"
);
}
);
width = 1352;
}
);
note = g79;
},
{
glyphname = g80;
lastChange = "2016-11-10 17:40:12 +0000";
layers = (
{
layerId = "21454836-FABD-4467-AECE-2162F2231E56";
paths = (
{
closed = 1;
nodes = (
"674 0 LINE SMOOTH",
"776 0 OFFCURVE",
"868 24 OFFCURVE",
"951 73 CURVE SMOOTH",
"1116 169 OFFCURVE",
"1210 348 OFFCURVE",
"1210 563 CURVE SMOOTH",
"1210 664 OFFCURVE",
"1188 755 OFFCURVE",
"1144 836 CURVE SMOOTH",
"1056 999 OFFCURVE",
"887 1094 OFFCURVE",
"680 1094 CURVE SMOOTH",
"580 1094 OFFCURVE",
"489 1071 OFFCURVE",
"406 1024 CURVE SMOOTH",
"240 930 OFFCURVE",
"141 753 OFFCURVE",
"141 549 CURVE SMOOTH",
"141 388 OFFCURVE",
"186 258 OFFCURVE",
"276 160 CURVE",
"-70 160 LINE",
"-70 33 LINE",
"-45 16 OFFCURVE",
"8 0 OFFCURVE",
"31 0 CURVE SMOOTH"
);
},
{
closed = 1;
nodes = (
"605 160 OFFCURVE",
"542 176 OFFCURVE",
"490 209 CURVE SMOOTH",
"386 273 OFFCURVE",
"328 394 OFFCURVE",
"328 539 CURVE SMOOTH",
"328 771 OFFCURVE",
"468 936 OFFCURVE",
"676 936 CURVE SMOOTH",
"891 936 OFFCURVE",
"1024 783 OFFCURVE",
"1024 551 CURVE SMOOTH",
"1024 478 OFFCURVE",
"1010 411 OFFCURVE",
"981 351 CURVE SMOOTH",
"923 230 OFFCURVE",
"813 160 OFFCURVE",
"678 160 CURVE SMOOTH"
);
}
);
width = 1352;
}
);
note = g80;
},
{
glyphname = g81;
lastChange = "2016-11-10 17:40:12 +0000";
layers = (
{
layerId = "21454836-FABD-4467-AECE-2162F2231E56";
paths = (
{
closed = 1;
nodes = (
"965 0 LINE",
"965 160 LINE",
"539 160 LINE",
"539 717 LINE",
"887 1462 LINE",
"707 1462 LINE",
"571 1169 OFFCURVE",
"496 1007 OFFCURVE",
"483 975 CURVE SMOOTH",
"469 943 OFFCURVE",
"457 912 OFFCURVE",
"446 883 CURVE",
"426 938 OFFCURVE",
"399 1003 OFFCURVE",
"365 1079 CURVE SMOOTH",
"188 1462 LINE",
"8 1462 LINE",
"356 717 LINE",
"356 0 LINE"
);
}
);
width = 895;
}
);
note = g81;
},
{
glyphname = g82;
lastChange = "2016-11-10 17:40:12 +0000";
layers = (
{
layerId = "21454836-FABD-4467-AECE-2162F2231E56";
paths = (
{
closed = 1;
nodes = (
"289 0 LINE SMOOTH",
"398 0 OFFCURVE",
"472 39 OFFCURVE",
"512 117 CURVE",
"595 24 OFFCURVE",
"655 0 OFFCURVE",
"758 0 CURVE SMOOTH",
"965 0 LINE",
"965 160 LINE",
"750 160 LINE SMOOTH",
"643 160 OFFCURVE",
"573 199 OFFCURVE",
"539 276 CURVE",
"539 717 LINE",
"887 1462 LINE",
"707 1462 LINE",
"571 1169 OFFCURVE",
"496 1007 OFFCURVE",
"483 975 CURVE SMOOTH",
"469 943 OFFCURVE",
"457 912 OFFCURVE",
"446 883 CURVE",
"426 938 OFFCURVE",
"399 1003 OFFCURVE",
"365 1079 CURVE SMOOTH",
"188 1462 LINE",
"8 1462 LINE",
"356 717 LINE",
"356 160 LINE",
"-70 160 LINE",
"-70 33 LINE",
"-45 16 OFFCURVE",
"8 0 OFFCURVE",
"31 0 CURVE SMOOTH"
);
}
);
width = 895;
}
);
note = g82;
},
{
glyphname = g83;
lastChange = "2016-11-10 17:40:12 +0000";
layers = (
{
layerId = "21454836-FABD-4467-AECE-2162F2231E56";
paths = (
{
closed = 1;
nodes = (
"289 0 LINE SMOOTH",
"444 0 OFFCURVE",
"539 87 OFFCURVE",
"539 240 CURVE SMOOTH",
"539 717 LINE",
"887 1462 LINE",
"707 1462 LINE",
"571 1169 OFFCURVE",
"496 1007 OFFCURVE",
"483 975 CURVE SMOOTH",
"469 943 OFFCURVE",
"457 912 OFFCURVE",
"446 883 CURVE",
"426 938 OFFCURVE",
"399 1003 OFFCURVE",
"365 1079 CURVE SMOOTH",
"188 1462 LINE",
"8 1462 LINE",
"356 717 LINE",
"356 160 LINE",
"-70 160 LINE",
"-70 33 LINE",
"-45 16 OFFCURVE",
"8 0 OFFCURVE",
"31 0 CURVE SMOOTH"
);
}
);
width = 895;
}
);
note = g83;
},
{
glyphname = g84;
lastChange = "2016-11-10 17:37:31 +0000";
layers = (
{
layerId = "21454836-FABD-4467-AECE-2162F2231E56";
paths = (
{
closed = 1;
nodes = (
"260 0 LINE",
"502 539 LINE SMOOTH",
"548 640 OFFCURVE",
"592 749 OFFCURVE",
"633 866 CURVE",
"664 771 OFFCURVE",
"709 661 OFFCURVE",
"766 536 CURVE SMOOTH",
"823 410 OFFCURVE",
"903 231 OFFCURVE",
"1008 0 CURVE",
"1337 0 LINE",
"1337 160 LINE",
"1130 160 LINE",
"725 1051 LINE",
"543 1051 LINE",
"63 0 LINE"
);
}
);
width = 1268;
}
);
note = g84;
},
{
glyphname = g85;
lastChange = "2016-11-10 17:40:12 +0000";
layers = (
{
layerId = "21454836-FABD-4467-AECE-2162F2231E56";
paths = (
{
closed = 1;
nodes = (
"260 0 LINE",
"502 539 LINE SMOOTH",
"548 640 OFFCURVE",
"592 749 OFFCURVE",
"633 866 CURVE",
"664 771 OFFCURVE",
"709 661 OFFCURVE",
"766 536 CURVE SMOOTH",
"823 410 OFFCURVE",
"903 231 OFFCURVE",
"1008 0 CURVE",
"1337 0 LINE",
"1337 160 LINE",
"1130 160 LINE",
"725 1051 LINE",
"543 1051 LINE",
"135 160 LINE",
"-70 160 LINE",
"-70 33 LINE",
"-45 16 OFFCURVE",
"8 0 OFFCURVE",
"31 0 CURVE SMOOTH"
);
}
);
width = 1268;
}
);
note = g85;
},
{
glyphname = g86;
lastChange = "2016-11-10 17:40:12 +0000";
layers = (
{
layerId = "21454836-FABD-4467-AECE-2162F2231E56";
paths = (
{
closed = 1;
nodes = (
"260 0 LINE",
"502 539 LINE SMOOTH",
"548 640 OFFCURVE",
"592 749 OFFCURVE",
"633 866 CURVE",
"664 771 OFFCURVE",
"709 661 OFFCURVE",
"766 536 CURVE SMOOTH",
"823 410 OFFCURVE",
"903 231 OFFCURVE",
"1008 0 CURVE",
"1204 0 LINE",
"725 1051 LINE",
"543 1051 LINE",
"135 160 LINE",
"-70 160 LINE",
"-70 33 LINE",
"-45 16 OFFCURVE",
"8 0 OFFCURVE",
"31 0 CURVE SMOOTH"
);
}
);
width = 1268;
}
);
note = g86;
},
{
glyphname = g87;
lastChange = "2016-11-10 17:40:12 +0000";
layers = (
{
layerId = "21454836-FABD-4467-AECE-2162F2231E56";
paths = (
{
closed = 1;
nodes = (
"782 0 LINE SMOOTH",
"891 0 OFFCURVE",
"965 38 OFFCURVE",
"1004 115 CURVE",
"1075 22 OFFCURVE",
"1128 0 OFFCURVE",
"1212 0 CURVE SMOOTH",
"1282 0 LINE",
"1282 160 LINE",
"1243 160 LINE SMOOTH",
"1138 160 OFFCURVE",
"1068 197 OFFCURVE",
"1034 272 CURVE",
"1034 1051 LINE",
"852 1051 LINE",
"852 160 LINE",
"362 160 LINE",
"362 1051 LINE",
"180 1051 LINE",
"180 0 LINE"
);
}
);
width = 1212;
}
);
note = g87;
},
{
glyphname = g88;
lastChange = "2016-11-10 17:40:12 +0000";
layers = (
{
layerId = "21454836-FABD-4467-AECE-2162F2231E56";
paths = (
{
closed = 1;
nodes = (
"113 0 LINE SMOOTH",
"221 0 OFFCURVE",
"295 38 OFFCURVE",
"334 115 CURVE",
"405 22 OFFCURVE",
"458 0 OFFCURVE",
"543 0 CURVE SMOOTH",
"782 0 LINE SMOOTH",
"891 0 OFFCURVE",
"965 38 OFFCURVE",
"1004 115 CURVE",
"1075 22 OFFCURVE",
"1128 0 OFFCURVE",
"1212 0 CURVE SMOOTH",
"1282 0 LINE",
"1282 160 LINE",
"1243 160 LINE SMOOTH",
"1138 160 OFFCURVE",
"1068 197 OFFCURVE",
"1034 272 CURVE",
"1034 1051 LINE",
"852 1051 LINE",
"852 160 LINE",
"573 160 LINE SMOOTH",
"468 160 OFFCURVE",
"397 199 OFFCURVE",
"362 276 CURVE",
"362 1051 LINE",
"180 1051 LINE",
"180 160 LINE",
"-70 160 LINE",
"-70 33 LINE",
"-45 16 OFFCURVE",
"8 0 OFFCURVE",
"31 0 CURVE SMOOTH"
);
}
);
width = 1212;
}
);
note = g88;
},
{
glyphname = g89;
lastChange = "2016-11-10 17:40:12 +0000";
layers = (
{
layerId = "21454836-FABD-4467-AECE-2162F2231E56";
paths = (
{
closed = 1;
nodes = (
"113 0 LINE SMOOTH",
"221 0 OFFCURVE",
"295 38 OFFCURVE",
"334 115 CURVE",
"405 22 OFFCURVE",
"458 0 OFFCURVE",
"543 0 CURVE SMOOTH",
"784 0 LINE SMOOTH",
"941 0 OFFCURVE",
"1034 88 OFFCURVE",
"1034 240 CURVE SMOOTH",
"1034 1051 LINE",
"852 1051 LINE",
"852 160 LINE",
"573 160 LINE SMOOTH",
"468 160 OFFCURVE",
"397 199 OFFCURVE",
"362 276 CURVE",
"362 1051 LINE",
"180 1051 LINE",
"180 160 LINE",
"-70 160 LINE",
"-70 33 LINE",
"-45 16 OFFCURVE",
"8 0 OFFCURVE",
"31 0 CURVE SMOOTH"
);
}
);
width = 1212;
}
);
note = g89;
},
{
glyphname = g90;
lastChange = "2016-11-10 17:40:12 +0000";
layers = (
{
layerId = "21454836-FABD-4467-AECE-2162F2231E56";
paths = (
{
closed = 1;
nodes = (
"698 0 LINE SMOOTH",
"807 0 OFFCURVE",
"881 38 OFFCURVE",
"920 115 CURVE",
"991 22 OFFCURVE",
"1044 0 OFFCURVE",
"1128 0 CURVE SMOOTH",
"1198 0 LINE",
"1198 160 LINE",
"1159 160 LINE SMOOTH",
"1054 160 OFFCURVE",
"983 199 OFFCURVE",
"948 276 CURVE",
"948 1051 LINE",
"100 1051 LINE",
"100 891 LINE",
"766 891 LINE",
"766 160 LINE",
"100 160 LINE",
"100 0 LINE"
);
}
);
width = 1128;
}
);
note = g90;
},
{
glyphname = g91;
lastChange = "2016-11-10 17:40:12 +0000";
layers = (
{
layerId = "21454836-FABD-4467-AECE-2162F2231E56";
paths = (
{
closed = 1;
nodes = (
"698 0 LINE SMOOTH",
"807 0 OFFCURVE",
"881 38 OFFCURVE",
"920 115 CURVE",
"991 22 OFFCURVE",
"1044 0 OFFCURVE",
"1128 0 CURVE SMOOTH",
"1198 0 LINE",
"1198 160 LINE",
"1159 160 LINE SMOOTH",
"1054 160 OFFCURVE",
"983 199 OFFCURVE",
"948 276 CURVE",
"948 1051 LINE",
"100 1051 LINE",
"100 891 LINE",
"766 891 LINE",
"766 160 LINE",
"-70 160 LINE",
"-70 33 LINE",
"-45 16 OFFCURVE",
"8 0 OFFCURVE",
"31 0 CURVE SMOOTH"
);
}
);
width = 1128;
}
);
note = g91;
},
{
glyphname = g92;
lastChange = "2016-11-10 17:40:12 +0000";
layers = (
{
layerId = "21454836-FABD-4467-AECE-2162F2231E56";
paths = (
{
closed = 1;
nodes = (
"698 0 LINE SMOOTH",
"855 0 OFFCURVE",
"948 88 OFFCURVE",
"948 240 CURVE SMOOTH",
"948 1051 LINE",
"100 1051 LINE",
"100 891 LINE",
"766 891 LINE",
"766 160 LINE",
"-70 160 LINE",
"-70 33 LINE",
"-45 16 OFFCURVE",
"8 0 OFFCURVE",
"31 0 CURVE SMOOTH"
);
}
);
width = 1128;
}
);
note = g92;
},
{
glyphname = g93;
lastChange = "2016-11-10 17:40:12 +0000";
layers = (
{
layerId = "21454836-FABD-4467-AECE-2162F2231E56";
paths = (
{
closed = 1;
nodes = (
"1391 0 LINE",
"1391 160 LINE",
"752 160 LINE",
"752 623 LINE",
"1028 647 OFFCURVE",
"1194 805 OFFCURVE",
"1194 1038 CURVE SMOOTH",
"1194 1303 OFFCURVE",
"993 1462 OFFCURVE",
"664 1462 CURVE SMOOTH",
"554 1462 OFFCURVE",
"458 1445 OFFCURVE",
"377 1410 CURVE SMOOTH",
"214 1341 OFFCURVE",
"127 1209 OFFCURVE",
"127 1038 CURVE SMOOTH",
"127 803 OFFCURVE",
"293 652 OFFCURVE",
"569 625 CURVE",
"569 0 LINE"
);
},
{
closed = 1;
nodes = (
"443 780 OFFCURVE",
"309 879 OFFCURVE",
"309 1040 CURVE SMOOTH",
"309 1200 OFFCURVE",
"443 1303 OFFCURVE",
"662 1303 CURVE SMOOTH",
"877 1303 OFFCURVE",
"1012 1202 OFFCURVE",
"1012 1038 CURVE SMOOTH",
"1012 885 OFFCURVE",
"877 780 OFFCURVE",
"670 780 CURVE SMOOTH"
);
}
);
width = 1321;
}
);
note = g93;
},
{
glyphname = g94;
lastChange = "2016-11-10 17:40:12 +0000";
layers = (
{
layerId = "21454836-FABD-4467-AECE-2162F2231E56";
paths = (
{
closed = 1;
nodes = (
"502 0 LINE SMOOTH",
"611 0 OFFCURVE",
"686 38 OFFCURVE",
"725 115 CURVE",
"808 23 OFFCURVE",
"869 0 OFFCURVE",
"969 0 CURVE SMOOTH",
"1391 0 LINE",
"1391 160 LINE",
"961 160 LINE SMOOTH",
"856 160 OFFCURVE",
"786 197 OFFCURVE",
"752 272 CURVE",
"752 623 LINE",
"1028 647 OFFCURVE",
"1194 805 OFFCURVE",
"1194 1038 CURVE SMOOTH",
"1194 1303 OFFCURVE",
"993 1462 OFFCURVE",
"664 1462 CURVE SMOOTH",
"554 1462 OFFCURVE",
"458 1445 OFFCURVE",
"377 1410 CURVE SMOOTH",
"214 1341 OFFCURVE",
"127 1209 OFFCURVE",
"127 1038 CURVE SMOOTH",
"127 803 OFFCURVE",
"293 652 OFFCURVE",
"569 625 CURVE",
"569 160 LINE",
"-70 160 LINE",
"-70 33 LINE",
"-45 16 OFFCURVE",
"8 0 OFFCURVE",
"31 0 CURVE SMOOTH"
);
},
{
closed = 1;
nodes = (
"443 780 OFFCURVE",
"309 879 OFFCURVE",
"309 1040 CURVE SMOOTH",
"309 1200 OFFCURVE",
"443 1303 OFFCURVE",
"662 1303 CURVE SMOOTH",
"877 1303 OFFCURVE",
"1012 1202 OFFCURVE",
"1012 1038 CURVE SMOOTH",
"1012 885 OFFCURVE",
"877 780 OFFCURVE",
"670 780 CURVE SMOOTH"
);
}
);
width = 1321;
}
);
note = g94;
},
{
glyphname = g95;
lastChange = "2016-11-10 17:40:12 +0000";
layers = (
{
layerId = "21454836-FABD-4467-AECE-2162F2231E56";
paths = (
{
closed = 1;
nodes = (
"502 0 LINE SMOOTH",
"657 0 OFFCURVE",
"752 87 OFFCURVE",
"752 240 CURVE SMOOTH",
"752 623 LINE",
"1028 647 OFFCURVE",
"1194 805 OFFCURVE",
"1194 1038 CURVE SMOOTH",
"1194 1303 OFFCURVE",
"993 1462 OFFCURVE",
"664 1462 CURVE SMOOTH",
"554 1462 OFFCURVE",
"458 1445 OFFCURVE",
"377 1410 CURVE SMOOTH",
"214 1341 OFFCURVE",
"127 1209 OFFCURVE",
"127 1038 CURVE SMOOTH",
"127 803 OFFCURVE",
"293 652 OFFCURVE",
"569 625 CURVE",
"569 160 LINE",
"-70 160 LINE",
"-70 33 LINE",
"-45 16 OFFCURVE",
"8 0 OFFCURVE",
"31 0 CURVE SMOOTH"
);
},
{
closed = 1;
nodes = (
"443 780 OFFCURVE",
"309 879 OFFCURVE",
"309 1040 CURVE SMOOTH",
"309 1200 OFFCURVE",
"443 1303 OFFCURVE",
"662 1303 CURVE SMOOTH",
"877 1303 OFFCURVE",
"1012 1202 OFFCURVE",
"1012 1038 CURVE SMOOTH",
"1012 885 OFFCURVE",
"877 780 OFFCURVE",
"670 780 CURVE SMOOTH"
);
}
);
width = 1321;
}
);
note = g95;
},
{
glyphname = g96;
lastChange = "2016-11-10 17:40:12 +0000";
layers = (
{
layerId = "21454836-FABD-4467-AECE-2162F2231E56";
paths = (
{
closed = 1;
nodes = (
"623 750 LINE",
"638 894 OFFCURVE",
"684 1174 OFFCURVE",
"725 1370 CURVE",
"592 1370 LINE",
"513 1155 OFFCURVE",
"447 921 OFFCURVE",
"416 772 CURVE",
"430 750 LINE"
);
},
{
closed = 1;
nodes = (
"1135 0 LINE",
"1135 160 LINE",
"102 160 LINE",
"102 0 LINE"
);
}
);
width = 1069;
}
);
note = g96;
},
{
glyphname = g97;
lastChange = "2016-11-10 17:40:12 +0000";
layers = (
{
layerId = "21454836-FABD-4467-AECE-2162F2231E56";
paths = (
{
closed = 1;
nodes = (
"1135 0 LINE",
"1135 160 LINE",
"-70 160 LINE",
"-70 33 LINE",
"-45 16 OFFCURVE",
"8 0 OFFCURVE",
"31 0 CURVE SMOOTH"
);
},
{
closed = 1;
nodes = (
"623 750 LINE",
"638 894 OFFCURVE",
"684 1174 OFFCURVE",
"725 1370 CURVE",
"592 1370 LINE",
"513 1155 OFFCURVE",
"447 921 OFFCURVE",
"416 772 CURVE",
"430 750 LINE"
);
}
);
width = 1069;
}
);
note = g97;
},
{
glyphname = g98;
lastChange = "2016-11-10 17:40:12 +0000";
layers = (
{
layerId = "21454836-FABD-4467-AECE-2162F2231E56";
paths = (
{
closed = 1;
nodes = (
"623 750 LINE",
"638 894 OFFCURVE",
"684 1174 OFFCURVE",
"725 1370 CURVE",
"592 1370 LINE",
"513 1155 OFFCURVE",
"447 921 OFFCURVE",
"416 772 CURVE",
"430 750 LINE"
);
},
{
closed = 1;
nodes = (
"965 0 LINE",
"965 160 LINE",
"-70 160 LINE",
"-70 33 LINE",
"-45 16 OFFCURVE",
"8 0 OFFCURVE",
"31 0 CURVE SMOOTH"
);
}
);
width = 1069;
}
);
note = g98;
},
{
glyphname = g99;
lastChange = "2016-11-10 17:40:12 +0000";
layers = (
{
layerId = "21454836-FABD-4467-AECE-2162F2231E56";
paths = (
{
closed = 1;
nodes = (
"1473 0 LINE",
"1473 160 LINE",
"1223 160 LINE",
"1223 932 LINE",
"795 932 LINE",
"795 1096 LINE SMOOTH",
"795 1328 OFFCURVE",
"666 1462 OFFCURVE",
"451 1462 CURVE SMOOTH",
"239 1462 OFFCURVE",
"94 1330 OFFCURVE",
"94 1126 CURVE SMOOTH",
"94 901 OFFCURVE",
"240 772 OFFCURVE",
"481 772 CURVE SMOOTH",
"612 772 LINE",
"612 500 LINE",
"795 500 LINE",
"795 770 LINE",
"1040 770 LINE",
"1040 0 LINE"
);
},
{
closed = 1;
nodes = (
"351 932 OFFCURVE",
"276 1005 OFFCURVE",
"276 1122 CURVE SMOOTH",
"276 1234 OFFCURVE",
"341 1303 OFFCURVE",
"444 1303 CURVE SMOOTH",
"549 1303 OFFCURVE",
"612 1234 OFFCURVE",
"612 1114 CURVE SMOOTH",
"612 932 LINE",
"494 932 LINE SMOOTH"
);
}
);
width = 1403;
}
);
note = g99;
},
{
glyphname = g100;
lastChange = "2016-11-10 17:40:12 +0000";
layers = (
{
layerId = "21454836-FABD-4467-AECE-2162F2231E56";
paths = (
{
closed = 1;
nodes = (
"973 0 LINE SMOOTH",
"1081 0 OFFCURVE",
"1155 38 OFFCURVE",
"1194 115 CURVE",
"1265 22 OFFCURVE",
"1318 0 OFFCURVE",
"1403 0 CURVE SMOOTH",
"1473 0 LINE",
"1473 160 LINE",
"1434 160 LINE SMOOTH",
"1327 160 OFFCURVE",
"1257 199 OFFCURVE",
"1223 276 CURVE",
"1223 932 LINE",
"795 932 LINE",
"795 1096 LINE SMOOTH",
"795 1328 OFFCURVE",
"666 1462 OFFCURVE",
"451 1462 CURVE SMOOTH",
"239 1462 OFFCURVE",
"94 1330 OFFCURVE",
"94 1126 CURVE SMOOTH",
"94 901 OFFCURVE",
"240 772 OFFCURVE",
"481 772 CURVE SMOOTH",
"612 772 LINE",
"612 500 LINE",
"795 500 LINE",
"795 770 LINE",
"1040 770 LINE",
"1040 160 LINE",
"-70 160 LINE",
"-70 33 LINE",
"-45 16 OFFCURVE",
"8 0 OFFCURVE",
"31 0 CURVE SMOOTH"
);
},
{
closed = 1;
nodes = (
"351 932 OFFCURVE",
"276 1005 OFFCURVE",
"276 1122 CURVE SMOOTH",
"276 1234 OFFCURVE",
"341 1303 OFFCURVE",
"444 1303 CURVE SMOOTH",
"549 1303 OFFCURVE",
"612 1234 OFFCURVE",
"612 1114 CURVE SMOOTH",
"612 932 LINE",
"494 932 LINE SMOOTH"
);
}
);
width = 1403;
}
);
note = g100;
},
{
glyphname = g101;
lastChange = "2016-11-10 17:40:12 +0000";
layers = (
{
layerId = "21454836-FABD-4467-AECE-2162F2231E56";
paths = (
{
closed = 1;
nodes = (
"973 0 LINE SMOOTH",
"1128 0 OFFCURVE",
"1223 87 OFFCURVE",
"1223 240 CURVE SMOOTH",
"1223 932 LINE",
"795 932 LINE",
"795 1096 LINE SMOOTH",
"795 1328 OFFCURVE",
"666 1462 OFFCURVE",
"451 1462 CURVE SMOOTH",
"239 1462 OFFCURVE",
"94 1330 OFFCURVE",
"94 1126 CURVE SMOOTH",
"94 901 OFFCURVE",
"240 772 OFFCURVE",
"481 772 CURVE SMOOTH",
"612 772 LINE",
"612 500 LINE",
"795 500 LINE",
"795 770 LINE",
"1040 770 LINE",
"1040 160 LINE",
"-70 160 LINE",
"-70 33 LINE",
"-45 16 OFFCURVE",
"8 0 OFFCURVE",
"31 0 CURVE SMOOTH"
);
},
{
closed = 1;
nodes = (
"351 932 OFFCURVE",
"276 1005 OFFCURVE",
"276 1122 CURVE SMOOTH",
"276 1234 OFFCURVE",
"341 1303 OFFCURVE",
"444 1303 CURVE SMOOTH",
"549 1303 OFFCURVE",
"612 1234 OFFCURVE",
"612 1114 CURVE SMOOTH",
"612 932 LINE",
"494 932 LINE SMOOTH"
);
}
);
width = 1403;
}
);
note = g101;
},
{
glyphname = g102;
lastChange = "2016-11-10 17:40:12 +0000";
layers = (
{
layerId = "21454836-FABD-4467-AECE-2162F2231E56";
paths = (
{
closed = 1;
nodes = (
"928 0 LINE",
"928 160 LINE",
"362 160 LINE",
"362 721 LINE",
"719 721 LINE",
"719 881 LINE",
"362 881 LINE",
"362 1303 LINE",
"719 1303 LINE",
"719 1462 LINE",
"180 1462 LINE",
"180 0 LINE"
);
}
);
width = 858;
}
);
note = g102;
},
{
glyphname = g103;
lastChange = "2016-11-10 17:40:12 +0000";
layers = (
{
layerId = "21454836-FABD-4467-AECE-2162F2231E56";
paths = (
{
closed = 1;
nodes = (
"113 0 LINE SMOOTH",
"222 0 OFFCURVE",
"296 39 OFFCURVE",
"336 117 CURVE",
"419 24 OFFCURVE",
"479 0 OFFCURVE",
"582 0 CURVE SMOOTH",
"928 0 LINE",
"928 160 LINE",
"573 160 LINE SMOOTH",
"468 160 OFFCURVE",
"397 199 OFFCURVE",
"362 276 CURVE",
"362 721 LINE",
"719 721 LINE",
"719 881 LINE",
"362 881 LINE",
"362 1303 LINE",
"719 1303 LINE",
"719 1462 LINE",
"180 1462 LINE",
"180 160 LINE",
"-70 160 LINE",
"-70 33 LINE",
"-45 16 OFFCURVE",
"8 0 OFFCURVE",
"31 0 CURVE SMOOTH"
);
}
);
width = 858;
}
);
note = g103;
},
{
glyphname = g104;
lastChange = "2016-11-10 17:40:12 +0000";
layers = (
{
layerId = "21454836-FABD-4467-AECE-2162F2231E56";
paths = (
{
closed = 1;
nodes = (
"113 0 LINE SMOOTH",
"269 0 OFFCURVE",
"362 88 OFFCURVE",
"362 240 CURVE SMOOTH",
"362 721 LINE",
"719 721 LINE",
"719 881 LINE",
"362 881 LINE",
"362 1303 LINE",
"719 1303 LINE",
"719 1462 LINE",
"180 1462 LINE",
"180 160 LINE",
"-70 160 LINE",
"-70 33 LINE",
"-45 16 OFFCURVE",
"8 0 OFFCURVE",
"31 0 CURVE SMOOTH"
);
}
);
width = 858;
}
);
note = g104;
},
{
glyphname = g105;
lastChange = "2016-11-10 17:40:12 +0000";
layers = (
{
layerId = "21454836-FABD-4467-AECE-2162F2231E56";
paths = (
{
closed = 1;
nodes = (
"928 0 LINE",
"928 160 LINE",
"678 160 LINE",
"678 1462 LINE",
"139 1462 LINE",
"139 1303 LINE",
"496 1303 LINE",
"496 881 LINE",
"139 881 LINE",
"139 721 LINE",
"496 721 LINE",
"496 0 LINE"
);
}
);
width = 858;
}
);
note = g105;
},
{
glyphname = g106;
lastChange = "2016-11-10 17:40:12 +0000";
layers = (
{
layerId = "21454836-FABD-4467-AECE-2162F2231E56";
paths = (
{
closed = 1;
nodes = (
"428 0 LINE SMOOTH",
"536 0 OFFCURVE",
"610 38 OFFCURVE",
"649 115 CURVE",
"717 24 OFFCURVE",
"771 0 OFFCURVE",
"858 0 CURVE SMOOTH",
"928 0 LINE",
"928 160 LINE",
"889 160 LINE SMOOTH",
"784 160 OFFCURVE",
"713 199 OFFCURVE",
"678 276 CURVE",
"678 1462 LINE",
"139 1462 LINE",
"139 1303 LINE",
"496 1303 LINE",
"496 881 LINE",
"139 881 LINE",
"139 721 LINE",
"496 721 LINE",
"496 160 LINE",
"-70 160 LINE",
"-70 33 LINE",
"-45 16 OFFCURVE",
"8 0 OFFCURVE",
"31 0 CURVE SMOOTH"
);
}
);
width = 858;
}
);
note = g106;
},
{
glyphname = g107;
lastChange = "2016-11-10 17:40:12 +0000";
layers = (
{
layerId = "21454836-FABD-4467-AECE-2162F2231E56";
paths = (
{
closed = 1;
nodes = (
"428 0 LINE SMOOTH",
"583 0 OFFCURVE",
"678 87 OFFCURVE",
"678 240 CURVE SMOOTH",
"678 1462 LINE",
"139 1462 LINE",
"139 1303 LINE",
"496 1303 LINE",
"496 881 LINE",
"139 881 LINE",
"139 721 LINE",
"496 721 LINE",
"496 160 LINE",
"-70 160 LINE",
"-70 33 LINE",
"-45 16 OFFCURVE",
"8 0 OFFCURVE",
"31 0 CURVE SMOOTH"
);
}
);
width = 858;
}
);
note = g107;
},
{
glyphname = g108;
lastChange = "2016-11-10 17:40:12 +0000";
layers = (
{
layerId = "21454836-FABD-4467-AECE-2162F2231E56";
paths = (
{
closed = 1;
nodes = (
"553 0 LINE SMOOTH",
"687 0 OFFCURVE",
"795 39 OFFCURVE",
"877 117 CURVE",
"950 21 OFFCURVE",
"1001 0 OFFCURVE",
"1085 0 CURVE SMOOTH",
"1225 0 LINE",
"1225 160 LINE",
"1116 160 LINE SMOOTH",
"1043 160 OFFCURVE",
"988 177 OFFCURVE",
"950 211 CURVE",
"990 280 OFFCURVE",
"1010 356 OFFCURVE",
"1010 440 CURVE SMOOTH",
"1010 724 OFFCURVE",
"850 883 OFFCURVE",
"547 883 CURVE SMOOTH",
"362 883 LINE",
"362 1462 LINE",
"180 1462 LINE",
"180 0 LINE"
);
},
{
closed = 1;
nodes = (
"362 723 LINE",
"545 723 LINE SMOOTH",
"725 723 OFFCURVE",
"823 616 OFFCURVE",
"823 440 CURVE SMOOTH",
"823 265 OFFCURVE",
"726 160 OFFCURVE",
"559 160 CURVE SMOOTH",
"362 160 LINE"
);
}
);
width = 1155;
}
);
note = g108;
},
{
glyphname = g109;
lastChange = "2016-11-10 17:40:12 +0000";
layers = (
{
layerId = "21454836-FABD-4467-AECE-2162F2231E56";
paths = (
{
closed = 1;
nodes = (
"553 0 LINE SMOOTH",
"686 0 OFFCURVE",
"794 39 OFFCURVE",
"877 117 CURVE",
"969 20 OFFCURVE",
"1025 0 OFFCURVE",
"1124 0 CURVE SMOOTH",
"1225 0 LINE",
"1225 160 LINE",
"1116 160 LINE SMOOTH",
"1043 160 OFFCURVE",
"988 177 OFFCURVE",
"950 211 CURVE",
"990 280 OFFCURVE",
"1010 356 OFFCURVE",
"1010 440 CURVE SMOOTH",
"1010 724 OFFCURVE",
"850 883 OFFCURVE",
"547 883 CURVE SMOOTH",
"362 883 LINE",
"362 1462 LINE",
"180 1462 LINE",
"180 160 LINE",
"-70 160 LINE",
"-70 33 LINE",
"-45 16 OFFCURVE",
"8 0 OFFCURVE",
"31 0 CURVE SMOOTH"
);
},
{
closed = 1;
nodes = (
"362 723 LINE",
"545 723 LINE SMOOTH",
"725 723 OFFCURVE",
"823 616 OFFCURVE",
"823 440 CURVE SMOOTH",
"823 265 OFFCURVE",
"726 160 OFFCURVE",
"559 160 CURVE SMOOTH",
"362 160 LINE"
);
}
);
width = 1155;
}
);
note = g109;
},
{
glyphname = g110;
lastChange = "2016-11-10 17:40:12 +0000";
layers = (
{
layerId = "21454836-FABD-4467-AECE-2162F2231E56";
paths = (
{
closed = 1;
nodes = (
"553 0 LINE SMOOTH",
"646 0 OFFCURVE",
"726 19 OFFCURVE",
"795 57 CURVE SMOOTH",
"932 133 OFFCURVE",
"1010 276 OFFCURVE",
"1010 440 CURVE SMOOTH",
"1010 724 OFFCURVE",
"850 883 OFFCURVE",
"547 883 CURVE SMOOTH",
"362 883 LINE",
"362 1462 LINE",
"180 1462 LINE",
"180 160 LINE",
"-70 160 LINE",
"-70 33 LINE",
"-45 16 OFFCURVE",
"8 0 OFFCURVE",
"31 0 CURVE SMOOTH"
);
},
{
closed = 1;
nodes = (
"362 723 LINE",
"545 723 LINE SMOOTH",
"725 723 OFFCURVE",
"823 616 OFFCURVE",
"823 440 CURVE SMOOTH",
"823 265 OFFCURVE",
"726 160 OFFCURVE",
"559 160 CURVE SMOOTH",
"362 160 LINE"
);
}
);
width = 1155;
}
);
note = g110;
},
{
glyphname = g111;
lastChange = "2016-11-10 17:40:12 +0000";
layers = (
{
layerId = "21454836-FABD-4467-AECE-2162F2231E56";
paths = (
{
closed = 1;
nodes = (
"1067 0 LINE",
"1067 160 LINE",
"774 160 LINE",
"774 254 LINE SMOOTH",
"774 673 OFFCURVE",
"616 1022 OFFCURVE",
"299 1303 CURVE",
"895 1303 LINE",
"895 1462 LINE",
"80 1462 LINE",
"80 1303 LINE",
"224 1173 OFFCURVE",
"331 1058 OFFCURVE",
"400 959 CURVE SMOOTH",
"538 759 OFFCURVE",
"592 559 OFFCURVE",
"592 254 CURVE SMOOTH",
"592 0 LINE"
);
}
);
width = 997;
}
);
note = g111;
},
{
glyphname = g112;
lastChange = "2016-11-10 17:40:12 +0000";
layers = (
{
layerId = "21454836-FABD-4467-AECE-2162F2231E56";
paths = (
{
closed = 1;
nodes = (
"524 0 LINE SMOOTH",
"633 0 OFFCURVE",
"707 38 OFFCURVE",
"745 115 CURVE",
"813 24 OFFCURVE",
"867 0 OFFCURVE",
"954 0 CURVE SMOOTH",
"1067 0 LINE",
"1067 160 LINE",
"985 160 LINE SMOOTH",
"880 160 OFFCURVE",
"809 199 OFFCURVE",
"774 276 CURVE",
"767 685 OFFCURVE",
"609 1028 OFFCURVE",
"299 1303 CURVE",
"895 1303 LINE",
"895 1462 LINE",
"80 1462 LINE",
"80 1303 LINE",
"224 1173 OFFCURVE",
"331 1058 OFFCURVE",
"400 959 CURVE SMOOTH",
"538 759 OFFCURVE",
"592 559 OFFCURVE",
"592 254 CURVE SMOOTH",
"592 160 LINE",
"-70 160 LINE",
"-70 33 LINE",
"-45 16 OFFCURVE",
"8 0 OFFCURVE",
"31 0 CURVE SMOOTH"
);
}
);
width = 997;
}
);
note = g112;
},
{
glyphname = g113;
lastChange = "2016-11-10 17:40:12 +0000";
layers = (
{
layerId = "21454836-FABD-4467-AECE-2162F2231E56";
paths = (
{
closed = 1;
nodes = (
"524 0 LINE SMOOTH",
"681 0 OFFCURVE",
"774 88 OFFCURVE",
"774 240 CURVE SMOOTH",
"774 254 LINE SMOOTH",
"774 673 OFFCURVE",
"616 1022 OFFCURVE",
"299 1303 CURVE",
"895 1303 LINE",
"895 1462 LINE",
"80 1462 LINE",
"80 1303 LINE",
"224 1173 OFFCURVE",
"331 1058 OFFCURVE",
"400 959 CURVE SMOOTH",
"538 759 OFFCURVE",
"592 559 OFFCURVE",
"592 254 CURVE SMOOTH",
"592 160 LINE",
"-70 160 LINE",
"-70 33 LINE",
"-45 16 OFFCURVE",
"8 0 OFFCURVE",
"31 0 CURVE SMOOTH"
);
}
);
width = 997;
}
);
note = g113;
},
{
glyphname = g114;
lastChange = "2016-11-10 17:37:31 +0000";
layers = (
{
layerId = "21454836-FABD-4467-AECE-2162F2231E56";
paths = (
{
closed = 1;
nodes = (
"842 0 LINE",
"842 160 LINE",
"592 160 LINE",
"592 1462 LINE",
"367 1462 LINE",
"72 942 LINE",
"215 864 LINE",
"304 1021 OFFCURVE",
"354 1111 OFFCURVE",
"366 1136 CURVE SMOOTH",
"390 1184 OFFCURVE",
"406 1218 OFFCURVE",
"414 1239 CURVE",
"411 1167 OFFCURVE",
"410 1093 OFFCURVE",
"410 1016 CURVE SMOOTH",
"410 0 LINE"
);
}
);
width = 772;
}
);
note = g114;
},
{
glyphname = g115;
lastChange = "2016-11-10 17:40:12 +0000";
layers = (
{
layerId = "21454836-FABD-4467-AECE-2162F2231E56";
paths = (
{
closed = 1;
nodes = (
"342 0 LINE SMOOTH",
"450 0 OFFCURVE",
"524 38 OFFCURVE",
"563 115 CURVE",
"631 24 OFFCURVE",
"685 0 OFFCURVE",
"772 0 CURVE SMOOTH",
"842 0 LINE",
"842 160 LINE",
"803 160 LINE SMOOTH",
"698 160 OFFCURVE",
"627 199 OFFCURVE",
"592 276 CURVE",
"592 1462 LINE",
"367 1462 LINE",
"72 942 LINE",
"215 864 LINE",
"304 1021 OFFCURVE",
"354 1111 OFFCURVE",
"366 1136 CURVE SMOOTH",
"390 1184 OFFCURVE",
"406 1218 OFFCURVE",
"414 1239 CURVE",
"411 1167 OFFCURVE",
"410 1093 OFFCURVE",
"410 1016 CURVE SMOOTH",
"410 160 LINE",
"-70 160 LINE",
"-70 33 LINE",
"-45 16 OFFCURVE",
"8 0 OFFCURVE",
"31 0 CURVE SMOOTH"
);
}
);
width = 772;
}
);
note = g115;
},
{
glyphname = g116;
lastChange = "2016-11-10 17:40:12 +0000";
layers = (
{
layerId = "21454836-FABD-4467-AECE-2162F2231E56";
paths = (
{
closed = 1;
nodes = (
"342 0 LINE SMOOTH",
"497 0 OFFCURVE",
"592 87 OFFCURVE",
"592 240 CURVE SMOOTH",
"592 1462 LINE",
"367 1462 LINE",
"72 942 LINE",
"215 864 LINE",
"304 1021 OFFCURVE",
"354 1111 OFFCURVE",
"366 1136 CURVE SMOOTH",
"390 1184 OFFCURVE",
"406 1218 OFFCURVE",
"414 1239 CURVE",
"411 1167 OFFCURVE",
"410 1093 OFFCURVE",
"410 1016 CURVE SMOOTH",
"410 160 LINE",
"-70 160 LINE",
"-70 33 LINE",
"-45 16 OFFCURVE",
"8 0 OFFCURVE",
"31 0 CURVE SMOOTH"
);
}
);
width = 772;
}
);
note = g116;
},
{
glyphname = g117;
lastChange = "2016-11-10 17:40:12 +0000";
layers = (
{
layerId = "21454836-FABD-4467-AECE-2162F2231E56";
paths = (
{
closed = 1;
nodes = (
"1192 0 LINE SMOOTH",
"1291 0 OFFCURVE",
"1372 35 OFFCURVE",
"1413 115 CURVE",
"1442 76 OFFCURVE",
"1469 48 OFFCURVE",
"1501 29 CURVE SMOOTH",
"1533 10 OFFCURVE",
"1570 0 OFFCURVE",
"1622 0 CURVE SMOOTH",
"1735 0 LINE",
"1735 160 LINE",
"1653 160 LINE SMOOTH",
"1548 160 OFFCURVE",
"1477 199 OFFCURVE",
"1442 276 CURVE",
"1442 608 LINE SMOOTH",
"1442 764 OFFCURVE",
"1406 878 OFFCURVE",
"1342 954 CURVE SMOOTH",
"1277 1029 OFFCURVE",
"1182 1065 OFFCURVE",
"1065 1065 CURVE SMOOTH",
"982 1065 OFFCURVE",
"914 1041 OFFCURVE",
"860 1000 CURVE SMOOTH",
"806 959 OFFCURVE",
"766 900 OFFCURVE",
"745 831 CURVE",
"706 902 OFFCURVE",
"619 952 OFFCURVE",
"506 952 CURVE SMOOTH",
"301 952 OFFCURVE",
"180 805 OFFCURVE",
"180 489 CURVE SMOOTH",
"180 0 LINE"
);
},
{
closed = 1;
nodes = (
"362 502 LINE SMOOTH",
"362 585 OFFCURVE",
"369 658 OFFCURVE",
"392 710 CURVE SMOOTH",
"415 762 OFFCURVE",
"455 793 OFFCURVE",
"520 793 CURVE SMOOTH",
"580 793 OFFCURVE",
"620 766 OFFCURVE",
"645 718 CURVE SMOOTH",
"669 670 OFFCURVE",
"678 601 OFFCURVE",
"678 516 CURVE SMOOTH",
"678 160 LINE",
"362 160 LINE"
);
},
{
closed = 1;
nodes = (
"860 616 LINE SMOOTH",
"860 704 OFFCURVE",
"876 775 OFFCURVE",
"909 826 CURVE SMOOTH",
"942 877 OFFCURVE",
"994 905 OFFCURVE",
"1063 905 CURVE SMOOTH",
"1202 905 OFFCURVE",
"1260 803 OFFCURVE",
"1260 631 CURVE SMOOTH",
"1260 160 LINE",
"860 160 LINE"
);
}
);
width = 1622;
}
);
note = g117;
},
{
glyphname = g118;
lastChange = "2016-11-10 17:40:12 +0000";
layers = (
{
layerId = "21454836-FABD-4467-AECE-2162F2231E56";
paths = (
{
closed = 1;
nodes = (
"1192 0 LINE SMOOTH",
"1291 0 OFFCURVE",
"1372 35 OFFCURVE",
"1413 115 CURVE",
"1442 76 OFFCURVE",
"1469 48 OFFCURVE",
"1501 29 CURVE SMOOTH",
"1533 10 OFFCURVE",
"1570 0 OFFCURVE",
"1622 0 CURVE SMOOTH",
"1735 0 LINE",
"1735 160 LINE",
"1653 160 LINE SMOOTH",
"1548 160 OFFCURVE",
"1477 199 OFFCURVE",
"1442 276 CURVE",
"1442 608 LINE SMOOTH",
"1442 764 OFFCURVE",
"1406 878 OFFCURVE",
"1342 954 CURVE SMOOTH",
"1277 1029 OFFCURVE",
"1182 1065 OFFCURVE",
"1065 1065 CURVE SMOOTH",
"982 1065 OFFCURVE",
"914 1041 OFFCURVE",
"860 1000 CURVE SMOOTH",
"806 959 OFFCURVE",
"766 900 OFFCURVE",
"745 831 CURVE",
"706 902 OFFCURVE",
"619 952 OFFCURVE",
"506 952 CURVE SMOOTH",
"301 952 OFFCURVE",
"180 805 OFFCURVE",
"180 489 CURVE SMOOTH",
"180 160 LINE",
"-70 160 LINE",
"-70 33 LINE",
"-58 25 OFFCURVE",
"-40 17 OFFCURVE",
"-20 11 CURVE SMOOTH",
"-1 5 OFFCURVE",
"19 0 OFFCURVE",
"31 0 CURVE SMOOTH"
);
},
{
closed = 1;
nodes = (
"362 502 LINE SMOOTH",
"362 585 OFFCURVE",
"369 658 OFFCURVE",
"392 710 CURVE SMOOTH",
"415 762 OFFCURVE",
"455 793 OFFCURVE",
"520 793 CURVE SMOOTH",
"580 793 OFFCURVE",
"620 766 OFFCURVE",
"645 718 CURVE SMOOTH",
"669 670 OFFCURVE",
"678 601 OFFCURVE",
"678 516 CURVE SMOOTH",
"678 160 LINE",
"362 160 LINE"
);
},
{
closed = 1;
nodes = (
"860 616 LINE SMOOTH",
"860 704 OFFCURVE",
"876 775 OFFCURVE",
"909 826 CURVE SMOOTH",
"942 877 OFFCURVE",
"994 905 OFFCURVE",
"1063 905 CURVE SMOOTH",
"1202 905 OFFCURVE",
"1260 803 OFFCURVE",
"1260 631 CURVE SMOOTH",
"1260 160 LINE",
"860 160 LINE"
);
}
);
width = 1622;
}
);
note = g118;
},
{
glyphname = g119;
lastChange = "2016-11-10 17:40:12 +0000";
layers = (
{
layerId = "21454836-FABD-4467-AECE-2162F2231E56";
paths = (
{
closed = 1;
nodes = (
"1192 0 LINE SMOOTH",
"1263 0 OFFCURVE",
"1325 18 OFFCURVE",
"1370 58 CURVE SMOOTH",
"1415 97 OFFCURVE",
"1442 157 OFFCURVE",
"1442 240 CURVE SMOOTH",
"1442 608 LINE SMOOTH",
"1442 764 OFFCURVE",
"1406 878 OFFCURVE",
"1342 954 CURVE SMOOTH",
"1277 1029 OFFCURVE",
"1182 1065 OFFCURVE",
"1065 1065 CURVE SMOOTH",
"982 1065 OFFCURVE",
"914 1041 OFFCURVE",
"860 1000 CURVE SMOOTH",
"806 959 OFFCURVE",
"766 900 OFFCURVE",
"745 831 CURVE",
"706 902 OFFCURVE",
"619 952 OFFCURVE",
"506 952 CURVE SMOOTH",
"301 952 OFFCURVE",
"180 805 OFFCURVE",
"180 489 CURVE SMOOTH",
"180 160 LINE",
"-70 160 LINE",
"-70 33 LINE",
"-58 25 OFFCURVE",
"-40 17 OFFCURVE",
"-20 11 CURVE SMOOTH",
"-1 5 OFFCURVE",
"19 0 OFFCURVE",
"31 0 CURVE SMOOTH"
);
},
{
closed = 1;
nodes = (
"362 502 LINE SMOOTH",
"362 585 OFFCURVE",
"369 658 OFFCURVE",
"392 710 CURVE SMOOTH",
"415 762 OFFCURVE",
"455 793 OFFCURVE",
"520 793 CURVE SMOOTH",
"580 793 OFFCURVE",
"620 766 OFFCURVE",
"645 718 CURVE SMOOTH",
"669 670 OFFCURVE",
"678 601 OFFCURVE",
"678 516 CURVE SMOOTH",
"678 160 LINE",
"362 160 LINE"
);
},
{
closed = 1;
nodes = (
"860 616 LINE SMOOTH",
"860 704 OFFCURVE",
"876 775 OFFCURVE",
"909 826 CURVE SMOOTH",
"942 877 OFFCURVE",
"994 905 OFFCURVE",
"1063 905 CURVE SMOOTH",
"1202 905 OFFCURVE",
"1260 803 OFFCURVE",
"1260 631 CURVE SMOOTH",
"1260 160 LINE",
"860 160 LINE"
);
}
);
width = 1622;
}
);
note = g119;
},
{
glyphname = g120;
lastChange = "2016-11-10 17:40:12 +0000";
layers = (
{
layerId = "21454836-FABD-4467-AECE-2162F2231E56";
paths = (
{
closed = 1;
nodes = (
"870 0 LINE",
"870 160 LINE",
"492 160 LINE",
"492 891 LINE",
"721 891 LINE",
"721 1051 LINE",
"492 1051 LINE",
"492 1462 LINE",
"309 1462 LINE",
"309 1051 LINE",
"80 1051 LINE",
"80 891 LINE",
"309 891 LINE",
"309 0 LINE"
);
}
);
width = 801;
}
);
note = g120;
},
{
glyphname = g121;
lastChange = "2016-11-10 17:40:12 +0000";
layers = (
{
layerId = "21454836-FABD-4467-AECE-2162F2231E56";
paths = (
{
closed = 1;
nodes = (
"242 0 LINE SMOOTH",
"350 0 OFFCURVE",
"424 38 OFFCURVE",
"463 115 CURVE",
"534 22 OFFCURVE",
"587 0 OFFCURVE",
"672 0 CURVE SMOOTH",
"870 0 LINE",
"870 160 LINE",
"702 160 LINE SMOOTH",
"597 160 OFFCURVE",
"527 199 OFFCURVE",
"492 276 CURVE",
"492 891 LINE",
"721 891 LINE",
"721 1051 LINE",
"492 1051 LINE",
"492 1462 LINE",
"309 1462 LINE",
"309 1051 LINE",
"80 1051 LINE",
"80 891 LINE",
"309 891 LINE",
"309 160 LINE",
"-70 160 LINE",
"-70 33 LINE",
"-45 16 OFFCURVE",
"8 0 OFFCURVE",
"31 0 CURVE SMOOTH"
);
}
);
width = 801;
}
);
note = g121;
},
{
glyphname = g122;
lastChange = "2016-11-10 17:40:12 +0000";
layers = (
{
layerId = "21454836-FABD-4467-AECE-2162F2231E56";
paths = (
{
closed = 1;
nodes = (
"242 0 LINE SMOOTH",
"397 0 OFFCURVE",
"492 87 OFFCURVE",
"492 240 CURVE SMOOTH",
"492 891 LINE",
"721 891 LINE",
"721 1051 LINE",
"492 1051 LINE",
"492 1462 LINE",
"309 1462 LINE",
"309 1051 LINE",
"80 1051 LINE",
"80 891 LINE",
"309 891 LINE",
"309 160 LINE",
"-70 160 LINE",
"-70 33 LINE",
"-45 16 OFFCURVE",
"8 0 OFFCURVE",
"31 0 CURVE SMOOTH"
);
}
);
width = 801;
}
);
note = g122;
},
{
glyphname = g123;
lastChange = "2016-11-10 17:40:12 +0000";
layers = (
{
layerId = "21454836-FABD-4467-AECE-2162F2231E56";
paths = (
{
closed = 1;
nodes = (
"772 0 LINE SMOOTH",
"880 0 OFFCURVE",
"954 38 OFFCURVE",
"993 115 CURVE",
"1061 24 OFFCURVE",
"1115 0 OFFCURVE",
"1202 0 CURVE SMOOTH",
"1401 0 LINE",
"1401 160 LINE",
"1233 160 LINE SMOOTH",
"1128 160 OFFCURVE",
"1057 199 OFFCURVE",
"1022 276 CURVE",
"1022 891 LINE",
"1251 891 LINE",
"1251 1051 LINE",
"1022 1051 LINE",
"1022 1462 LINE",
"840 1462 LINE",
"840 1051 LINE",
"492 1051 LINE",
"492 1462 LINE",
"309 1462 LINE",
"309 1051 LINE",
"80 1051 LINE",
"80 891 LINE",
"309 891 LINE",
"309 0 LINE"
);
},
{
closed = 1;
nodes = (
"492 891 LINE",
"840 891 LINE",
"840 160 LINE",
"492 160 LINE"
);
}
);
width = 1331;
}
);
note = g123;
},
{
glyphname = g124;
lastChange = "2016-11-10 17:40:12 +0000";
layers = (
{
layerId = "21454836-FABD-4467-AECE-2162F2231E56";
paths = (
{
closed = 1;
nodes = (
"242 0 LINE SMOOTH",
"350 0 OFFCURVE",
"424 38 OFFCURVE",
"463 115 CURVE",
"534 22 OFFCURVE",
"587 0 OFFCURVE",
"672 0 CURVE SMOOTH",
"772 0 LINE SMOOTH",
"880 0 OFFCURVE",
"954 38 OFFCURVE",
"993 115 CURVE",
"1061 24 OFFCURVE",
"1115 0 OFFCURVE",
"1202 0 CURVE SMOOTH",
"1401 0 LINE",
"1401 160 LINE",
"1233 160 LINE SMOOTH",
"1128 160 OFFCURVE",
"1057 199 OFFCURVE",
"1022 276 CURVE",
"1022 891 LINE",
"1251 891 LINE",
"1251 1051 LINE",
"1022 1051 LINE",
"1022 1462 LINE",
"840 1462 LINE",
"840 1051 LINE",
"492 1051 LINE",
"492 1462 LINE",
"309 1462 LINE",
"309 1051 LINE",
"80 1051 LINE",
"80 891 LINE",
"309 891 LINE",
"309 160 LINE",
"-70 160 LINE",
"-70 33 LINE",
"-45 16 OFFCURVE",
"8 0 OFFCURVE",
"31 0 CURVE SMOOTH"
);
},
{
closed = 1;
nodes = (
"589 164 OFFCURVE",
"524 203 OFFCURVE",
"492 276 CURVE",
"492 891 LINE",
"840 891 LINE",
"840 160 LINE",
"686 160 LINE"
);
}
);
width = 1331;
}
);
note = g124;
},
{
glyphname = g125;
lastChange = "2016-11-10 17:40:12 +0000";
layers = (
{
layerId = "21454836-FABD-4467-AECE-2162F2231E56";
paths = (
{
closed = 1;
nodes = (
"242 0 LINE SMOOTH",
"350 0 OFFCURVE",
"424 38 OFFCURVE",
"463 115 CURVE",
"534 22 OFFCURVE",
"587 0 OFFCURVE",
"672 0 CURVE SMOOTH",
"772 0 LINE SMOOTH",
"927 0 OFFCURVE",
"1022 87 OFFCURVE",
"1022 240 CURVE SMOOTH",
"1022 891 LINE",
"1251 891 LINE",
"1251 1051 LINE",
"1022 1051 LINE",
"1022 1462 LINE",
"840 1462 LINE",
"840 1051 LINE",
"492 1051 LINE",
"492 1462 LINE",
"309 1462 LINE",
"309 1051 LINE",
"80 1051 LINE",
"80 891 LINE",
"309 891 LINE",
"309 160 LINE",
"-70 160 LINE",
"-70 33 LINE",
"-45 16 OFFCURVE",
"8 0 OFFCURVE",
"31 0 CURVE SMOOTH"
);
},
{
closed = 1;
nodes = (
"597 160 OFFCURVE",
"527 199 OFFCURVE",
"492 276 CURVE",
"492 891 LINE",
"840 891 LINE",
"840 160 LINE",
"702 160 LINE SMOOTH"
);
}
);
width = 1331;
}
);
note = g125;
},
{
glyphname = g126;
lastChange = "2016-11-10 17:40:12 +0000";
layers = (
{
layerId = "21454836-FABD-4467-AECE-2162F2231E56";
paths = (
{
closed = 1;
nodes = (
"1020 0 LINE SMOOTH",
"1128 0 OFFCURVE",
"1202 38 OFFCURVE",
"1241 115 CURVE",
"1309 24 OFFCURVE",
"1363 0 OFFCURVE",
"1450 0 CURVE SMOOTH",
"1520 0 LINE",
"1520 160 LINE",
"1481 160 LINE SMOOTH",
"1376 160 OFFCURVE",
"1305 199 OFFCURVE",
"1270 276 CURVE",
"1270 1051 LINE",
"510 1051 LINE SMOOTH",
"286 1051 OFFCURVE",
"180 950 OFFCURVE",
"180 739 CURVE SMOOTH",
"180 0 LINE"
);
},
{
closed = 1;
nodes = (
"362 725 LINE SMOOTH",
"362 844 OFFCURVE",
"407 891 OFFCURVE",
"496 891 CURVE SMOOTH",
"1087 891 LINE",
"1087 160 LINE",
"362 160 LINE"
);
}
);
width = 1450;
}
);
note = g126;
},
{
glyphname = g127;
lastChange = "2016-11-10 17:40:12 +0000";
layers = (
{
layerId = "21454836-FABD-4467-AECE-2162F2231E56";
paths = (
{
closed = 1;
nodes = (
"1020 0 LINE SMOOTH",
"1128 0 OFFCURVE",
"1202 38 OFFCURVE",
"1241 115 CURVE",
"1309 24 OFFCURVE",
"1363 0 OFFCURVE",
"1450 0 CURVE SMOOTH",
"1520 0 LINE",
"1520 160 LINE",
"1481 160 LINE SMOOTH",
"1376 160 OFFCURVE",
"1305 199 OFFCURVE",
"1270 276 CURVE",
"1270 1051 LINE",
"510 1051 LINE SMOOTH",
"286 1051 OFFCURVE",
"180 950 OFFCURVE",
"180 739 CURVE SMOOTH",
"180 160 LINE",
"-70 160 LINE",
"-70 33 LINE",
"-45 16 OFFCURVE",
"8 0 OFFCURVE",
"31 0 CURVE SMOOTH"
);
},
{
closed = 1;
nodes = (
"362 725 LINE SMOOTH",
"362 844 OFFCURVE",
"407 891 OFFCURVE",
"496 891 CURVE SMOOTH",
"1087 891 LINE",
"1087 160 LINE",
"362 160 LINE"
);
}
);
width = 1450;
}
);
note = g127;
},
{
glyphname = g128;
lastChange = "2016-11-10 17:40:12 +0000";
layers = (
{
layerId = "21454836-FABD-4467-AECE-2162F2231E56";
paths = (
{
closed = 1;
nodes = (
"1020 0 LINE SMOOTH",
"1175 0 OFFCURVE",
"1270 87 OFFCURVE",
"1270 240 CURVE SMOOTH",
"1270 1051 LINE",
"510 1051 LINE SMOOTH",
"286 1051 OFFCURVE",
"180 950 OFFCURVE",
"180 739 CURVE SMOOTH",
"180 160 LINE",
"-70 160 LINE",
"-70 33 LINE",
"-45 16 OFFCURVE",
"8 0 OFFCURVE",
"31 0 CURVE SMOOTH"
);
},
{
closed = 1;
nodes = (
"362 725 LINE SMOOTH",
"362 844 OFFCURVE",
"407 891 OFFCURVE",
"496 891 CURVE SMOOTH",
"1087 891 LINE",
"1087 160 LINE",
"362 160 LINE"
);
}
);
width = 1450;
}
);
note = g128;
},
{
glyphname = g129;
lastChange = "2016-11-10 17:40:12 +0000";
layers = (
{
layerId = "21454836-FABD-4467-AECE-2162F2231E56";
paths = (
{
closed = 1;
nodes = (
"1249 0 LINE",
"1249 160 LINE",
"729 160 LINE",
"1100 1372 LINE",
"1100 1462 LINE",
"80 1462 LINE",
"80 1372 LINE",
"500 0 LINE"
);
},
{
closed = 1;
nodes = (
"585 311 OFFCURVE",
"561 404 OFFCURVE",
"522 530 CURVE SMOOTH",
"291 1303 LINE",
"893 1303 LINE",
"659 526 LINE SMOOTH",
"638 458 OFFCURVE",
"617 367 OFFCURVE",
"594 252 CURVE"
);
}
);
width = 1180;
}
);
note = g129;
},
{
glyphname = g130;
lastChange = "2016-11-10 17:40:12 +0000";
layers = (
{
layerId = "21454836-FABD-4467-AECE-2162F2231E56";
paths = (
{
closed = 1;
nodes = (
"489 0 LINE SMOOTH",
"592 0 OFFCURVE",
"680 36 OFFCURVE",
"719 123 CURVE",
"806 23 OFFCURVE",
"862 0 OFFCURVE",
"969 0 CURVE SMOOTH",
"1249 0 LINE",
"1249 160 LINE",
"961 160 LINE SMOOTH",
"863 160 OFFCURVE",
"796 192 OFFCURVE",
"760 256 CURVE",
"1100 1372 LINE",
"1100 1462 LINE",
"80 1462 LINE",
"80 1372 LINE",
"451 160 LINE",
"-70 160 LINE",
"-70 33 LINE",
"-45 16 OFFCURVE",
"8 0 OFFCURVE",
"31 0 CURVE SMOOTH"
);
},
{
closed = 1;
nodes = (
"585 311 OFFCURVE",
"561 404 OFFCURVE",
"522 530 CURVE SMOOTH",
"291 1303 LINE",
"893 1303 LINE",
"659 526 LINE SMOOTH",
"638 458 OFFCURVE",
"617 367 OFFCURVE",
"594 252 CURVE"
);
}
);
width = 1180;
}
);
note = g130;
},
{
glyphname = g131;
lastChange = "2016-11-10 17:40:12 +0000";
layers = (
{
layerId = "21454836-FABD-4467-AECE-2162F2231E56";
paths = (
{
closed = 1;
nodes = (
"489 0 LINE SMOOTH",
"618 0 OFFCURVE",
"705 56 OFFCURVE",
"733 164 CURVE",
"1100 1372 LINE",
"1100 1462 LINE",
"80 1462 LINE",
"80 1372 LINE",
"451 160 LINE",
"-70 160 LINE",
"-70 33 LINE",
"-45 16 OFFCURVE",
"8 0 OFFCURVE",
"31 0 CURVE SMOOTH"
);
},
{
closed = 1;
nodes = (
"585 311 OFFCURVE",
"561 404 OFFCURVE",
"522 530 CURVE SMOOTH",
"291 1303 LINE",
"893 1303 LINE",
"659 526 LINE SMOOTH",
"638 458 OFFCURVE",
"617 367 OFFCURVE",
"594 252 CURVE"
);
}
);
width = 1180;
}
);
note = g131;
},
{
glyphname = g132;
lastChange = "2016-11-10 17:40:12 +0000";
layers = (
{
layerId = "21454836-FABD-4467-AECE-2162F2231E56";
paths = (
{
closed = 1;
nodes = (
"592 0 LINE SMOOTH",
"735 0 OFFCURVE",
"831 43 OFFCURVE",
"881 129 CURVE",
"915 90 OFFCURVE",
"943 63 OFFCURVE",
"966 47 CURVE SMOOTH",
"1011 15 OFFCURVE",
"1062 0 OFFCURVE",
"1137 0 CURVE SMOOTH",
"1571 0 LINE",
"1571 160 LINE",
"1128 160 LINE SMOOTH",
"1024 160 OFFCURVE",
"955 197 OFFCURVE",
"920 270 CURVE",
"922 311 LINE",
"922 772 LINE",
"997 772 LINE SMOOTH",
"1252 772 OFFCURVE",
"1401 906 OFFCURVE",
"1401 1126 CURVE SMOOTH",
"1401 1323 OFFCURVE",
"1270 1462 OFFCURVE",
"1079 1462 CURVE SMOOTH",
"863 1462 OFFCURVE",
"739 1327 OFFCURVE",
"739 1100 CURVE SMOOTH",
"739 932 LINE",
"510 932 LINE SMOOTH",
"286 932 OFFCURVE",
"180 830 OFFCURVE",
"180 621 CURVE SMOOTH",
"180 0 LINE"
);
},
{
closed = 1;
nodes = (
"362 606 LINE SMOOTH",
"362 725 OFFCURVE",
"407 772 OFFCURVE",
"496 772 CURVE SMOOTH",
"739 772 LINE",
"739 326 LINE SMOOTH",
"739 211 OFFCURVE",
"698 160 OFFCURVE",
"606 160 CURVE SMOOTH",
"362 160 LINE"
);
},
{
closed = 1;
nodes = (
"922 1116 LINE SMOOTH",
"922 1241 OFFCURVE",
"971 1303 OFFCURVE",
"1069 1303 CURVE SMOOTH",
"1164 1303 OFFCURVE",
"1219 1238 OFFCURVE",
"1219 1130 CURVE SMOOTH",
"1219 998 OFFCURVE",
"1147 932 OFFCURVE",
"1004 932 CURVE SMOOTH",
"922 932 LINE"
);
}
);
width = 1501;
}
);
note = g132;
},
{
glyphname = g133;
lastChange = "2016-11-10 17:40:12 +0000";
layers = (
{
layerId = "21454836-FABD-4467-AECE-2162F2231E56";
paths = (
{
closed = 1;
nodes = (
"592 0 LINE SMOOTH",
"735 0 OFFCURVE",
"831 43 OFFCURVE",
"881 129 CURVE",
"915 90 OFFCURVE",
"943 63 OFFCURVE",
"966 47 CURVE SMOOTH",
"1011 15 OFFCURVE",
"1062 0 OFFCURVE",
"1137 0 CURVE SMOOTH",
"1571 0 LINE",
"1571 160 LINE",
"1128 160 LINE SMOOTH",
"1024 160 OFFCURVE",
"955 197 OFFCURVE",
"920 270 CURVE",
"922 311 LINE",
"922 772 LINE",
"997 772 LINE SMOOTH",
"1252 772 OFFCURVE",
"1401 906 OFFCURVE",
"1401 1126 CURVE SMOOTH",
"1401 1323 OFFCURVE",
"1270 1462 OFFCURVE",
"1079 1462 CURVE SMOOTH",
"863 1462 OFFCURVE",
"739 1327 OFFCURVE",
"739 1100 CURVE SMOOTH",
"739 932 LINE",
"510 932 LINE SMOOTH",
"286 932 OFFCURVE",
"180 830 OFFCURVE",
"180 621 CURVE SMOOTH",
"180 160 LINE",
"-70 160 LINE",
"-70 33 LINE",
"-45 16 OFFCURVE",
"8 0 OFFCURVE",
"31 0 CURVE SMOOTH"
);
},
{
closed = 1;
nodes = (
"362 606 LINE SMOOTH",
"362 725 OFFCURVE",
"407 772 OFFCURVE",
"496 772 CURVE SMOOTH",
"739 772 LINE",
"739 326 LINE SMOOTH",
"739 211 OFFCURVE",
"698 160 OFFCURVE",
"606 160 CURVE SMOOTH",
"362 160 LINE"
);
},
{
closed = 1;
nodes = (
"922 1116 LINE SMOOTH",
"922 1241 OFFCURVE",
"971 1303 OFFCURVE",
"1069 1303 CURVE SMOOTH",
"1164 1303 OFFCURVE",
"1219 1238 OFFCURVE",
"1219 1130 CURVE SMOOTH",
"1219 998 OFFCURVE",
"1147 932 OFFCURVE",
"1004 932 CURVE SMOOTH",
"922 932 LINE"
);
}
);
width = 1501;
}
);
note = g133;
},
{
glyphname = g134;
lastChange = "2016-11-10 17:40:12 +0000";
layers = (
{
layerId = "21454836-FABD-4467-AECE-2162F2231E56";
paths = (
{
closed = 1;
nodes = (
"592 0 LINE SMOOTH",
"816 0 OFFCURVE",
"922 100 OFFCURVE",
"922 311 CURVE SMOOTH",
"922 772 LINE",
"997 772 LINE SMOOTH",
"1252 772 OFFCURVE",
"1401 906 OFFCURVE",
"1401 1126 CURVE SMOOTH",
"1401 1323 OFFCURVE",
"1270 1462 OFFCURVE",
"1079 1462 CURVE SMOOTH",
"863 1462 OFFCURVE",
"739 1327 OFFCURVE",
"739 1100 CURVE SMOOTH",
"739 932 LINE",
"510 932 LINE SMOOTH",
"286 932 OFFCURVE",
"180 830 OFFCURVE",
"180 621 CURVE SMOOTH",
"180 160 LINE",
"-70 160 LINE",
"-70 33 LINE",
"-45 16 OFFCURVE",
"8 0 OFFCURVE",
"31 0 CURVE SMOOTH"
);
},
{
closed = 1;
nodes = (
"362 606 LINE SMOOTH",
"362 725 OFFCURVE",
"407 772 OFFCURVE",
"496 772 CURVE SMOOTH",
"739 772 LINE",
"739 309 LINE",
"735 210 OFFCURVE",
"691 160 OFFCURVE",
"606 160 CURVE SMOOTH",
"362 160 LINE"
);
},
{
closed = 1;
nodes = (
"922 1116 LINE SMOOTH",
"922 1241 OFFCURVE",
"971 1303 OFFCURVE",
"1069 1303 CURVE SMOOTH",
"1164 1303 OFFCURVE",
"1219 1238 OFFCURVE",
"1219 1130 CURVE SMOOTH",
"1219 998 OFFCURVE",
"1147 932 OFFCURVE",
"1004 932 CURVE SMOOTH",
"922 932 LINE"
);
}
);
width = 1501;
}
);
note = g134;
},
{
glyphname = g135;
lastChange = "2016-11-10 17:40:12 +0000";
layers = (
{
layerId = "21454836-FABD-4467-AECE-2162F2231E56";
paths = (
{
closed = 1;
nodes = (
"1184 0 LINE",
"1184 160 LINE",
"934 160 LINE",
"934 1462 LINE",
"752 1462 LINE",
"752 1051 LINE",
"342 1051 LINE",
"342 1317 LINE",
"160 1317 LINE",
"160 586 LINE",
"342 586 LINE",
"342 891 LINE",
"752 891 LINE",
"752 0 LINE"
);
}
);
width = 1114;
}
);
note = g135;
},
{
glyphname = g136;
lastChange = "2016-11-10 17:40:12 +0000";
layers = (
{
layerId = "21454836-FABD-4467-AECE-2162F2231E56";
paths = (
{
closed = 1;
nodes = (
"684 0 LINE SMOOTH",
"792 0 OFFCURVE",
"866 38 OFFCURVE",
"905 115 CURVE",
"973 24 OFFCURVE",
"1027 0 OFFCURVE",
"1114 0 CURVE SMOOTH",
"1184 0 LINE",
"1184 160 LINE",
"1145 160 LINE SMOOTH",
"1040 160 OFFCURVE",
"969 199 OFFCURVE",
"934 276 CURVE",
"934 1462 LINE",
"752 1462 LINE",
"752 1051 LINE",
"342 1051 LINE",
"342 1317 LINE",
"160 1317 LINE",
"160 586 LINE",
"342 586 LINE",
"342 891 LINE",
"752 891 LINE",
"752 160 LINE",
"-70 160 LINE",
"-70 33 LINE",
"-45 16 OFFCURVE",
"8 0 OFFCURVE",
"31 0 CURVE SMOOTH"
);
}
);
width = 1114;
}
);
note = g136;
},
{
glyphname = g137;
lastChange = "2016-11-10 17:40:12 +0000";
layers = (
{
layerId = "21454836-FABD-4467-AECE-2162F2231E56";
paths = (
{
closed = 1;
nodes = (
"684 0 LINE SMOOTH",
"839 0 OFFCURVE",
"934 87 OFFCURVE",
"934 240 CURVE SMOOTH",
"934 1462 LINE",
"752 1462 LINE",
"752 1051 LINE",
"342 1051 LINE",
"342 1317 LINE",
"160 1317 LINE",
"160 586 LINE",
"342 586 LINE",
"342 891 LINE",
"752 891 LINE",
"752 160 LINE",
"-70 160 LINE",
"-70 33 LINE",
"-45 16 OFFCURVE",
"8 0 OFFCURVE",
"31 0 CURVE SMOOTH"
);
}
);
width = 1114;
}
);
note = g137;
},
{
glyphname = g138;
lastChange = "2016-11-10 17:40:12 +0000";
layers = (
{
layerId = "21454836-FABD-4467-AECE-2162F2231E56";
paths = (
{
closed = 1;
nodes = (
"1253 0 LINE",
"1253 160 LINE",
"795 160 LINE",
"795 723 LINE",
"1104 723 LINE",
"1104 883 LINE",
"795 883 LINE",
"795 1098 LINE SMOOTH",
"795 1326 OFFCURVE",
"667 1462 OFFCURVE",
"455 1462 CURVE SMOOTH",
"240 1462 OFFCURVE",
"94 1319 OFFCURVE",
"94 1100 CURVE SMOOTH",
"94 865 OFFCURVE",
"252 723 OFFCURVE",
"528 723 CURVE SMOOTH",
"612 723 LINE",
"612 0 LINE"
);
},
{
closed = 1;
nodes = (
"367 883 OFFCURVE",
"276 959 OFFCURVE",
"276 1108 CURVE SMOOTH",
"276 1225 OFFCURVE",
"344 1303 OFFCURVE",
"453 1303 CURVE SMOOTH",
"560 1303 OFFCURVE",
"612 1233 OFFCURVE",
"612 1112 CURVE SMOOTH",
"612 883 LINE",
"535 883 LINE SMOOTH"
);
}
);
width = 1184;
}
);
note = g138;
},
{
glyphname = g139;
lastChange = "2016-11-10 17:40:12 +0000";
layers = (
{
layerId = "21454836-FABD-4467-AECE-2162F2231E56";
paths = (
{
closed = 1;
nodes = (
"545 0 LINE SMOOTH",
"644 0 OFFCURVE",
"727 37 OFFCURVE",
"768 117 CURVE",
"851 24 OFFCURVE",
"911 0 OFFCURVE",
"1014 0 CURVE SMOOTH",
"1253 0 LINE",
"1253 160 LINE",
"1006 160 LINE SMOOTH",
"899 160 OFFCURVE",
"829 199 OFFCURVE",
"795 276 CURVE",
"795 723 LINE",
"1104 723 LINE",
"1104 883 LINE",
"795 883 LINE",
"795 1098 LINE SMOOTH",
"795 1326 OFFCURVE",
"667 1462 OFFCURVE",
"455 1462 CURVE SMOOTH",
"240 1462 OFFCURVE",
"94 1319 OFFCURVE",
"94 1100 CURVE SMOOTH",
"94 865 OFFCURVE",
"252 723 OFFCURVE",
"528 723 CURVE SMOOTH",
"612 723 LINE",
"612 160 LINE",
"-70 160 LINE",
"-70 33 LINE",
"-45 16 OFFCURVE",
"8 0 OFFCURVE",
"31 0 CURVE SMOOTH"
);
},
{
closed = 1;
nodes = (
"367 883 OFFCURVE",
"276 959 OFFCURVE",
"276 1108 CURVE SMOOTH",
"276 1225 OFFCURVE",
"344 1303 OFFCURVE",
"453 1303 CURVE SMOOTH",
"560 1303 OFFCURVE",
"612 1233 OFFCURVE",
"612 1112 CURVE SMOOTH",
"612 883 LINE",
"535 883 LINE SMOOTH"
);
}
);
width = 1184;
}
);
note = g139;
},
{
glyphname = g140;
lastChange = "2016-11-10 17:40:12 +0000";
layers = (
{
layerId = "21454836-FABD-4467-AECE-2162F2231E56";
paths = (
{
closed = 1;
nodes = (
"545 0 LINE SMOOTH",
"700 0 OFFCURVE",
"795 87 OFFCURVE",
"795 240 CURVE SMOOTH",
"795 723 LINE",
"1104 723 LINE",
"1104 883 LINE",
"795 883 LINE",
"795 1098 LINE SMOOTH",
"795 1326 OFFCURVE",
"667 1462 OFFCURVE",
"455 1462 CURVE SMOOTH",
"240 1462 OFFCURVE",
"94 1319 OFFCURVE",
"94 1100 CURVE SMOOTH",
"94 865 OFFCURVE",
"252 723 OFFCURVE",
"528 723 CURVE SMOOTH",
"612 723 LINE",
"612 160 LINE",
"-70 160 LINE",
"-70 33 LINE",
"-45 16 OFFCURVE",
"8 0 OFFCURVE",
"31 0 CURVE SMOOTH"
);
},
{
closed = 1;
nodes = (
"367 883 OFFCURVE",
"276 959 OFFCURVE",
"276 1108 CURVE SMOOTH",
"276 1225 OFFCURVE",
"344 1303 OFFCURVE",
"453 1303 CURVE SMOOTH",
"560 1303 OFFCURVE",
"612 1233 OFFCURVE",
"612 1112 CURVE SMOOTH",
"612 883 LINE",
"535 883 LINE SMOOTH"
);
}
);
width = 1184;
}
);
note = g140;
},
{
glyphname = g141;
lastChange = "2016-11-10 17:40:12 +0000";
layers = (
{
layerId = "21454836-FABD-4467-AECE-2162F2231E56";
paths = (
{
closed = 1;
nodes = (
"1137 0 LINE",
"1137 160 LINE",
"625 160 LINE",
"625 1303 LINE",
"965 1303 LINE",
"965 1462 LINE",
"102 1462 LINE",
"102 1303 LINE",
"442 1303 LINE",
"442 0 LINE"
);
}
);
width = 1067;
}
);
note = g141;
},
{
glyphname = g142;
lastChange = "2016-11-10 17:40:12 +0000";
layers = (
{
layerId = "21454836-FABD-4467-AECE-2162F2231E56";
paths = (
{
closed = 1;
nodes = (
"375 0 LINE SMOOTH",
"474 0 OFFCURVE",
"557 37 OFFCURVE",
"598 117 CURVE",
"681 24 OFFCURVE",
"741 0 OFFCURVE",
"844 0 CURVE SMOOTH",
"1137 0 LINE",
"1137 160 LINE",
"836 160 LINE SMOOTH",
"729 160 OFFCURVE",
"659 199 OFFCURVE",
"625 276 CURVE",
"625 1303 LINE",
"965 1303 LINE",
"965 1462 LINE",
"102 1462 LINE",
"102 1303 LINE",
"442 1303 LINE",
"442 160 LINE",
"-70 160 LINE",
"-70 33 LINE",
"-45 16 OFFCURVE",
"8 0 OFFCURVE",
"31 0 CURVE SMOOTH"
);
}
);
width = 1067;
}
);
note = g142;
},
{
glyphname = g143;
lastChange = "2016-11-10 17:40:12 +0000";
layers = (
{
layerId = "21454836-FABD-4467-AECE-2162F2231E56";
paths = (
{
closed = 1;
nodes = (
"375 0 LINE SMOOTH",
"530 0 OFFCURVE",
"625 87 OFFCURVE",
"625 240 CURVE SMOOTH",
"625 1303 LINE",
"965 1303 LINE",
"965 1462 LINE",
"102 1462 LINE",
"102 1303 LINE",
"442 1303 LINE",
"442 160 LINE",
"-70 160 LINE",
"-70 33 LINE",
"-45 16 OFFCURVE",
"8 0 OFFCURVE",
"31 0 CURVE SMOOTH"
);
}
);
width = 1067;
}
);
note = g143;
},
{
glyphname = g144;
lastChange = "2016-11-10 17:40:12 +0000";
layers = (
{
layerId = "21454836-FABD-4467-AECE-2162F2231E56";
paths = (
{
closed = 1;
nodes = (
"1249 0 LINE",
"1249 160 LINE",
"1077 160 LINE",
"680 1462 LINE",
"498 1462 LINE",
"80 90 LINE",
"80 0 LINE"
);
},
{
closed = 1;
nodes = (
"455 719 OFFCURVE",
"543 1013 OFFCURVE",
"551 1043 CURVE SMOOTH",
"558 1073 OFFCURVE",
"570 1129 OFFCURVE",
"586 1210 CURVE",
"597 1146 OFFCURVE",
"620 1053 OFFCURVE",
"657 932 CURVE SMOOTH",
"889 160 LINE",
"287 160 LINE"
);
}
);
width = 1180;
}
);
note = g144;
},
{
glyphname = g145;
lastChange = "2016-11-10 17:40:12 +0000";
layers = (
{
layerId = "21454836-FABD-4467-AECE-2162F2231E56";
paths = (
{
closed = 1;
nodes = (
"1249 0 LINE",
"1249 160 LINE",
"1077 160 LINE",
"680 1462 LINE",
"498 1462 LINE",
"100 160 LINE",
"-70 160 LINE",
"-70 0 LINE"
);
},
{
closed = 1;
nodes = (
"455 719 OFFCURVE",
"543 1013 OFFCURVE",
"551 1043 CURVE SMOOTH",
"558 1073 OFFCURVE",
"570 1129 OFFCURVE",
"586 1210 CURVE",
"597 1146 OFFCURVE",
"620 1053 OFFCURVE",
"657 932 CURVE SMOOTH",
"889 160 LINE",
"287 160 LINE"
);
}
);
width = 1180;
}
);
note = g145;
},
{
glyphname = g146;
lastChange = "2016-11-10 17:40:12 +0000";
layers = (
{
layerId = "21454836-FABD-4467-AECE-2162F2231E56";
paths = (
{
closed = 1;
nodes = (
"1100 0 LINE",
"1100 90 LINE",
"680 1462 LINE",
"498 1462 LINE",
"100 160 LINE",
"-70 160 LINE",
"-70 33 LINE",
"-45 16 OFFCURVE",
"8 0 OFFCURVE",
"31 0 CURVE SMOOTH"
);
},
{
closed = 1;
nodes = (
"455 719 OFFCURVE",
"543 1013 OFFCURVE",
"551 1043 CURVE SMOOTH",
"558 1073 OFFCURVE",
"570 1129 OFFCURVE",
"586 1210 CURVE",
"597 1146 OFFCURVE",
"620 1053 OFFCURVE",
"657 932 CURVE SMOOTH",
"889 160 LINE",
"287 160 LINE"
);
}
);
width = 1180;
}
);
note = g146;
},
{
glyphname = g147;
lastChange = "2016-11-10 17:40:12 +0000";
layers = (
{
layerId = "21454836-FABD-4467-AECE-2162F2231E56";
paths = (
{
closed = 1;
nodes = (
"1178 0 LINE",
"1178 160 LINE",
"664 160 LINE",
"664 414 LINE",
"849 438 OFFCURVE",
"967 562 OFFCURVE",
"967 743 CURVE SMOOTH",
"967 923 OFFCURVE",
"860 1043 OFFCURVE",
"664 1071 CURVE",
"664 1462 LINE",
"100 1462 LINE",
"100 1303 LINE",
"481 1303 LINE",
"481 1071 LINE",
"288 1043 OFFCURVE",
"178 922 OFFCURVE",
"178 745 CURVE SMOOTH",
"178 558 OFFCURVE",
"289 443 OFFCURVE",
"481 416 CURVE",
"481 0 LINE"
);
},
{
closed = 1;
nodes = (
"438 569 OFFCURVE",
"362 634 OFFCURVE",
"362 743 CURVE SMOOTH",
"362 855 OFFCURVE",
"443 918 OFFCURVE",
"571 918 CURVE SMOOTH",
"708 918 OFFCURVE",
"782 852 OFFCURVE",
"782 743 CURVE SMOOTH",
"782 635 OFFCURVE",
"710 569 OFFCURVE",
"575 569 CURVE SMOOTH"
);
}
);
width = 1108;
}
);
note = g147;
},
{
glyphname = g148;
lastChange = "2016-11-10 17:40:12 +0000";
layers = (
{
layerId = "21454836-FABD-4467-AECE-2162F2231E56";
paths = (
{
closed = 1;
nodes = (
"414 0 LINE SMOOTH",
"513 0 OFFCURVE",
"596 37 OFFCURVE",
"637 117 CURVE",
"720 24 OFFCURVE",
"780 0 OFFCURVE",
"883 0 CURVE SMOOTH",
"1178 0 LINE",
"1178 160 LINE",
"874 160 LINE SMOOTH",
"769 160 OFFCURVE",
"699 199 OFFCURVE",
"664 276 CURVE",
"664 414 LINE",
"849 438 OFFCURVE",
"967 562 OFFCURVE",
"967 743 CURVE SMOOTH",
"967 923 OFFCURVE",
"860 1043 OFFCURVE",
"664 1071 CURVE",
"664 1462 LINE",
"100 1462 LINE",
"100 1303 LINE",
"481 1303 LINE",
"481 1071 LINE",
"288 1043 OFFCURVE",
"178 922 OFFCURVE",
"178 745 CURVE SMOOTH",
"178 558 OFFCURVE",
"289 443 OFFCURVE",
"481 416 CURVE",
"481 160 LINE",
"-70 160 LINE",
"-70 33 LINE",
"-45 16 OFFCURVE",
"8 0 OFFCURVE",
"31 0 CURVE SMOOTH"
);
},
{
closed = 1;
nodes = (
"438 569 OFFCURVE",
"362 634 OFFCURVE",
"362 743 CURVE SMOOTH",
"362 855 OFFCURVE",
"443 918 OFFCURVE",
"571 918 CURVE SMOOTH",
"708 918 OFFCURVE",
"782 852 OFFCURVE",
"782 743 CURVE SMOOTH",
"782 635 OFFCURVE",
"710 569 OFFCURVE",
"575 569 CURVE SMOOTH"
);
}
);
width = 1108;
}
);
note = g148;
},
{
glyphname = g149;
lastChange = "2016-11-10 17:40:12 +0000";
layers = (
{
layerId = "21454836-FABD-4467-AECE-2162F2231E56";
paths = (
{
closed = 1;
nodes = (
"414 0 LINE SMOOTH",
"569 0 OFFCURVE",
"664 87 OFFCURVE",
"664 240 CURVE SMOOTH",
"664 414 LINE",
"849 438 OFFCURVE",
"967 562 OFFCURVE",
"967 743 CURVE SMOOTH",
"967 923 OFFCURVE",
"860 1043 OFFCURVE",
"664 1071 CURVE",
"664 1462 LINE",
"100 1462 LINE",
"100 1303 LINE",
"481 1303 LINE",
"481 1071 LINE",
"288 1043 OFFCURVE",
"178 922 OFFCURVE",
"178 745 CURVE SMOOTH",
"178 558 OFFCURVE",
"289 443 OFFCURVE",
"481 416 CURVE",
"481 160 LINE",
"-70 160 LINE",
"-70 33 LINE",
"-45 16 OFFCURVE",
"8 0 OFFCURVE",
"31 0 CURVE SMOOTH"
);
},
{
closed = 1;
nodes = (
"438 569 OFFCURVE",
"362 634 OFFCURVE",
"362 743 CURVE SMOOTH",
"362 855 OFFCURVE",
"443 918 OFFCURVE",
"571 918 CURVE SMOOTH",
"708 918 OFFCURVE",
"782 852 OFFCURVE",
"782 743 CURVE SMOOTH",
"782 635 OFFCURVE",
"710 569 OFFCURVE",
"575 569 CURVE SMOOTH"
);
}
);
width = 1108;
}
);
note = g149;
},
{
glyphname = g150;
lastChange = "2016-11-10 17:40:12 +0000";
layers = (
{
layerId = "21454836-FABD-4467-AECE-2162F2231E56";
paths = (
{
closed = 1;
nodes = (
"1184 0 LINE",
"1184 160 LINE",
"934 160 LINE",
"934 1462 LINE",
"489 1462 LINE SMOOTH",
"265 1462 OFFCURVE",
"160 1362 OFFCURVE",
"160 1151 CURVE SMOOTH",
"160 829 LINE",
"342 829 LINE",
"342 1137 LINE SMOOTH",
"342 1254 OFFCURVE",
"387 1303 OFFCURVE",
"475 1303 CURVE SMOOTH",
"752 1303 LINE",
"752 0 LINE"
);
}
);
width = 1114;
}
);
note = g150;
},
{
glyphname = g151;
lastChange = "2016-11-10 17:40:12 +0000";
layers = (
{
layerId = "21454836-FABD-4467-AECE-2162F2231E56";
paths = (
{
closed = 1;
nodes = (
"684 0 LINE SMOOTH",
"792 0 OFFCURVE",
"866 38 OFFCURVE",
"905 115 CURVE",
"973 24 OFFCURVE",
"1027 0 OFFCURVE",
"1114 0 CURVE SMOOTH",
"1184 0 LINE",
"1184 160 LINE",
"1145 160 LINE SMOOTH",
"1040 160 OFFCURVE",
"969 199 OFFCURVE",
"934 276 CURVE",
"934 1462 LINE",
"489 1462 LINE SMOOTH",
"265 1462 OFFCURVE",
"160 1362 OFFCURVE",
"160 1151 CURVE SMOOTH",
"160 829 LINE",
"342 829 LINE",
"342 1137 LINE SMOOTH",
"342 1254 OFFCURVE",
"387 1303 OFFCURVE",
"475 1303 CURVE SMOOTH",
"752 1303 LINE",
"752 160 LINE",
"-70 160 LINE",
"-70 33 LINE",
"-45 16 OFFCURVE",
"8 0 OFFCURVE",
"31 0 CURVE SMOOTH"
);
}
);
width = 1114;
}
);
note = g151;
},
{
glyphname = g152;
lastChange = "2016-11-10 17:40:12 +0000";
layers = (
{
layerId = "21454836-FABD-4467-AECE-2162F2231E56";
paths = (
{
closed = 1;
nodes = (
"684 0 LINE SMOOTH",
"839 0 OFFCURVE",
"934 87 OFFCURVE",
"934 240 CURVE SMOOTH",
"934 1462 LINE",
"489 1462 LINE SMOOTH",
"265 1462 OFFCURVE",
"160 1362 OFFCURVE",
"160 1151 CURVE SMOOTH",
"160 829 LINE",
"342 829 LINE",
"342 1137 LINE SMOOTH",
"342 1254 OFFCURVE",
"387 1303 OFFCURVE",
"475 1303 CURVE SMOOTH",
"752 1303 LINE",
"752 160 LINE",
"-70 160 LINE",
"-70 33 LINE",
"-45 16 OFFCURVE",
"8 0 OFFCURVE",
"31 0 CURVE SMOOTH"
);
}
);
width = 1114;
}
);
note = g152;
},
{
glyphname = g153;
lastChange = "2016-11-10 17:40:12 +0000";
layers = (
{
layerId = "21454836-FABD-4467-AECE-2162F2231E56";
paths = (
{
closed = 1;
nodes = (
"1184 0 LINE",
"1184 160 LINE",
"934 160 LINE",
"934 1145 LINE",
"342 1145 LINE",
"342 1462 LINE",
"160 1462 LINE",
"160 674 LINE",
"342 674 LINE",
"342 985 LINE",
"752 985 LINE",
"752 0 LINE"
);
}
);
width = 1114;
}
);
note = g153;
},
{
glyphname = g154;
lastChange = "2016-11-10 17:40:12 +0000";
layers = (
{
layerId = "21454836-FABD-4467-AECE-2162F2231E56";
paths = (
{
closed = 1;
nodes = (
"684 0 LINE SMOOTH",
"792 0 OFFCURVE",
"866 38 OFFCURVE",
"905 115 CURVE",
"973 24 OFFCURVE",
"1027 0 OFFCURVE",
"1114 0 CURVE SMOOTH",
"1184 0 LINE",
"1184 160 LINE",
"1145 160 LINE SMOOTH",
"1040 160 OFFCURVE",
"969 199 OFFCURVE",
"934 276 CURVE",
"934 1145 LINE",
"342 1145 LINE",
"342 1462 LINE",
"160 1462 LINE",
"160 674 LINE",
"342 674 LINE",
"342 985 LINE",
"752 985 LINE",
"752 160 LINE",
"-70 160 LINE",
"-70 33 LINE",
"-45 16 OFFCURVE",
"8 0 OFFCURVE",
"31 0 CURVE SMOOTH"
);
}
);
width = 1114;
}
);
note = g154;
},
{
glyphname = g155;
lastChange = "2016-11-10 17:40:12 +0000";
layers = (
{
layerId = "21454836-FABD-4467-AECE-2162F2231E56";
paths = (
{
closed = 1;
nodes = (
"684 0 LINE SMOOTH",
"839 0 OFFCURVE",
"934 87 OFFCURVE",
"934 240 CURVE SMOOTH",
"934 1145 LINE",
"342 1145 LINE",
"342 1462 LINE",
"160 1462 LINE",
"160 674 LINE",
"342 674 LINE",
"342 985 LINE",
"752 985 LINE",
"752 160 LINE",
"-70 160 LINE",
"-70 33 LINE",
"-45 16 OFFCURVE",
"8 0 OFFCURVE",
"31 0 CURVE SMOOTH"
);
}
);
width = 1114;
}
);
note = g155;
},
{
glyphname = g156;
lastChange = "2016-11-10 17:40:12 +0000";
layers = (
{
layerId = "21454836-FABD-4467-AECE-2162F2231E56";
paths = (
{
closed = 1;
nodes = (
"645 0 LINE SMOOTH",
"753 0 OFFCURVE",
"827 38 OFFCURVE",
"866 115 CURVE",
"934 24 OFFCURVE",
"988 0 OFFCURVE",
"1075 0 CURVE SMOOTH",
"1145 0 LINE",
"1145 160 LINE",
"1106 160 LINE SMOOTH",
"1001 160 OFFCURVE",
"930 199 OFFCURVE",
"895 276 CURVE",
"895 1462 LINE",
"201 1462 LINE",
"201 1303 LINE",
"713 1303 LINE",
"713 883 LINE",
"510 883 LINE SMOOTH",
"286 883 OFFCURVE",
"180 782 OFFCURVE",
"180 571 CURVE SMOOTH",
"180 0 LINE"
);
},
{
closed = 1;
nodes = (
"362 557 LINE SMOOTH",
"362 676 OFFCURVE",
"407 723 OFFCURVE",
"496 723 CURVE SMOOTH",
"713 723 LINE",
"713 160 LINE",
"362 160 LINE"
);
}
);
width = 1075;
}
);
note = g156;
},
{
glyphname = g157;
lastChange = "2016-11-10 17:40:12 +0000";
layers = (
{
layerId = "21454836-FABD-4467-AECE-2162F2231E56";
paths = (
{
closed = 1;
nodes = (
"645 0 LINE SMOOTH",
"753 0 OFFCURVE",
"827 38 OFFCURVE",
"866 115 CURVE",
"934 24 OFFCURVE",
"988 0 OFFCURVE",
"1075 0 CURVE SMOOTH",
"1145 0 LINE",
"1145 160 LINE",
"1106 160 LINE SMOOTH",
"1001 160 OFFCURVE",
"930 199 OFFCURVE",
"895 276 CURVE",
"895 1462 LINE",
"201 1462 LINE",
"201 1303 LINE",
"713 1303 LINE",
"713 883 LINE",
"510 883 LINE SMOOTH",
"286 883 OFFCURVE",
"180 782 OFFCURVE",
"180 571 CURVE SMOOTH",
"180 160 LINE",
"-70 160 LINE",
"-70 33 LINE",
"-45 16 OFFCURVE",
"8 0 OFFCURVE",
"31 0 CURVE SMOOTH"
);
},
{
closed = 1;
nodes = (
"362 557 LINE SMOOTH",
"362 676 OFFCURVE",
"407 723 OFFCURVE",
"496 723 CURVE SMOOTH",
"713 723 LINE",
"713 160 LINE",
"362 160 LINE"
);
}
);
width = 1075;
}
);
note = g157;
},
{
glyphname = g158;
lastChange = "2016-11-10 17:40:12 +0000";
layers = (
{
layerId = "21454836-FABD-4467-AECE-2162F2231E56";
paths = (
{
closed = 1;
nodes = (
"645 0 LINE SMOOTH",
"800 0 OFFCURVE",
"895 87 OFFCURVE",
"895 240 CURVE SMOOTH",
"895 1462 LINE",
"201 1462 LINE",
"201 1303 LINE",
"713 1303 LINE",
"713 883 LINE",
"510 883 LINE SMOOTH",
"286 883 OFFCURVE",
"180 782 OFFCURVE",
"180 571 CURVE SMOOTH",
"180 160 LINE",
"-70 160 LINE",
"-70 33 LINE",
"-45 16 OFFCURVE",
"8 0 OFFCURVE",
"31 0 CURVE SMOOTH"
);
},
{
closed = 1;
nodes = (
"362 557 LINE SMOOTH",
"362 676 OFFCURVE",
"407 723 OFFCURVE",
"496 723 CURVE SMOOTH",
"713 723 LINE",
"713 160 LINE",
"362 160 LINE"
);
}
);
width = 1075;
}
);
note = g158;
},
{
glyphname = g159;
lastChange = "2016-11-10 17:40:12 +0000";
layers = (
{
layerId = "21454836-FABD-4467-AECE-2162F2231E56";
paths = (
{
closed = 1;
nodes = (
"1137 0 LINE",
"1137 160 LINE",
"625 160 LINE",
"625 414 LINE",
"810 438 OFFCURVE",
"928 562 OFFCURVE",
"928 743 CURVE SMOOTH",
"928 923 OFFCURVE",
"821 1043 OFFCURVE",
"625 1071 CURVE",
"625 1462 LINE",
"442 1462 LINE",
"442 1071 LINE",
"249 1043 OFFCURVE",
"139 922 OFFCURVE",
"139 745 CURVE SMOOTH",
"139 558 OFFCURVE",
"250 443 OFFCURVE",
"442 416 CURVE",
"442 0 LINE"
);
},
{
closed = 1;
nodes = (
"404 569 OFFCURVE",
"324 631 OFFCURVE",
"324 743 CURVE SMOOTH",
"324 852 OFFCURVE",
"403 918 OFFCURVE",
"532 918 CURVE SMOOTH",
"669 918 OFFCURVE",
"743 852 OFFCURVE",
"743 743 CURVE SMOOTH",
"743 635 OFFCURVE",
"670 569 OFFCURVE",
"537 569 CURVE SMOOTH"
);
}
);
width = 1067;
}
);
note = g159;
},
{
glyphname = g160;
lastChange = "2016-11-10 17:40:12 +0000";
layers = (
{
layerId = "21454836-FABD-4467-AECE-2162F2231E56";
paths = (
{
closed = 1;
nodes = (
"375 0 LINE SMOOTH",
"474 0 OFFCURVE",
"557 37 OFFCURVE",
"598 117 CURVE",
"681 24 OFFCURVE",
"741 0 OFFCURVE",
"844 0 CURVE SMOOTH",
"1137 0 LINE",
"1137 160 LINE",
"836 160 LINE SMOOTH",
"729 160 OFFCURVE",
"659 199 OFFCURVE",
"625 276 CURVE",
"625 414 LINE",
"810 438 OFFCURVE",
"928 562 OFFCURVE",
"928 743 CURVE SMOOTH",
"928 923 OFFCURVE",
"821 1043 OFFCURVE",
"625 1071 CURVE",
"625 1462 LINE",
"442 1462 LINE",
"442 1071 LINE",
"249 1043 OFFCURVE",
"139 922 OFFCURVE",
"139 745 CURVE SMOOTH",
"139 558 OFFCURVE",
"250 443 OFFCURVE",
"442 416 CURVE",
"442 160 LINE",
"-70 160 LINE",
"-70 33 LINE",
"-45 16 OFFCURVE",
"8 0 OFFCURVE",
"31 0 CURVE SMOOTH"
);
},
{
closed = 1;
nodes = (
"404 569 OFFCURVE",
"324 631 OFFCURVE",
"324 743 CURVE SMOOTH",
"324 852 OFFCURVE",
"403 918 OFFCURVE",
"532 918 CURVE SMOOTH",
"669 918 OFFCURVE",
"743 852 OFFCURVE",
"743 743 CURVE SMOOTH",
"743 635 OFFCURVE",
"670 569 OFFCURVE",
"537 569 CURVE SMOOTH"
);
}
);
width = 1067;
}
);
note = g160;
},
{
glyphname = g161;
lastChange = "2016-11-10 17:40:12 +0000";
layers = (
{
layerId = "21454836-FABD-4467-AECE-2162F2231E56";
paths = (
{
closed = 1;
nodes = (
"375 0 LINE SMOOTH",
"530 0 OFFCURVE",
"625 87 OFFCURVE",
"625 240 CURVE SMOOTH",
"625 414 LINE",
"810 438 OFFCURVE",
"928 562 OFFCURVE",
"928 743 CURVE SMOOTH",
"928 923 OFFCURVE",
"821 1043 OFFCURVE",
"625 1071 CURVE",
"625 1462 LINE",
"442 1462 LINE",
"442 1071 LINE",
"249 1043 OFFCURVE",
"139 922 OFFCURVE",
"139 745 CURVE SMOOTH",
"139 558 OFFCURVE",
"250 443 OFFCURVE",
"442 416 CURVE",
"442 160 LINE",
"-70 160 LINE",
"-70 33 LINE",
"-45 16 OFFCURVE",
"8 0 OFFCURVE",
"31 0 CURVE SMOOTH"
);
},
{
closed = 1;
nodes = (
"404 569 OFFCURVE",
"324 631 OFFCURVE",
"324 743 CURVE SMOOTH",
"324 852 OFFCURVE",
"403 918 OFFCURVE",
"532 918 CURVE SMOOTH",
"669 918 OFFCURVE",
"743 852 OFFCURVE",
"743 743 CURVE SMOOTH",
"743 635 OFFCURVE",
"670 569 OFFCURVE",
"537 569 CURVE SMOOTH"
);
}
);
width = 1067;
}
);
note = g161;
},
{
glyphname = g162;
lastChange = "2016-11-10 17:40:12 +0000";
layers = (
{
layerId = "21454836-FABD-4467-AECE-2162F2231E56";
paths = (
{
closed = 1;
nodes = (
"1153 0 LINE",
"1153 160 LINE",
"633 160 LINE",
"633 414 LINE",
"820 438 OFFCURVE",
"936 562 OFFCURVE",
"936 743 CURVE SMOOTH",
"936 926 OFFCURVE",
"829 1043 OFFCURVE",
"633 1071 CURVE",
"633 1303 LINE",
"983 1303 LINE",
"983 1462 LINE",
"100 1462 LINE",
"100 1303 LINE",
"451 1303 LINE",
"451 1071 LINE",
"256 1042 OFFCURVE",
"147 922 OFFCURVE",
"147 745 CURVE SMOOTH",
"147 564 OFFCURVE",
"256 443 OFFCURVE",
"451 416 CURVE",
"451 0 LINE"
);
},
{
closed = 1;
nodes = (
"412 569 OFFCURVE",
"332 631 OFFCURVE",
"332 743 CURVE SMOOTH",
"332 854 OFFCURVE",
"410 918 OFFCURVE",
"541 918 CURVE SMOOTH",
"677 918 OFFCURVE",
"752 852 OFFCURVE",
"752 743 CURVE SMOOTH",
"752 635 OFFCURVE",
"678 569 OFFCURVE",
"545 569 CURVE SMOOTH"
);
}
);
width = 1083;
}
);
note = g162;
},
{
glyphname = g163;
lastChange = "2016-11-10 17:40:12 +0000";
layers = (
{
layerId = "21454836-FABD-4467-AECE-2162F2231E56";
paths = (
{
closed = 1;
nodes = (
"383 0 LINE SMOOTH",
"482 0 OFFCURVE",
"565 37 OFFCURVE",
"606 117 CURVE",
"689 24 OFFCURVE",
"749 0 OFFCURVE",
"852 0 CURVE SMOOTH",
"1153 0 LINE",
"1153 160 LINE",
"844 160 LINE SMOOTH",
"739 160 OFFCURVE",
"668 199 OFFCURVE",
"633 276 CURVE",
"633 414 LINE",
"820 438 OFFCURVE",
"936 562 OFFCURVE",
"936 743 CURVE SMOOTH",
"936 926 OFFCURVE",
"829 1043 OFFCURVE",
"633 1071 CURVE",
"633 1303 LINE",
"983 1303 LINE",
"983 1462 LINE",
"100 1462 LINE",
"100 1303 LINE",
"451 1303 LINE",
"451 1071 LINE",
"256 1042 OFFCURVE",
"147 922 OFFCURVE",
"147 745 CURVE SMOOTH",
"147 564 OFFCURVE",
"256 443 OFFCURVE",
"451 416 CURVE",
"451 160 LINE",
"-70 160 LINE",
"-70 33 LINE",
"-45 16 OFFCURVE",
"8 0 OFFCURVE",
"31 0 CURVE SMOOTH"
);
},
{
closed = 1;
nodes = (
"412 569 OFFCURVE",
"332 631 OFFCURVE",
"332 743 CURVE SMOOTH",
"332 854 OFFCURVE",
"410 918 OFFCURVE",
"541 918 CURVE SMOOTH",
"677 918 OFFCURVE",
"752 852 OFFCURVE",
"752 743 CURVE SMOOTH",
"752 635 OFFCURVE",
"678 569 OFFCURVE",
"545 569 CURVE SMOOTH"
);
}
);
width = 1083;
}
);
note = g163;
},
{
glyphname = g164;
lastChange = "2016-11-10 17:40:12 +0000";
layers = (
{
layerId = "21454836-FABD-4467-AECE-2162F2231E56";
paths = (
{
closed = 1;
nodes = (
"383 0 LINE SMOOTH",
"538 0 OFFCURVE",
"633 87 OFFCURVE",
"633 240 CURVE SMOOTH",
"633 414 LINE",
"820 438 OFFCURVE",
"936 562 OFFCURVE",
"936 743 CURVE SMOOTH",
"936 926 OFFCURVE",
"829 1043 OFFCURVE",
"633 1071 CURVE",
"633 1303 LINE",
"983 1303 LINE",
"983 1462 LINE",
"100 1462 LINE",
"100 1303 LINE",
"451 1303 LINE",
"451 1071 LINE",
"256 1042 OFFCURVE",
"147 922 OFFCURVE",
"147 745 CURVE SMOOTH",
"147 564 OFFCURVE",
"256 443 OFFCURVE",
"451 416 CURVE",
"451 160 LINE",
"-70 160 LINE",
"-70 33 LINE",
"-45 16 OFFCURVE",
"8 0 OFFCURVE",
"31 0 CURVE SMOOTH"
);
},
{
closed = 1;
nodes = (
"412 569 OFFCURVE",
"332 631 OFFCURVE",
"332 743 CURVE SMOOTH",
"332 854 OFFCURVE",
"410 918 OFFCURVE",
"541 918 CURVE SMOOTH",
"677 918 OFFCURVE",
"752 852 OFFCURVE",
"752 743 CURVE SMOOTH",
"752 635 OFFCURVE",
"678 569 OFFCURVE",
"545 569 CURVE SMOOTH"
);
}
);
width = 1083;
}
);
note = g164;
},
{
glyphname = g165;
lastChange = "2016-11-10 17:40:12 +0000";
layers = (
{
layerId = "21454836-FABD-4467-AECE-2162F2231E56";
paths = (
{
closed = 1;
nodes = (
"632 -557 OFFCURVE",
"812 -397 OFFCURVE",
"885 -90 CURVE",
"750 -90 LINE",
"734 -141 OFFCURVE",
"708 -193 OFFCURVE",
"672 -244 CURVE SMOOTH",
"599 -347 OFFCURVE",
"518 -399 OFFCURVE",
"430 -399 CURVE SMOOTH",
"411 -399 OFFCURVE",
"395 -397 OFFCURVE",
"383 -393 CURVE",
"580 -27 LINE",
"651 119 LINE",
"740 19 OFFCURVE",
"798 0 OFFCURVE",
"899 0 CURVE SMOOTH",
"997 0 LINE",
"997 160 LINE",
"891 160 LINE SMOOTH",
"808 160 OFFCURVE",
"746 184 OFFCURVE",
"707 231 CURVE",
"772 364 OFFCURVE",
"825 478 OFFCURVE",
"864 573 CURVE",
"676 573 LINE",
"568 322 OFFCURVE",
"446 75 OFFCURVE",
"310 -170 CURVE SMOOTH",
"261 -258 LINE SMOOTH",
"204 -361 OFFCURVE",
"176 -420 OFFCURVE",
"176 -434 CURVE SMOOTH",
"176 -506 OFFCURVE",
"266 -557 OFFCURVE",
"387 -557 CURVE SMOOTH"
);
}
);
width = 928;
}
);
note = g165;
},
{
glyphname = g166;
lastChange = "2016-11-10 17:40:12 +0000";
layers = (
{
layerId = "21454836-FABD-4467-AECE-2162F2231E56";
paths = (
{
closed = 1;
nodes = (
"632 -557 OFFCURVE",
"812 -397 OFFCURVE",
"885 -90 CURVE",
"750 -90 LINE",
"734 -141 OFFCURVE",
"708 -193 OFFCURVE",
"672 -244 CURVE SMOOTH",
"599 -347 OFFCURVE",
"518 -399 OFFCURVE",
"430 -399 CURVE SMOOTH",
"411 -399 OFFCURVE",
"395 -397 OFFCURVE",
"383 -393 CURVE",
"580 -27 LINE",
"651 119 LINE",
"740 19 OFFCURVE",
"798 0 OFFCURVE",
"899 0 CURVE SMOOTH",
"997 0 LINE",
"997 160 LINE",
"891 160 LINE SMOOTH",
"808 160 OFFCURVE",
"746 184 OFFCURVE",
"707 231 CURVE",
"772 364 OFFCURVE",
"825 478 OFFCURVE",
"864 573 CURVE",
"676 573 LINE",
"615 430 OFFCURVE",
"550 293 OFFCURVE",
"483 160 CURVE",
"-70 160 LINE",
"-70 33 LINE",
"-45 16 OFFCURVE",
"8 0 OFFCURVE",
"31 0 CURVE SMOOTH",
"401 0 LINE",
"401 -2 LINE",
"391 -21 OFFCURVE",
"344 -107 OFFCURVE",
"261 -258 CURVE SMOOTH",
"204 -361 OFFCURVE",
"176 -420 OFFCURVE",
"176 -434 CURVE SMOOTH",
"176 -506 OFFCURVE",
"266 -557 OFFCURVE",
"387 -557 CURVE SMOOTH"
);
}
);
width = 928;
}
);
note = g166;
},
{
glyphname = g167;
lastChange = "2016-11-10 17:40:12 +0000";
layers = (
{
layerId = "21454836-FABD-4467-AECE-2162F2231E56";
paths = (
{
closed = 1;
nodes = (
"632 -557 OFFCURVE",
"812 -397 OFFCURVE",
"885 -90 CURVE",
"750 -90 LINE",
"734 -141 OFFCURVE",
"708 -193 OFFCURVE",
"672 -244 CURVE SMOOTH",
"599 -347 OFFCURVE",
"518 -399 OFFCURVE",
"430 -399 CURVE SMOOTH",
"411 -399 OFFCURVE",
"395 -397 OFFCURVE",
"383 -393 CURVE",
"580 -27 LINE",
"665 147 LINE SMOOTH",
"762 340 OFFCURVE",
"828 482 OFFCURVE",
"864 573 CURVE",
"676 573 LINE",
"615 430 OFFCURVE",
"550 293 OFFCURVE",
"483 160 CURVE",
"-70 160 LINE",
"-70 33 LINE",
"-45 16 OFFCURVE",
"8 0 OFFCURVE",
"31 0 CURVE SMOOTH",
"401 0 LINE",
"401 -2 LINE",
"391 -21 OFFCURVE",
"344 -107 OFFCURVE",
"261 -258 CURVE SMOOTH",
"204 -361 OFFCURVE",
"176 -420 OFFCURVE",
"176 -434 CURVE SMOOTH",
"176 -506 OFFCURVE",
"266 -557 OFFCURVE",
"387 -557 CURVE SMOOTH"
);
}
);
width = 928;
}
);
note = g167;
},
{
glyphname = g168;
lastChange = "2016-11-10 17:40:12 +0000";
layers = (
{
layerId = "21454836-FABD-4467-AECE-2162F2231E56";
paths = (
{
closed = 1;
nodes = (
"476 -557 OFFCURVE",
"549 -540 OFFCURVE",
"619 -505 CURVE SMOOTH",
"758 -437 OFFCURVE",
"850 -315 OFFCURVE",
"850 -211 CURVE SMOOTH",
"850 -99 OFFCURVE",
"763 -29 OFFCURVE",
"614 -29 CURVE SMOOTH",
"578 -29 LINE",
"651 119 LINE",
"740 19 OFFCURVE",
"798 0 OFFCURVE",
"899 0 CURVE SMOOTH",
"997 0 LINE",
"997 160 LINE",
"891 160 LINE SMOOTH",
"808 160 OFFCURVE",
"747 183 OFFCURVE",
"707 229 CURVE",
"775 366 OFFCURVE",
"827 480 OFFCURVE",
"864 573 CURVE",
"676 573 LINE",
"641 469 OFFCURVE",
"436 54 OFFCURVE",
"319 -155 CURVE SMOOTH",
"269 -244 OFFCURVE",
"233 -310 OFFCURVE",
"210 -353 CURVE SMOOTH",
"187 -396 OFFCURVE",
"176 -423 OFFCURVE",
"176 -434 CURVE SMOOTH",
"176 -505 OFFCURVE",
"263 -557 OFFCURVE",
"399 -557 CURVE SMOOTH"
);
},
{
closed = 1;
nodes = (
"412 -399 OFFCURVE",
"395 -397 OFFCURVE",
"383 -393 CURVE",
"446 -279 LINE",
"506 -166 LINE",
"559 -166 LINE SMOOTH",
"627 -166 OFFCURVE",
"668 -174 OFFCURVE",
"668 -229 CURVE SMOOTH",
"668 -313 OFFCURVE",
"542 -399 OFFCURVE",
"435 -399 CURVE SMOOTH"
);
}
);
width = 928;
}
);
note = g168;
},
{
glyphname = g169;
lastChange = "2016-11-10 17:40:12 +0000";
layers = (
{
layerId = "21454836-FABD-4467-AECE-2162F2231E56";
paths = (
{
closed = 1;
nodes = (
"476 -557 OFFCURVE",
"549 -540 OFFCURVE",
"619 -505 CURVE SMOOTH",
"758 -437 OFFCURVE",
"850 -315 OFFCURVE",
"850 -211 CURVE SMOOTH",
"850 -99 OFFCURVE",
"763 -29 OFFCURVE",
"614 -29 CURVE SMOOTH",
"578 -29 LINE",
"651 119 LINE",
"740 19 OFFCURVE",
"798 0 OFFCURVE",
"899 0 CURVE SMOOTH",
"997 0 LINE",
"997 160 LINE",
"891 160 LINE SMOOTH",
"808 160 OFFCURVE",
"747 183 OFFCURVE",
"707 229 CURVE",
"775 366 OFFCURVE",
"827 480 OFFCURVE",
"864 573 CURVE",
"676 573 LINE",
"647 498 OFFCURVE",
"583 360 OFFCURVE",
"483 160 CURVE",
"-70 160 LINE",
"-70 33 LINE",
"-45 16 OFFCURVE",
"8 0 OFFCURVE",
"31 0 CURVE SMOOTH",
"401 0 LINE",
"401 -2 LINE",
"319 -155 LINE SMOOTH",
"269 -244 OFFCURVE",
"233 -310 OFFCURVE",
"210 -353 CURVE SMOOTH",
"187 -396 OFFCURVE",
"176 -423 OFFCURVE",
"176 -434 CURVE SMOOTH",
"176 -505 OFFCURVE",
"263 -557 OFFCURVE",
"399 -557 CURVE SMOOTH"
);
},
{
closed = 1;
nodes = (
"412 -399 OFFCURVE",
"395 -397 OFFCURVE",
"383 -393 CURVE",
"446 -279 LINE",
"506 -166 LINE",
"559 -166 LINE SMOOTH",
"627 -166 OFFCURVE",
"668 -174 OFFCURVE",
"668 -229 CURVE SMOOTH",
"668 -313 OFFCURVE",
"542 -399 OFFCURVE",
"435 -399 CURVE SMOOTH"
);
}
);
width = 928;
}
);
note = g169;
},
{
glyphname = g170;
lastChange = "2016-11-10 17:40:12 +0000";
layers = (
{
layerId = "21454836-FABD-4467-AECE-2162F2231E56";
paths = (
{
closed = 1;
nodes = (
"476 -557 OFFCURVE",
"549 -540 OFFCURVE",
"619 -505 CURVE SMOOTH",
"758 -437 OFFCURVE",
"850 -315 OFFCURVE",
"850 -211 CURVE SMOOTH",
"850 -99 OFFCURVE",
"763 -29 OFFCURVE",
"614 -29 CURVE SMOOTH",
"578 -29 LINE",
"685 182 OFFCURVE",
"792 392 OFFCURVE",
"864 573 CURVE",
"676 573 LINE",
"647 498 OFFCURVE",
"583 360 OFFCURVE",
"483 160 CURVE",
"-70 160 LINE",
"-70 33 LINE",
"-45 16 OFFCURVE",
"8 0 OFFCURVE",
"31 0 CURVE SMOOTH",
"401 0 LINE",
"401 -2 LINE",
"319 -155 LINE SMOOTH",
"269 -244 OFFCURVE",
"233 -310 OFFCURVE",
"210 -353 CURVE SMOOTH",
"187 -396 OFFCURVE",
"176 -423 OFFCURVE",
"176 -434 CURVE SMOOTH",
"176 -505 OFFCURVE",
"263 -557 OFFCURVE",
"399 -557 CURVE SMOOTH"
);
},
{
closed = 1;
nodes = (
"412 -399 OFFCURVE",
"395 -397 OFFCURVE",
"383 -393 CURVE",
"446 -279 LINE",
"506 -166 LINE",
"559 -166 LINE SMOOTH",
"627 -166 OFFCURVE",
"668 -174 OFFCURVE",
"668 -229 CURVE SMOOTH",
"668 -313 OFFCURVE",
"542 -399 OFFCURVE",
"435 -399 CURVE SMOOTH"
);
}
);
width = 928;
}
);
note = g170;
},
{
glyphname = g171;
lastChange = "2016-11-10 17:40:12 +0000";
layers = (
{
layerId = "21454836-FABD-4467-AECE-2162F2231E56";
paths = (
{
closed = 1;
nodes = (
"492 -557 LINE",
"492 0 LINE",
"870 0 LINE",
"870 160 LINE",
"492 160 LINE",
"492 664 LINE",
"309 664 LINE",
"309 160 LINE",
"80 160 LINE",
"80 0 LINE",
"309 0 LINE",
"309 -557 LINE"
);
}
);
width = 801;
}
);
note = g171;
},
{
glyphname = g172;
lastChange = "2016-11-10 17:40:12 +0000";
layers = (
{
layerId = "21454836-FABD-4467-AECE-2162F2231E56";
paths = (
{
closed = 1;
nodes = (
"492 -557 LINE",
"492 0 LINE",
"870 0 LINE",
"870 160 LINE",
"492 160 LINE",
"492 664 LINE",
"309 664 LINE",
"309 160 LINE",
"-70 160 LINE",
"-70 33 LINE",
"-45 16 OFFCURVE",
"8 0 OFFCURVE",
"31 0 CURVE SMOOTH",
"309 0 LINE",
"309 -557 LINE"
);
}
);
width = 801;
}
);
note = g172;
},
{
glyphname = g173;
lastChange = "2016-11-10 17:40:12 +0000";
layers = (
{
layerId = "21454836-FABD-4467-AECE-2162F2231E56";
paths = (
{
closed = 1;
nodes = (
"492 -557 LINE",
"492 0 LINE",
"721 0 LINE",
"721 160 LINE",
"492 160 LINE",
"492 664 LINE",
"309 664 LINE",
"309 160 LINE",
"-70 160 LINE",
"-70 33 LINE",
"-45 16 OFFCURVE",
"8 0 OFFCURVE",
"31 0 CURVE SMOOTH",
"309 0 LINE",
"309 -557 LINE"
);
}
